<?xml version="1.0" encoding="UTF-8"?>
<svg viewBox="0 0 14 15" xmlns="http://www.w3.org/2000/svg">
<path d="M11.6667 2.25C11.6667 1.92784 11.4055 1.66668 11.0834 1.66668H9.33335V0.5H8.16668V1.66668H6.41668V0.5H5.25V1.66668H3.5V0.5H2.33332V1.66668H0.583324C0.26116 1.66668 0 1.92784 0 2.25V3.41668H11.6667V2.25Z" fill="#FFBD54"/>
<path d="M9.32291 7.08867C9.70476 6.9741 10.1014 6.91616 10.5 6.91665C10.8952 6.917 11.2882 6.97497 11.6667 7.08872V4H0V11.5833C0 11.9055 0.26116 12.1666 0.583324 12.1666H6.58875C5.94152 10.0094 7.16565 7.73592 9.32291 7.08867ZM8.16668 5.16668H9.33335V6.33335H8.16668V5.16668ZM5.25 5.16668H6.41668V6.33335H5.25V5.16668ZM3.5 11H2.33332V9.83332H3.5V11ZM3.5 8.66668H2.33332V7.5H3.5V8.66668ZM3.5 6.33332H2.33332V5.16665H3.5V6.33332ZM5.25 7.5H6.41668V8.66668H5.25V7.5Z" fill="#FFBD54"/>
<path d="m10.5 7.5c-1.933 0-3.5 1.567-3.5 3.5 0 1.933 1.567 3.5 3.5 3.5 1.933 0 3.5-1.567 3.5-3.5-0.0022-1.932-1.5679-3.4978-3.5-3.5zm0.4124 3.9124c-0.1566 0.1554-0.3871 0.2099-0.5967 0.1412l-1.75-0.5833 0.36925-1.1084 1.4076 0.46665 1.4951-1.495 0.8248 0.82483-1.75 1.754z" fill="#FFBD54"/>
</svg>
