<?xml version="1.0" encoding="UTF-8"?>
<svg viewBox="0 0 78 78" xmlns="http://www.w3.org/2000/svg">
<path d="m39.612 5.7129h-13.406c-1.2622 0-2.2852-1.023-2.2852-2.2852 0-1.2622 1.023-2.2852 2.2852-2.2852h13.406c1.2621 0 2.2851 1.023 2.2851 2.2852 0 1.2622-1.023 2.2852-2.2851 2.2852z" fill="#716680"/>
<path d="m27.577 51.644h10.664v4.5703h-10.664v-4.5703z" fill="#716680"/>
<path d="m26.816 5.7129h12.188v6.3223h-12.188v-6.3223z" fill="#D6CFC4"/>
<path d="m34.433 5.7129h4.5703v6.3223h-4.5703v-6.3223z" fill="#C4BEB4"/>
<path d="m68.861 30.622v32.6h-9.1419v-32.296c0-3.0296-2.4559-5.485-5.4855-5.485h-9.1383v-9.1412h9.443c7.9099 0 14.323 6.4121 14.323 14.322z" fill="#716680"/>
<path d="m54.538 16.301h-4.5703c7.9099 0 14.323 6.4121 14.323 14.322v32.6h4.5704v-32.6c0-7.9094-6.4128-14.322-14.323-14.322z" fill="#635870"/>
<path d="m55.834 76.857h-33.668c-5.0059 0-9.0644-4.0585-9.0644-9.0644h51.797c0 5.0059-4.0585 9.0644-9.0644 9.0644z" fill="#716680"/>
<path d="m60.328 67.793c0 5.0059-4.0585 9.0644-9.0644 9.0644h4.5703c5.0059 0 9.0644-4.0585 9.0644-9.0644h-4.5703z" fill="#635870"/>
<path d="m42.05 51.644h-18.281c-1.6829 0-3.0469-1.3639-3.0469-3.0468v-33.516c0-1.6829 1.364-3.0468 3.0469-3.0468h18.281c1.6829 0 3.0468 1.3639 3.0468 3.0468v33.516c0 1.6829-1.3639 3.0468-3.0468 3.0468z" fill="#E8E1D5"/>
<path d="m42.05 12.035h-4.5716c1.6824 0 3.0469 1.3639 3.0469 3.0468v33.516c0 1.6829-1.3645 3.0468-3.0469 3.0468h4.5716c1.6829 0 3.0468-1.3639 3.0468-3.0468v-33.516c0-1.6829-1.3639-3.0468-3.0468-3.0468z" fill="#D6CFC4"/>
<path d="m51.189 20.8c0 3.3652-2.7285 6.0937-6.0938 6.0937-3.3658 0-6.0937-2.7285-6.0937-6.0937 0-3.3653 2.7279-6.0938 6.0937-6.0938 3.3653 0 6.0938 2.7285 6.0938 6.0938z" fill="#FFBD54"/>
<path d="m47.381 20.8c0 1.2622-1.0236 2.2851-2.2852 2.2851-1.2622 0-2.2851-1.0229-2.2851-2.2851s1.0229-2.2852 2.2851-2.2852c1.2616 0 2.2852 1.023 2.2852 2.2852z" fill="#FF573D"/>
<path d="m74.572 67.793h-71.145c-1.2622 0-2.2852-1.023-2.2852-2.2852s1.023-2.2851 2.2852-2.2851h71.145c1.2622 0 2.2851 1.0229 2.2851 2.2851s-1.0229 2.2852-2.2851 2.2852z" fill="#E8E1D5"/>
<path d="m74.572 63.223h-4.5703c1.2621 0 2.2851 1.0229 2.2851 2.2851s-1.023 2.2852-2.2851 2.2852h4.5703c1.2622 0 2.2851-1.023 2.2851-2.2852s-1.0229-2.2851-2.2851-2.2851z" fill="#D6CFC4"/>
<path d="m45.096 24.228c1.89 0 3.4278-1.5377 3.4278-3.4277s-1.5383-3.4277-3.4278-3.4277c-1.89 0-3.4277 1.5377-3.4277 3.4277s1.5371 3.4277 3.4277 3.4277zm0-4.5703c0.6296 0 1.1426 0.5124 1.1426 1.1426s-0.513 1.1426-1.1426 1.1426c-0.6302 0-1.1425-0.5124-1.1425-1.1426s0.5123-1.1426 1.1425-1.1426z"/>
<path d="m74.572 62.08h-4.5686v-0.5838c0-0.6314-0.5117-1.1426-1.1425-1.1426-0.6314 0-1.1426 0.5112-1.1426 1.1426v0.5838h-6.8573v-31.152c0-3.6551-2.9731-6.6288-6.6269-6.6288h-2.8077c0.5761-1.0378 0.9046-2.2304 0.9046-3.4985 0-1.211-0.3006-2.353-0.8284-3.3569h3.0362c7.2672 0 13.18 5.9122 13.18 13.18v26.023c0 0.6314 0.5112 1.1426 1.1426 1.1426 0.6308 0 1.1425-0.5112 1.1425-1.1426v-26.023c0-8.5277-6.9376-15.465-15.465-15.465h-4.9203c-1.0235-0.8224-2.275-1.3717-3.6431-1.5389-0.5969-1.6056-2.1459-2.7267-3.9258-2.7267h-1.9043v-4.0788c1.6376-0.25708 2.8945-1.6776 2.8945-3.3861 0-1.89-1.5377-3.4277-3.4277-3.4277h-13.406c-1.89 0-3.4277 1.5377-3.4277 3.4277 0 1.7085 1.2568 3.129 2.8945 3.3861v4.0788h-1.9043c-2.3101 0-4.1895 1.8793-4.1895 4.1894v4.4055c0 0.6308 0.5118 1.1426 1.1426 1.1426s1.1426-0.5118 1.1426-1.1426v-4.4055c0-1.0503 0.8546-1.9043 1.9043-1.9043h18.281c0.5349 0 1.0229 0.2226 1.371 0.5838-3.1849 0.7576-5.5617 3.6247-5.5617 7.0388 0 3.6021 2.6452 6.5966 6.0949 7.1453v20.652c0 1.0503-0.8539 1.9043-1.9042 1.9043h-18.281c-1.0497 0-1.9043-0.854-1.9043-1.9043v-24.242c0-0.6314-0.5118-1.1426-1.1426-1.1426s-1.1426 0.5112-1.1426 1.1426v24.242c0 2.3101 1.8794 4.1894 4.1895 4.1894h2.666v3.4277c0 0.6314 0.5118 1.1426 1.1426 1.1426h10.664c0.6308 0 1.1425-0.5112 1.1425-1.1426v-3.4277h2.6661c2.3101 0 4.1894-1.8793 4.1894-4.1894v-20.652c1.1866-0.1899 2.2786-0.6677 3.1992-1.3616h4.7959c2.394 0 4.3418 1.9483 4.3418 4.3436v31.152h-55.148c-1.89 0-3.4277 1.5377-3.4277 3.4277s1.5377 3.4277 3.4277 3.4277h8.5967c0.5701 5.0923 4.9 9.0645 10.142 9.0645h33.668c5.2416 0 9.5715-3.9722 10.142-9.0645h8.5967c1.89 0 3.4277-1.5377 3.4277-3.4277s-1.5377-3.4277-3.4277-3.4277zm-49.509-58.652c0-0.6302 0.5124-1.1426 1.1426-1.1426h13.406c0.6302 0 1.1425 0.51237 1.1425 1.1426 0 0.63021-0.5123 1.1426-1.1425 1.1426h-13.406c-0.6302 0-1.1426-0.51237-1.1426-1.1426zm2.8946 7.4649v-4.0371h9.9023v4.0371h-9.9023zm9.1406 44.18h-8.3789v-2.2852h8.3789v2.2852zm3.0457-34.272c0-2.7303 2.2208-4.9512 4.9511-4.9512 2.7297 0 4.9512 2.2209 4.9512 4.9512 0 2.7267-2.2155 4.9446-4.9405 4.9506h-0.0095-0.0101c-2.7261-0.0042-4.9422-2.2233-4.9422-4.9506zm34.428 45.85h-53.854c-0.6308 0-1.1426 0.5112-1.1426 1.1426s0.5118 1.1425 1.1426 1.1425h42.954c-0.5558 3.8289-3.8585 6.7793-7.8385 6.7793h-33.668c-3.98 0-7.2827-2.9504-7.8385-6.7793h1.5412c0.6314 0 1.1426-0.5111 1.1426-1.1425s-0.5112-1.1426-1.1426-1.1426h-12.441c-0.6302 0-1.1426-0.5124-1.1426-1.1426s0.51237-1.1426 1.1426-1.1426h71.145c0.6302 0 1.1425 0.5124 1.1425 1.1426s-0.5123 1.1426-1.1425 1.1426z"/>
<path d="m24.683 48.369h16.453c0.6308 0 1.1426-0.5111 1.1426-1.1425s-0.5118-1.1426-1.1426-1.1426h-16.453c-0.6308 0-1.1426 0.5112-1.1426 1.1426s0.5118 1.1425 1.1426 1.1425z"/>
<path d="m24.683 44.104h16.453c0.6308 0 1.1426-0.5112 1.1426-1.1426s-0.5118-1.1425-1.1426-1.1425h-16.453c-0.6308 0-1.1426 0.5111-1.1426 1.1425s0.5118 1.1426 1.1426 1.1426z"/>
</svg>
