<?xml version="1.0" encoding="UTF-8"?>
<svg viewBox="0 0 54 78" xmlns="http://www.w3.org/2000/svg">
<path d="m52.866 38.723c0 3.3413-2.7091 6.0504-6.0504 6.0504s-6.0504-2.7091-6.0504-6.0504c0-3.3414 2.7091-6.0505 6.0504-6.0505s6.0504 2.7091 6.0504 6.0505z" fill="#89CEEA"/>
<path d="m46.815 32.672c-0.8024 0-1.5681 0.1578-2.2689 0.4414 2.2169 0.8981 3.7815 3.0701 3.7815 5.6091 0 2.5389-1.5646 4.7109-3.7815 5.609 0.7008 0.2836 1.4665 0.4414 2.2689 0.4414 3.3413 0 6.0504-2.7091 6.0504-6.0504 0-3.3414-2.7091-6.0505-6.0504-6.0505z" fill="#78C0DE"/>
<path d="m37.437 60.058v16.253h-36.303v-16.253c0-5.6061 3.8193-10.316 8.9911-11.653 0.4491-0.117 0.9087-0.2074 1.3761-0.2712 0.5324-0.0726 1.0742-0.1105 1.6261-0.1105h12.316c0.5518 0 1.0937 0.0379 1.626 0.1105 0.4715 0.0638 0.933 0.156 1.3856 0.2742 5.1671 1.3383 8.9817 6.0475 8.9817 11.65z" fill="#E8E1D5"/>
<path d="m28.455 48.408c-0.4526-0.1182-0.914-0.2104-1.3856-0.2742-0.5323-0.0726-1.0741-0.1105-1.626-0.1105h-4.5378c0.5518 0 1.0937 0.0379 1.626 0.1105 0.4715 0.0638 0.933 0.156 1.3856 0.2742 5.1671 1.3383 8.9817 6.0475 8.9817 11.65v16.253h4.5378v-16.253c0-5.6025-3.8146-10.312-8.9817-11.65z" fill="#D6CFC4"/>
<path d="m28.455 48.408-9.1648 27.903-9.1649-27.906c0.4491-0.117 0.9088-0.2074 1.3761-0.2712 0.5324-0.0726 1.0742-0.1105 1.6261-0.1105h12.316c0.5519 0 1.0937 0.0379 1.626 0.1105 0.4715 0.0638 0.933 0.156 1.3856 0.2742z" fill="#FF573D"/>
<path d="m26.13 48.023c0.546 0 0.9454 0.5146 0.8107 1.044-0.6718 2.64-3.8441 4.6401-7.6552 4.6401s-6.9834-2.0001-7.6552-4.6401c-0.1347-0.5294 0.2647-1.044 0.8107-1.044h2.3486v-8.8358h8.9918v8.8358h2.3486z" fill="#EBA28C"/>
<path d="m19.286 76.311c0.0461-0.3923-3.8654-25.125-4.5225-29.276-0.052-0.3262-0.3562-0.5501-0.6836-0.5028l-6.282 0.9016c-0.28243 0.0408-0.4981 0.273-0.51759 0.5578l-0.56014 8.21 2.6406 1.6066-0.73622 3.8394 10.662 14.663z" fill="#C4BEB4"/>
<path d="m19.286 76.311c-0.0461-0.3923 3.8648-25.125 4.5224-29.276 0.0515-0.3262 0.3563-0.5501 0.6837-0.5028l6.282 0.9016c0.2824 0.0408 0.4981 0.273 0.5176 0.5578l0.5601 8.21-2.6405 1.6066 0.7356 3.8394-10.661 14.663z" fill="#C4BEB4"/>
<path d="m8.2437 24.353c0 2.2553-1.639 4.084-3.6604 4.084-2.0213 0-3.2976-2.0952-3.2976-4.3505 0-2.6619 1.2763-3.8176 3.2976-3.8176 2.0213 0 3.6604 1.8287 3.6604 4.0841z" fill="#EBA28C"/>
<path d="m30.328 24.353c0 2.2553 1.639 4.084 3.6604 4.084 2.0213 0 3.2976-2.0952 3.2976-4.3505 0-2.6619-1.2763-3.8176-3.2976-3.8176-2.0214 0-3.6604 1.8287-3.6604 4.0841z" fill="#EBA28C"/>
<path d="m5.9748 29.608v-9.8485c0-6.9314 5.6191-12.55 12.551-12.55h1.5209c6.9314 0 12.55 5.6191 12.55 12.55v9.8485c0 7.345-5.9541 13.298-13.298 13.298h-0.0248c-7.3444 0-13.299-5.9535-13.299-13.298z" fill="#FCC19C"/>
<path d="m20.046 7.2091h-1.5208c-0.5111 0-1.014 0.03427-1.5085 0.09335 6.2194 0.74567 11.042 6.0368 11.042 12.457v9.8485c0 6.5757-4.7724 12.035-11.042 13.107 0.7332 0.1259 1.4872 0.1915 2.2565 0.1915h0.0248c7.3444 0 13.298-5.9535 13.298-13.298v-9.8485c0-6.9314-5.6191-12.55-12.55-12.55z" fill="#EBA28C"/>
<path d="m5.9748 24.239c0 0.0963 0.08745 0.1678 0.18198 0.1483 0.60505-0.1276 2.5224-0.6505 2.692-2.1773 0.20148-1.8151 3.6403-6.958 9.081-7.462 3.9617-0.3675 5.8867-2.4456 6.6407-3.5481 0.1506-0.2204 0.4898-0.1566 0.5459 0.104 0.3002 1.3997 1.1173 4.3204 2.9466 5.9653 2.4178 2.1744 1.6905 6.958 4.3677 7.1465 0.0892 0.0059 0.166-0.0621 0.166-0.1513v-3.7791c0-0.4006 0.325-0.7256 0.7256-0.7256h0.0662c0.3362 0 0.6286-0.2293 0.706-0.5566 0.3286-1.3862 1.0299-5.092-0.0242-7.9849-1.3223-3.6302-5.0264-5.1429-5.0264-5.1429s-1.2568-4.9408-8.961-4.9408c-7.7049 0-10.727 3.2444-10.727 3.2444s-5.8519 5.017-5.3479 9.4071c0.33857 2.9507 0.46796 4.8752 0.51582 5.82 0.02009 0.3858 0.33857 0.6883 0.72499 0.6883 0.40061 0 0.72558 0.325 0.72558 0.7256v3.219z" fill="#633327"/>
<path d="m34.07 11.219c-1.3223-3.6303-5.0264-5.1435-5.0264-5.1435s-1.2568-4.9408-8.961-4.9408c-0.9041 0-1.7407 0.04609-2.5183 0.12467 5.911 0.76753 6.9415 4.8161 6.9415 4.8161s3.7041 1.5132 5.0264 5.1435c1.0541 2.8923 0.3522 6.5981 0.0236 7.9849-0.02 0.0857-0.0561 0.1648-0.1034 0.2346 0.8816 2.2376 1.0175 4.8397 2.978 4.9774 0.0892 0.0059 0.166-0.0621 0.166-0.1513v-3.7791c0-0.4006 0.325-0.7256 0.7256-0.7256h0.0662c0.3356 0 0.6281-0.2293 0.7055-0.5566 0.3291-1.3862 1.0304-5.092-0.0237-7.9843z" fill="#572D22"/>
<path d="m13.392 14.748c-4.0367 0.374-6.9692 3.3011-8.2974 5.5287 0.04963 0.0106 0.10163 0.0177 0.15481 0.0177 0.4006 0 0.72557 0.325 0.72557 0.7256v3.219c0 0.0963 0.08745 0.1678 0.18199 0.1483 0.60504-0.1276 2.5224-0.6505 2.692-2.1767 0.20149-1.8151 3.6403-6.958 9.0809-7.4626 1.3697-0.127 2.4958-0.4585 3.414-0.8833-2.4863 0.3539-3.99 0.5164-7.9518 0.8833z" fill="#572D22"/>
<path d="m17.089 26.199c0 2.0882-1.6928 3.7816-3.7815 3.7816s-3.7815-1.6934-3.7815-3.7816c0-2.0886 1.6928-3.7815 3.7815-3.7815s3.7815 1.6929 3.7815 3.7815z" fill="#CEE8F2"/>
<path d="m29.046 26.199c0 2.0882-1.6928 3.7816-3.7815 3.7816s-3.7816-1.6934-3.7816-3.7816c0-2.0886 1.6929-3.7815 3.7816-3.7815s3.7815 1.6929 3.7815 3.7815z" fill="#CEE8F2"/>
<path d="m54 38.723c0-3.9617-3.2231-7.1849-7.1849-7.1849-3.9617 0-7.1848 3.2232-7.1848 7.1849 0 3.5759 2.6257 6.5491 6.0504 7.0945v1.4535c0 4.5644-3.2823 8.3748-7.6103 9.1997-0.8709-3.0719-2.8403-5.7692-5.576-7.5199l-0.0709-1.0364c-0.0555-0.813-0.6812-1.4872-1.4878-1.6036l-1.9947-0.2859c3.9316-2.0562 6.6224-6.1728 6.6224-10.908v-5.8761c1.7028-0.7528 2.8568-2.7204 2.8568-5.1535 0-2.6447-1.1416-4.3411-3.1777-4.8156 0.3752-1.6573 1.0015-5.401-0.1063-8.441-1.1936-3.2752-4.0427-5.001-5.1843-5.5807-0.6032-1.4506-2.8526-5.2492-9.8691-5.2492-7.6511 0-11.033 3.0819-11.503 3.5511-0.57609 0.50223-6.2478 5.5807-5.6977 10.364 0.29484 2.5679 0.42838 4.3475 0.48746 5.3461-2.0615 0.4609-3.2178 2.1625-3.2178 4.825 0 2.4503 1.1699 4.4273 2.8911 5.1688v5.8608c0 4.7328 2.6878 8.8469 6.6153 10.904l-2.0213 0.2901c-0.80711 0.1164-1.4328 0.7906-1.4884 1.6036l-0.07031 1.0364c-3.7632 2.4078-6.0776 6.607-6.0776 11.108v7.7066c0 0.6263 0.50814 1.1345 1.1344 1.1345 0.62632 0 1.1345-0.5082 1.1345-1.1345v-7.7066c0-3.118 1.3412-6.0611 3.6037-8.1066l-0.28479 4.1726c-0.02896 0.4231 0.18021 0.8267 0.54182 1.0465l1.9682 1.197-0.58791 3.0666c-0.05909 0.3079 0.01241 0.6269 0.19675 0.8804l9.3516 12.862h-14.789v-2.5904c0-0.6263-0.50814-1.1344-1.1345-1.1344-0.62631 0-1.1344 0.5081-1.1344 1.1344v3.7248c0 0.6263 0.50814 1.1345 1.1344 1.1345h36.303c0.6263 0 1.1344-0.5082 1.1344-1.1345v-16.253c0-0.4573-0.0242-0.9111-0.0715-1.3602 5.3745-1.0263 9.4497-5.7585 9.4497-11.427v-1.4535c3.4246-0.5454 6.0504-3.5186 6.0504-7.0945zm-18.25 17.916h-2.8533c0.0668-0.1601 0.0999-0.3344 0.0874-0.5141l-0.2847-4.172c1.4074 1.2727 2.4573 2.8922 3.0506 4.6861zm-5.0767-1.0476-1.6621 1.0116c-1.9794-0.1673-3.7857-0.9513-5.2238-2.1602 0.0614-0.3918 0.7699-4.88 1.06-6.7134l5.342 0.7675 0.4839 7.0945zm-11.4-11.55h0.0236c1.1528 0 2.2743-0.1365 3.349-0.3929v1.5032h-6.7216v-1.5032c1.0748 0.2564 2.1962 0.3929 3.349 0.3929zm-3.3011 3.3792h2.1997c0.0237 1.8517 0.4822 3.6001 1.2775 5.1481-0.055 0.0012-0.1093 0.0036-0.1643 0.0036-0.8786 0-1.7495-0.1235-2.5549-0.3563-0.2375-1.5026-0.4898-3.0985-0.758-4.7954zm5.8708 4.7789c-0.8651-1.3933-1.3744-3.0282-1.4022-4.7789h2.1579c-0.2677 1.6904-0.5194 3.281-0.7557 4.7789zm-2.5579 2.6417c0.5436 0 1.0772-0.0366 1.5995-0.1081 0.153 0.1825 0.312 0.3586 0.475 0.5312-0.9377 5.9547-1.603 10.22-2.0739 13.279-0.4875-3.1653-1.1829-7.6215-2.1732-13.904 0.7031 0.133 1.4287 0.2021 2.1726 0.2021zm5.6297-9.8284v-2.1094c4.1213-1.7483 7.2676-5.3585 8.379-9.7693v1.9824c0 4.9691-3.6308 9.104-8.379 9.8963zm11.236-20.926c0 1.5811-0.8089 3.216-2.1632 3.216-0.0862 0-0.1719-0.0059-0.257-0.0159v-5.8673c0.0851-0.01 0.1708-0.0159 0.257-0.0159 1.0695 0 2.1632 0.319 2.1632 2.6831zm-26.056-18.846c0.0319-0.02718 0.0626-0.05672 0.0916-0.08804 0.0265-0.02895 2.7681-2.8834 9.8963-2.8834 6.6495 0 7.8177 3.9304 7.8614 4.0864 0.0821 0.35629 0.3297 0.62868 0.6671 0.76931 0.0325 0.013 3.2657 1.3879 4.393 4.4823 0.8922 2.4485 0.3404 5.7154 0.0538 7.0371-0.9011 0.1288-1.5959 0.9052-1.5959 1.8412v1.4612c-0.1129-0.3167-0.2293-0.6919-0.3593-1.128-0.4466-1.499-0.9536-3.1989-2.2819-4.393-1.6172-1.4547-2.354-4.2324-2.5956-5.3597-0.1206-0.5614-0.5625-0.9962-1.1256-1.1073-0.5649-0.11108-1.1404 0.12462-1.4659 0.60092-0.6872 1.005-2.3552 2.7386-5.8088 3.0589-0.0484 0.0047-0.0969 0.0094-0.1448 0.0147-0.6233 0.0668-1.0741 0.6258-1.0074 1.2485 0.0668 0.6234 0.6269 1.073 1.2485 1.0075 0.0378-0.0042 0.0751-0.0077 0.1129-0.0113 3.151-0.2924 5.1653-1.5646 6.3866-2.7522 0.5064 1.6343 1.3909 3.6444 2.8834 4.9869 0.8532 0.7675 1.2449 2.0828 1.6243 3.3549 0.4449 1.4913 0.9838 3.294 2.5336 3.8878v4.2525c0 6.708-5.4566 12.165-12.165 12.165h-0.0236c-6.7081 0-12.165-5.4566-12.165-12.165v-4.3015c0.61864-0.2003 1.1522-0.4756 1.5876-0.8124-0.19735 0.5317-0.30548 1.1061-0.30548 1.7052 0 2.7103 2.2051 4.916 4.916 4.916 2.3203 0 4.2684-1.6166 4.7824-3.7816h2.3918c0.5135 2.165 2.4621 3.7816 4.7824 3.7816 2.7103 0 4.916-2.2057 4.916-4.916 0-2.7109-2.2057-4.916-4.916-4.916-2.3203 0-4.2689 1.616-4.7824 3.7815h-2.3918c-0.514-2.1655-2.4621-3.7815-4.7824-3.7815-1.3088 0-2.4988 0.5153-3.3809 1.3519 0.02127-0.0981 0.03841-0.1979 0.04963-0.2996 0.0969-0.8703 1.538-3.3371 3.9475-4.9502 0.5206-0.3486 0.66-1.0535 0.312-1.574-0.3486-0.5206-1.0535-0.66-1.574-0.3114-2.8084 1.8795-4.7512 4.8817-4.9402 6.5851-0.03427 0.3049-0.28716 0.5548-0.61214 0.7481v-1.8134-0.0041c-0.00177-0.5324-0.22807-1.0116-0.58909-1.3502-0.0124-0.0124-0.0254-0.0248-0.0384-0.0372-0.01005-0.0088-0.02068-0.0171-0.03073-0.0254-0.01654-0.0142-0.03367-0.0283-0.0514-0.0413-0.21921-0.1738-0.47801-0.3002-0.76103-0.3605-0.05909-1.0151-0.19557-2.8656-0.50341-5.544-0.3557-3.1003 3.4595-7.127 4.9597-8.4162zm0.5654 20.958c0-1.4594 1.1877-2.6471 2.6471-2.6471s2.647 1.1877 2.647 2.6471-1.1876 2.6471-2.647 2.6471-2.6471-1.1877-2.6471-2.6471zm11.957 0c0-1.4594 1.1876-2.6471 2.647-2.6471 1.4595 0 2.6471 1.1877 2.6471 2.6471s-1.1876 2.6471-2.6471 2.6471c-1.4594 0-2.647-1.1877-2.647-2.6471zm-18.034-4.7954c0.08627 0 0.17194 0.0071 0.25703 0.0171v5.8661c-0.08509 0.01-0.17076 0.0159-0.25703 0.0159-1.3542 0-2.1631-1.6349-2.1631-3.216 0-2.3641 1.0937-2.6831 2.1631-2.6831zm0.72794 13.713v-1.8465c1.1416 4.3488 4.266 7.9034 8.3448 9.6334v2.1029c-4.731-0.8065-8.3448-4.9325-8.3448-9.8898zm4.6383 21.722-2.0515-1.2479 0.40238-5.8885c5.9e-4 -0.0071 0.00118-0.0136 0.00118-0.0207l0.08095-1.1859 5.342-0.7669c0.2907 1.8382 3.128 19.894 3.7863 24.212l-7.68-10.563 0.64345-3.3567c0.0892-0.465-0.1199-0.9365-0.52469-1.1829zm26.353 18.338h-14.789l4.9726-6.8398c0.3687-0.5064 0.2565-1.216-0.2505-1.5847-0.5064-0.3681-1.216-0.2559-1.5847 0.2505l-3.59 4.9378c0.5459-3.5824 1.3891-8.9929 2.3279-14.968 1.4299 0.949 3.0808 1.5889 4.8575 1.8276l0.494 2.5785-1.2314 1.6934c-0.3681 0.507-0.2558 1.2166 0.2505 1.5847 0.507 0.3687 1.2166 0.2564 1.5847-0.25l1.5203-2.091c0.185-0.2541 0.2559-0.5726 0.1968-0.881l-0.4839-2.5271h5.6628c0.0402 0.3799 0.0614 0.764 0.0614 1.151v15.118h6e-4zm10.513-31.538c-2.7108 0-4.9159-2.2051-4.9159-4.916s2.2051-4.916 4.9159-4.916c2.7109 0 4.916 2.2051 4.916 4.916s-2.2051 4.916-4.916 4.916z"/>
</svg>
