<?xml version="1.0" encoding="UTF-8"?>
<svg viewBox="0 0 72 78" xmlns="http://www.w3.org/2000/svg">
<path d="m30.857 25.714v-3.3362c1e-4 -0.5655 0.1244-1.124 0.3642-1.636 0.2399-0.5121 0.5894-0.9651 1.0238-1.3271l5.5387-4.6157c0.5089-0.4241 1.1504-0.6564 1.8128-0.6564 0.3719 0 0.7402 0.0732 1.0838 0.2155 0.3435 0.1423 0.6557 0.3509 0.9187 0.6139 0.263 0.2629 0.4716 0.5751 0.6139 0.9187s0.2156 0.7118 0.2156 1.0837v5.0574c0 0.7598-0.1497 1.5121-0.4404 2.2141-0.2908 0.7019-0.717 1.3397-1.2542 1.877l-2.1626 2.1626v5.5285c1e-4 0.6567-0.1828 1.3003-0.528 1.8589s-0.8391 1.01-1.4264 1.3037l-3.1884 1.5946h-2.5715v-12.857z" fill="#E08122"/>
<path d="m12.857 25.714v-3.3362c-1e-4 -0.5655-0.1244-1.124-0.3642-1.636-0.2399-0.5121-0.5894-0.9651-1.0238-1.3271l-5.5388-4.6157c-0.50887-0.4241-1.1503-0.6563-1.8127-0.6564-0.37189 0-0.74014 0.0732-1.0837 0.2155-0.34358 0.1423-0.65577 0.3509-0.91875 0.6139-0.26297 0.2629-0.47157 0.5751-0.61389 0.9187s-0.21557 0.7118-0.21557 1.0837v5.0574c-1e-5 0.7598 0.14964 1.5121 0.44039 2.2141 0.29076 0.7019 0.71693 1.3397 1.2542 1.877l2.1626 2.1626v5.5285c-3e-5 0.6567 0.18281 1.3003 0.52801 1.8589s0.83913 1.01 1.4264 1.3037l3.1884 1.5946h2.5715v-12.857z" fill="#E08122"/>
<path d="m32.142 31.286c-0.2387-2e-4 -0.4726-0.0668-0.6756-0.1924s-0.367-0.3053-0.4736-0.5188c-0.1067-0.2135-0.1518-0.4525-0.1303-0.6903 0.0214-0.2377 0.1087-0.4647 0.2519-0.6557l4.8857-6.5144v-2.1428c0-0.341 0.1355-0.668 0.3766-0.9091s0.5681-0.3766 0.9091-0.3766 0.668 0.1355 0.9092 0.3766c0.2411 0.2411 0.3765 0.5681 0.3765 0.9091v2.5714c0 0.2782-0.0902 0.5489-0.2571 0.7715l-5.1429 6.857c-0.1197 0.16-0.2751 0.2898-0.4538 0.3791-0.1788 0.0893-0.3759 0.1357-0.5757 0.1354z" fill="#BF6E1D"/>
<path d="m11.572 31.286c-0.1998 3e-4 -0.3969-0.0461-0.5756-0.1354-0.1787-0.0892-0.3342-0.219-0.4539-0.3789l-5.1429-6.8572c-0.16692-0.2226-0.25715-0.4933-0.25715-0.7715v-2.5714c0-0.341 0.13546-0.668 0.37658-0.9091s0.56814-0.3766 0.90914-0.3766c0.34099 0 0.66802 0.1355 0.90913 0.3766 0.24112 0.2411 0.37658 0.5681 0.37658 0.9091v2.1428l4.8857 6.5144c0.1432 0.191 0.2305 0.418 0.2519 0.6557 0.0215 0.2378-0.0236 0.4768-0.1303 0.6903-0.1066 0.2135-0.2706 0.3932-0.4736 0.5188s-0.4369 0.1922-0.6756 0.1924z" fill="#BF6E1D"/>
<path d="m33.377 69.789-1.2342 0.9257 0.6814 0.2266 1.4175 0.4725c0.5118 0.171 0.957 0.4985 1.2725 0.9363s0.4854 0.9637 0.4857 1.5034v2.0041h-28.286v-2.2677c-4e-5 -0.4775 0.13284-0.9455 0.38376-1.3517 0.25093-0.4062 0.60998-0.7345 1.037-0.9481l1.1507-0.5754-2.3512-2.3512c-0.96403-0.9643-1.5057-2.2719-1.5059-3.6354v-4.5193c1e-5 -0.3379 0.06659-0.6724 0.19592-0.9846 0.12933-0.3121 0.31888-0.5958 0.55783-0.8347l3.1034-3.1034 2.5715-6.4285h18l2.5715 6.4285 3.1034 3.1034c0.2389 0.2389 0.4285 0.5226 0.5578 0.8347 0.1293 0.3122 0.1959 0.6467 0.1959 0.9846v4.0773c1e-4 0.7985-0.1857 1.5859-0.5428 2.3001-0.3571 0.7141-0.8755 1.3353-1.5143 1.8142l-1.8515 1.3886z" fill="#FD9226"/>
<path d="m30.857 48.857h-18l-2.5715-6.4285v-12.146c1e-4 -1.2788 0.508-2.5051 1.4122-3.4093l0.0229-0.0228c0.7376-0.7376 1.6946-1.2161 2.7273-1.3637l0.1359-0.0194c4.8243-0.6891 9.722-0.6891 14.546 0l0.1359 0.0194c1.0327 0.1476 1.9897 0.6261 2.7274 1.3637l0.0228 0.0228c0.9042 0.9042 1.4122 2.1305 1.4122 3.4093v12.146l-2.5714 6.4285z" fill="#FD9226"/>
<path d="m26.67 52.714c-0.6894 0-1.368-0.1701-1.9758-0.4953s-1.1259-0.7955-1.5084-1.369l-1.3284-1.9928-1.3283 1.9928c-0.3825 0.5735-0.9006 1.0438-1.5084 1.369-0.6077 0.3252-1.2864 0.4953-1.9758 0.4953-0.5499 0-1.0944-0.1083-1.6025-0.3187-0.508-0.2104-0.9696-0.5189-1.3585-0.9077s-0.6973-0.8505-0.9078-1.3585c-0.2104-0.5081-0.3187-1.0526-0.3187-1.6025v-1.9109c0-1.1106 0.4411-2.1757 1.2264-2.9609 0.7853-0.7853 1.8504-1.2265 2.961-1.2265h9.6252c1.1105 0 2.1756 0.4412 2.9609 1.2265 0.7853 0.7852 1.2265 1.8503 1.2265 2.9609v1.9109c0 1.1106-0.4412 2.1756-1.2265 2.9609s-1.8504 1.2265-2.9609 1.2265z" fill="#985713"/>
<path d="m14.143 72v3.8572h-2.5715v-3.5534l-1.1507-2.2998c-0.0886-0.1789-0.1348-0.3758-0.135-0.5754v-6.4286c0-0.3409 0.1355-0.668 0.3766-0.9091s0.5682-0.3766 0.9091-0.3766c0.341 0 0.6681 0.1355 0.9092 0.3766s0.3766 0.5682 0.3766 0.9091v6.1249l1.1507 2.2998c0.0886 0.1789 0.1348 0.3757 0.135 0.5753z" fill="#E08122"/>
<path d="m20.571 63v6.4286c-2e-4 0.1996-0.0464 0.3965-0.135 0.5754l-1.1507 2.2998v3.5534h-2.5714v-3.8572c2e-4 -0.1996 0.0463-0.3964 0.135-0.5753l1.1507-2.2998v-6.1249c0-0.3409 0.1354-0.668 0.3766-0.9091 0.2411-0.2411 0.5681-0.3766 0.9091-0.3766s0.668 0.1355 0.9091 0.3766 0.3766 0.5682 0.3766 0.9091z" fill="#E08122"/>
<path d="m33.429 63v6.4286c-5e-4 0.1996-0.0467 0.3964-0.135 0.5754l-0.4693 0.9369-0.6815 1.3629v3.5534h-2.5714v-3.8572c2e-4 -0.1996 0.0464-0.3964 0.135-0.5753l1.1507-2.2998v-6.1249c0-0.3409 0.1355-0.668 0.3766-0.9091s0.5681-0.3766 0.9091-0.3766 0.6681 0.1355 0.9092 0.3766 0.3766 0.5682 0.3766 0.9091z" fill="#E08122"/>
<path d="m27 72v3.8572h-2.5714v-3.5534l-1.1507-2.2998c-0.0887-0.1789-0.1349-0.3758-0.135-0.5754v-6.4286c0-0.3409 0.1354-0.668 0.3765-0.9091s0.5682-0.3766 0.9092-0.3766 0.668 0.1355 0.9091 0.3766 0.3766 0.5682 0.3766 0.9091v6.1249l1.1507 2.2998c0.0886 0.1789 0.1348 0.3757 0.135 0.5753z" fill="#E08122"/>
<path d="m21.857 47.571c1.4201 0 2.5714-1.1512 2.5714-2.5714 0-1.4201-1.1513-2.5714-2.5714-2.5714-1.4202 0-2.5715 1.1513-2.5715 2.5714 0 1.4202 1.1513 2.5714 2.5715 2.5714z" fill="#70400E"/>
<path d="m16.714 37.768c0.9764 0 1.7679-0.7915 1.7679-1.7679 0-0.9763-0.7915-1.7678-1.7679-1.7678s-1.7679 0.7915-1.7679 1.7678c0 0.9764 0.7915 1.7679 1.7679 1.7679z" fill="#985713"/>
<path d="m27.482 37.768c0.9763 0 1.7678-0.7915 1.7678-1.7679 0-0.9763-0.7915-1.7678-1.7678-1.7678-0.9764 0-1.7679 0.7915-1.7679 1.7678 0 0.9764 0.7915 1.7679 1.7679 1.7679z" fill="#985713"/>
<path d="m52.714 47.571v24.428c0 1.364-0.5419 2.6721-1.5063 3.6366-0.9645 0.9644-2.2726 1.5063-3.6366 1.5063-1.3639 0-2.672-0.5419-3.6365-1.5063-0.9645-0.9645-1.5063-2.2726-1.5063-3.6366v-5.4643c0-0.2557-0.1016-0.501-0.2825-0.6818-0.1808-0.1809-0.4261-0.2824-0.6818-0.2824h-9.3214c-0.341 0-0.6681-0.1355-0.9092-0.3766s-0.3766-0.5682-0.3766-0.9092 0.1355-0.668 0.3766-0.9091 0.5682-0.3766 0.9092-0.3766h9.3214c0.9374 0.0011 1.8361 0.374 2.4989 1.0368 0.6628 0.6629 1.0357 1.5615 1.0368 2.4989v5.4643c0 0.682 0.2709 1.3361 0.7531 1.8183 0.4823 0.4822 1.1363 0.7531 1.8183 0.7531s1.3361-0.2709 1.8183-0.7531 0.7532-1.1363 0.7532-1.8183v-24.428c0-0.341 0.1354-0.6681 0.3765-0.9092s0.5682-0.3766 0.9092-0.3766 0.668 0.1355 0.9091 0.3766 0.3766 0.5682 0.3766 0.9092z" fill="#DBDBDB"/>
<path d="m51.429 25.714c-0.7235-4e-4 -1.4387-0.1533-2.0991-0.4486s-1.2513-0.7264-1.734-1.2652c-0.1126-0.1258-0.1993-0.2726-0.2552-0.4319s-0.0798-0.3281-0.0705-0.4967c0.0188-0.3405 0.1722-0.6595 0.4263-0.8869 0.254-0.2274 0.5881-0.3446 0.9285-0.3258 0.1686 0.0094 0.3337 0.0518 0.4859 0.125 0.1522 0.0731 0.2885 0.1755 0.4011 0.3013 0.2859 0.3198 0.6472 0.5629 1.0511 0.7073s0.8376 0.1855 1.2614 0.1195 0.8244-0.237 1.1653-0.4974c0.3408-0.2603 0.6112-0.6018 0.7863-0.9934 0.1752-0.3916 0.2496-0.8207 0.2165-1.2484-0.0331-0.4276-0.1726-0.8402-0.4059-1.2002-0.2333-0.3599-0.553-0.6558-0.9298-0.8606-0.3769-0.2049-0.799-0.3122-1.2279-0.3122-0.341 0-0.6681-0.1355-0.9092-0.3766s-0.3766-0.5682-0.3766-0.9091v-11.571c0-0.34099 0.1355-0.66802 0.3766-0.90914 0.2411-0.24111 0.5682-0.37657 0.9092-0.37657s0.668 0.13546 0.9091 0.37657c0.2411 0.24112 0.3766 0.56815 0.3766 0.90914v10.448c1.2126 0.3124 2.2695 1.0565 2.9726 2.0927 0.703 1.0362 1.0039 2.2933 0.8461 3.5355s-0.7633 2.3842-1.7031 3.2117c-0.9397 0.8275-2.1491 1.2838-3.4013 1.2831z" fill="#878787"/>
<path d="m66.857 6.4286h-16.714c-0.682 0-1.3361-0.27092-1.8183-0.75315-0.4822-0.48224-0.7532-1.1363-0.7532-1.8183 0-0.68198 0.271-1.336 0.7532-1.8183s1.1363-0.75315 1.8183-0.75315h16.714v5.1428z" fill="#CBCBCB"/>
<path d="m61.714 6.4286h5.1428v64.286h-5.1428v-64.286z" fill="#985713"/>
<path d="m70.714 75.857h-12.857c1e-4 -1.1865 0.293-2.3547 0.8528-3.4008 0.5599-1.0461 1.3693-1.9378 2.3565-2.596l0.6479-0.4318h5.1428l0.6479 0.4318c0.9872 0.6582 1.7966 1.5499 2.3565 2.596 0.5598 1.0461 0.8528 2.2143 0.8528 3.4008z" fill="#70400E"/>
<path d="M45 51.4286H47.5714V54H45V51.4286Z" fill="#C0F5F9"/>
<path d="M45 56.5714H47.5714V61.7143H45V56.5714Z" fill="#C0F5F9"/>
<path d="m23.143 61.714h10.286v5.1429h-10.286v-5.1429z" fill="#6B9777"/>
<path d="m51.429 30.857c-0.341 0-0.6681-0.1355-0.9092-0.3766s-0.3765-0.5681-0.3765-0.9091v-5.1429c0-0.341 0.1354-0.668 0.3765-0.9091s0.5682-0.3766 0.9092-0.3766 0.668 0.1355 0.9091 0.3766 0.3766 0.5681 0.3766 0.9091v5.1429c0 0.341-0.1355 0.668-0.3766 0.9091s-0.5681 0.3766-0.9091 0.3766z" fill="#CBCBCB"/>
<path d="m52.714 47.571v1.1233c-0.8435 0.2165-1.728 0.2165-2.5714 0v-1.1233c0-0.341 0.1354-0.6681 0.3765-0.9092s0.5682-0.3766 0.9092-0.3766 0.668 0.1355 0.9091 0.3766 0.3766 0.5682 0.3766 0.9092z" fill="#C3C3C3"/>
<path d="m61.714 6.4286h5.1428v2.5714h-5.1428v-2.5714z" fill="#70400E"/>
<path d="M33.4286 63H34.7143V65.5714H33.4286V63Z" fill="#C3C3C3"/>
<path d="m46.286 29.571h10.286v12.857c0 1.364-0.5418 2.6721-1.5063 3.6366s-2.2726 1.5063-3.6365 1.5063c-1.364 0-2.6721-0.5418-3.6366-1.5063s-1.5063-2.2726-1.5063-3.6366v-12.857z" fill="#EBEBEB"/>
<path d="m51.429 47.571c-1.364 0-2.6721-0.5419-3.6366-1.5063-0.9645-0.9645-1.5063-2.2726-1.5063-3.6366v-7.7143h10.286v7.7143c0 1.364-0.5418 2.6721-1.5063 3.6366-0.9645 0.9644-2.2726 1.5063-3.6365 1.5063z" fill="#C0F5F9"/>
<path d="m54 39.857h-1.2857v-1.2857h-2.5714v1.2857h-1.2858v2.5715h1.2858v1.2857h2.5714v-1.2857h1.2857v-2.5715z" fill="#85BC94"/>
<path d="m46.286 34.714h10.286v1.2857h-10.286v-1.2857z" fill="#B8EAEE"/>
<path d="m16.714 37.768c0.9764 0 1.7679-0.7915 1.7679-1.7679 0-0.9763-0.7915-1.7678-1.7679-1.7678s-1.7679 0.7915-1.7679 1.7678c0 0.9764 0.7915 1.7679 1.7679 1.7679z"/>
<path d="m27.482 37.768c0.9763 0 1.7678-0.7915 1.7678-1.7679 0-0.9763-0.7915-1.7678-1.7678-1.7678-0.9764 0-1.7679 0.7915-1.7679 1.7678 0 0.9764 0.7915 1.7679 1.7679 1.7679z"/>
<path d="m3.8572 28.818v4.9962c-0.00286 0.896 0.24528 1.7749 0.71632 2.5372 0.47103 0.7622 1.1461 1.3773 1.9488 1.7755l2.4777 1.239v3.0626c0 0.1635 0.0312 0.3256 0.09193 0.4774l2.3806 5.9511-2.2822 5.7054-2.9171 2.9174c-0.35944 0.3575-0.64442 0.7827-0.83843 1.251-0.19402 0.4684-0.29322 0.9705-0.29188 1.4775v4.5192c-0.00229 0.8444 0.16291 1.6808 0.48603 2.4609 0.32312 0.78 0.79775 1.4883 1.3964 2.0837l1.1125 1.1124c-0.5277 0.3512-0.96006 0.8278-1.2583 1.3871-0.29829 0.5593-0.4532 1.1839-0.45085 1.8177v2.2677c0 0.341 0.13546 0.668 0.37657 0.9091 0.24112 0.2412 0.56815 0.3766 0.90914 0.3766h28.286c0.341 0 0.668-0.1354 0.9091-0.3766 0.2412-0.2411 0.3766-0.5681 0.3766-0.9091v-2.0041c6e-4 -0.7692-0.2291-1.5211-0.6594-2.1586-0.4304-0.6376-1.0418-1.1318-1.7555-1.4189l1.1292-0.847c1.2549-0.9462 2.1215-2.3176 2.4376-3.8571h3.0267c0.2557 3e-4 0.5008 0.1019 0.6816 0.2827 0.1807 0.1808 0.2824 0.4259 0.2827 0.6816v5.4643c0 1.3639 0.5418 2.672 1.5063 3.6365s2.2726 1.5063 3.6365 1.5063c1.364 0 2.6721-0.5418 3.6366-1.5063s1.5063-2.2726 1.5063-3.6365v-23.272c1.4511-0.2982 2.755-1.0877 3.6918-2.2353 0.9368-1.1477 1.4493-2.5832 1.451-4.0646v-12.857c0-0.341-0.1354-0.668-0.3765-0.9091s-0.5682-0.3766-0.9092-0.3766h-3.8571v-2.7342c1.1045-0.2847 2.083-0.9284 2.7816-1.8299 0.6987-0.9015 1.0778-2.0097 1.0778-3.1503 0-1.1405-0.3791-2.2487-1.0778-3.1502-0.6986-0.9016-1.6771-1.5453-2.7816-1.8299v-7.8769h7.7143v61.026l-0.0752 0.0502c-1.1645 0.7744-2.1191 1.825-2.779 3.0579-0.6599 1.233-1.0045 2.6101-1.003 4.0085 0 0.341 0.1355 0.668 0.3766 0.9091 0.2411 0.2412 0.5682 0.3766 0.9091 0.3766h12.857c0.341 0 0.668-0.1354 0.9091-0.3766 0.2411-0.2411 0.3766-0.5681 0.3766-0.9091 0.0015-1.3985-0.3431-2.7755-1.003-4.0085-0.6598-1.233-1.6145-2.2836-2.7789-3.0581l-0.0752-0.0501v-67.455c0-0.34099-0.1355-0.66802-0.3766-0.90913s-0.5682-0.37658-0.9092-0.37658h-16.714c-1.023 0-2.0041 0.40638-2.7274 1.1297-0.7234 0.72335-1.1298 1.7044-1.1298 2.7274s0.4064 2.0041 1.1298 2.7274c0.7233 0.72336 1.7044 1.1297 2.7274 1.1297v9c0 0.341 0.1354 0.668 0.3765 0.9091 0.2412 0.2411 0.5682 0.3766 0.9092 0.3766 0.4289 0 0.851 0.1073 1.2279 0.3122 0.3769 0.2048 0.6965 0.5007 0.9298 0.8607 0.2333 0.3599 0.3728 0.7725 0.4059 1.2002 0.0331 0.4276-0.0413 0.8568-0.2165 1.2483-0.1751 0.3916-0.4454 0.7331-0.7863 0.9935s-0.7415 0.4313-1.1653 0.4973-0.8574 0.025-1.2613-0.1195c-0.4039-0.1444-0.7653-0.3875-1.0512-0.7073-0.1126-0.1258-0.2489-0.2282-0.4011-0.3013s-0.3173-0.1156-0.4859-0.1249c-0.1685-0.0094-0.3373 0.0146-0.4966 0.0705-0.1594 0.0559-0.3061 0.1426-0.4319 0.2552s-0.2282 0.2489-0.3014 0.4011c-0.0731 0.1522-0.1156 0.3173-0.1249 0.4858-0.0093 0.1686 0.0146 0.3374 0.0705 0.4967 0.0559 0.1594 0.1426 0.3061 0.2552 0.4319 0.6779 0.7561 1.5641 1.295 2.5474 1.549v2.7363h-3.8572c-0.341 0-0.668 0.1355-0.9091 0.3766s-0.3766 0.5681-0.3766 0.9091v12.857c0.0017 1.4814 0.5142 2.9169 1.451 4.0646 0.9369 1.1476 2.2408 1.9371 3.6919 2.2353v23.272c0 0.682-0.271 1.336-0.7532 1.8182-0.4822 0.4823-1.1363 0.7532-1.8183 0.7532-0.6819 0-1.336-0.2709-1.8182-0.7532-0.4823-0.4822-0.7532-1.1362-0.7532-1.8182v-5.4643c-0.0011-0.9374-0.3739-1.8361-1.0368-2.499-0.6628-0.6628-1.5615-1.0357-2.4989-1.0367h-2.8929v-2.7916c0.0014-0.507-0.0978-1.0091-0.2918-1.4775-0.194-0.4683-0.479-0.8935-0.8385-1.251l-2.9168-2.9174-2.2821-5.7054 2.3805-5.9511c0.0606-0.1519 0.0917-0.3139 0.0916-0.4774v-3.0626l2.4784-1.2393c0.8025-0.3983 1.4775-1.0133 1.9484-1.7755s0.719-1.641 0.7161-2.5369v-4.9962l1.7866-1.786c0.6586-0.655 1.1807-1.4342 1.5361-2.2925 0.3555-0.8582 0.5371-1.7784 0.5344-2.7073v-5.0577c1e-4 -0.5407-0.1064-1.0762-0.3133-1.5757-0.2069-0.4996-0.5102-0.9536-0.8926-1.3359-0.3823-0.3824-0.8362-0.6857-1.3358-0.8926s-1.0351-0.3133-1.5758-0.3133c-0.9628 0.0015-1.895 0.3388-2.6357 0.9539l-5.5377 4.6149c-0.5805 0.4819-1.0474 1.0859-1.3675 1.7691-0.3201 0.6831-0.4856 1.4284-0.4845 2.1828v1.8579c-0.0371-0.0059-0.074-0.013-0.1112-0.0182l-0.1493-0.0228c-4.9484-0.7056-9.972-0.7049-14.92 0.0019l-0.1213 0.0185c-0.0425 0.0061-0.0844 0.0139-0.1265 0.0208v-1.8581c0.0011-0.7542-0.1643-1.4994-0.4843-2.1824s-0.7868-1.287-1.367-1.7689l-5.5403-4.6175c-0.74047-0.614-1.6719-0.9506-2.6338-0.9519-0.54074 0-1.0762 0.1064-1.5758 0.3133-0.49958 0.2069-0.95352 0.5102-1.3359 0.8926-0.38235 0.3823-0.68564 0.8363-0.89254 1.3359-0.2069 0.4995-0.31336 1.035-0.3133 1.5757v5.0577c-0.0026764 0.9289 0.17894 1.8491 0.53435 2.7073 0.3554 0.8583 0.87752 1.6375 1.5361 2.2925l1.7867 1.786zm62.935 42.112c1.2714 0.8456 2.166 2.1506 2.4964 3.6413h-10.005c0.3303-1.4907 1.225-2.7956 2.4964-3.6411l0.3238-0.2161h4.3644l0.3238 0.2159zm-3.7917-2.7873v-60.429h2.5714v60.429h-2.5714zm-12.857-63c-0.341 0-0.6681-0.13545-0.9092-0.37657s-0.3766-0.56815-0.3766-0.90914 0.1355-0.66802 0.3766-0.90914c0.2411-0.24111 0.5682-0.37657 0.9092-0.37657h15.428v2.5714h-15.428zm-2.5715 25.714h7.7143v2.5715h-7.7143v-2.5715zm0 11.572v-6.4286h7.7143v6.4286c0 1.0229-0.4064 2.004-1.1297 2.7274-0.7234 0.7233-1.7044 1.1297-2.7274 1.1297s-2.0041-0.4064-2.7274-1.1297c-0.7234-0.7234-1.1298-1.7045-1.1298-2.7274zm-36 32.143h-2.5715v-0.982c-9e-4 -0.2388 0.06513-0.4731 0.19059-0.6764 0.12547-0.2032 0.30536-0.3673 0.51929-0.4735l1.1509-0.5753c0.1339-0.0672 0.2551-0.1572 0.358-0.266l0.3527 0.7054v2.2678zm19.286-5.4465-1.15 2.3c-0.0893 0.1786-0.1358 0.3754-0.1358 0.5751v2.5714h-2.5714v-2.5714c0-0.1997-0.0465-0.3965-0.1358-0.5751l-1.1499-2.3v-0.9821h5.1429v0.9821zm0-3.5535h-5.1429v-2.5714h5.1429v2.5714zm3.8571 9h-2.5714v-2.2678l0.1003-0.2008 1.591 0.5304c0.2562 0.0852 0.4791 0.2488 0.6371 0.4678 0.1579 0.2189 0.243 0.482 0.243 0.752v0.7184zm-0.2571-7.2-1.0286 0.7714v-2.5714h2.3482c-0.2534 0.7167-0.7124 1.3428-1.3196 1.8zm-1.9378-11.176 3.1034 3.1033c0.12 0.1192 0.2151 0.2611 0.2798 0.4173 0.0648 0.1562 0.0979 0.3238 0.0974 0.4929v2.7916h-2.5714v-1.2857c0-0.341-0.1355-0.6681-0.3766-0.9092s-0.5681-0.3766-0.9091-0.3766h-7.7143c-0.341 0-0.668 0.1355-0.9091 0.3766-0.2412 0.2411-0.3766 0.5682-0.3766 0.9092v7.7142c0 0.1997 0.0465 0.3966 0.1358 0.5751l1.1499 2.3v2.2678h-5.1429v-2.2678l1.1499-2.3c0.0894-0.1785 0.1359-0.3754 0.1358-0.5751v-6.4285c0-0.341-0.1354-0.668-0.3765-0.9092-0.2411-0.2411-0.5682-0.3765-0.9092-0.3765s-0.668 0.1354-0.9091 0.3765c-0.2411 0.2412-0.3766 0.5682-0.3766 0.9092v6.1249l-1.1499 2.3c-0.0893 0.1786-0.1358 0.3754-0.1358 0.5751v2.5714h-2.5714v-2.5714c0-0.1997-0.0465-0.3965-0.1358-0.5751l-1.1499-2.3v-6.1249c0-0.341-0.1355-0.668-0.3766-0.9092-0.2411-0.2411-0.5682-0.3765-0.9091-0.3765-0.341 0-0.6681 0.1354-0.9092 0.3765-0.2411 0.2412-0.3766 0.5682-0.3766 0.9092v5.8961l-1.442-1.4423c-0.72061-0.7246-1.1264-1.7042-1.1293-2.7262v-4.5192c-4.6e-4 -0.1691 0.03264-0.3367 0.09739-0.4929s0.15985-0.2981 0.27981-0.4173l3.1034-3.1033c0.1231-0.1232 0.2199-0.2701 0.2846-0.4317l1.4524-3.631c0.5531 0.6322 1.2444 1.1285 2.0203 1.4504s1.6155 0.4606 2.4537 0.4056c0.8382-0.0551 1.6524-0.3025 2.3795-0.7232 0.7272-0.4206 1.3476-1.0031 1.8132-1.7023l0.2586-0.3878 0.2584 0.3878c0.4656 0.6992 1.086 1.2817 1.8132 1.7023 0.7271 0.4207 1.5413 0.6681 2.3796 0.7232 0.8382 0.055 1.6778-0.0837 2.4537-0.4056s1.4672-0.8182 2.0203-1.4504l1.4524 3.631c0.0647 0.1616 0.1615 0.3085 0.2846 0.4317zm-12.038-7.5922-1.0226 1.5337c-0.3454 0.5184-0.8484 0.9118-1.4347 1.1222s-1.2247 0.2265-1.8209 0.046-1.1184-0.5481-1.4896-1.0483c-0.3711-0.5003-0.5714-1.1067-0.5712-1.7296v-1.9106c9e-4 -0.7693 0.3069-1.5069 0.8509-2.0509s1.2816-0.85 2.0509-0.8509h1.1765c-0.336 0.9486-0.2877 1.991 0.1347 2.9045 0.4224 0.9134 1.1853 1.6255 2.1257 1.9839h3e-4zm0.0895-3.6027c0-0.2543 0.0755-0.5029 0.2167-0.7143 0.1413-0.2115 0.3421-0.3762 0.577-0.4736 0.235-0.0973 0.4935-0.1227 0.7429-0.0731s0.4785 0.172 0.6583 0.3518c0.1798 0.1799 0.3023 0.4089 0.3519 0.6583 0.0496 0.2495 0.0241 0.508-0.0732 0.7429s-0.2621 0.4357-0.4735 0.577c-0.2115 0.1413-0.46 0.2167-0.7143 0.2167-0.3409-4e-4 -0.6677-0.136-0.9088-0.377-0.241-0.241-0.3766-0.5678-0.377-0.9087zm4.9218-1.2857h1.1764c0.7693 9e-4 1.5069 0.3069 2.0509 0.8509s0.8501 1.2816 0.8509 2.0509v1.9106c0 0.6228-0.2004 1.229-0.5715 1.7292-0.3711 0.5001-0.8933 0.8676-1.4894 1.0481-0.596 0.1804-1.2343 0.1644-1.8206-0.0459-0.5862-0.2102-1.0892-0.6035-1.4347-1.1217l-1.0225-1.5337c0.9404-0.3584 1.7033-1.0705 2.1257-1.9839 0.4224-0.9135 0.4707-1.9559 0.1348-2.9045zm6.6497-21.336c-7e-4 -0.3773 0.082-0.7501 0.242-1.0918 0.1601-0.3418 0.3937-0.6439 0.684-0.8849l5.536-4.6138c0.2788-0.2313 0.6296-0.3582 0.9919-0.3587 0.203-1e-4 0.4041 0.0399 0.5917 0.1176 0.1876 0.0776 0.3581 0.1915 0.5016 0.3351 0.1436 0.1436 0.2575 0.314 0.3352 0.5016 0.0776 0.1876 0.1176 0.3887 0.1176 0.5917v5.0577c0.0016 0.591-0.1141 1.1765-0.3403 1.7225-0.2262 0.5461-0.5585 1.0418-0.9776 1.4585l-2.1632 2.1632c-0.2409 0.2412-0.3762 0.5683-0.3761 0.9092v5.5286c0.0014 0.4181-0.1144 0.8283-0.3342 1.1841s-0.5348 0.6429-0.9094 0.8288l-1.3278 0.6639v-6.2077c-3e-4 -0.459-0.0518-0.9165-0.1538-1.364l3.7538-5.0051c0.1669-0.2226 0.2571-0.4933 0.2571-0.7715v-2.5714c0-0.341-0.1354-0.668-0.3765-0.9091-0.2412-0.2411-0.5682-0.3766-0.9092-0.3766s-0.668 0.1355-0.9091 0.3766-0.3766 0.5681-0.3766 0.9091v2.1428l-2.7246 3.6322c-0.1112-0.1315-0.2272-0.2599-0.3503-0.3832l-0.0225-0.0225c-0.2354-0.2338-0.4895-0.4481-0.7597-0.6407v-2.9222zm-19.535 5.4044 0.0225-0.0225c0.5441-0.5435 1.2506-0.8949 2.0123-1.0011l0.1239-0.019c4.6991-0.6707 9.4697-0.6714 14.169-0.0019l0.1519 0.0231c0.756 0.1088 1.4566 0.4592 1.997 0.9989l0.0225 0.0225c0.3296 0.3277 0.5908 0.7175 0.7686 1.1468 0.1779 0.4293 0.2688 0.8897 0.2676 1.3544v11.898l-0.7028 1.7569c-0.4757-0.8472-1.1683-1.5526-2.0066-2.0438-0.8384-0.4911-1.7923-0.7504-2.7639-0.7512h-9.6249c-0.9716 8e-4 -1.9255 0.2601-2.7639 0.7512-0.8383 0.4912-1.5309 1.1966-2.0065 2.0438l-0.7028-1.7569v-11.898c-0.0013-0.4647 0.0896-0.9251 0.2675-1.3544 0.1778-0.4293 0.4391-0.8191 0.7686-1.1468zm-10.036-10.808c-5e-5 -0.203 0.03992-0.4041 0.1176-0.5917s0.19156-0.358 0.33514-0.5016c0.14357-0.1436 0.31402-0.2575 0.50162-0.3351 0.1876-0.0777 0.38866-0.1177 0.59171-0.1176 0.36144 6e-4 0.71139 0.1271 0.98968 0.3577l5.539 4.6162c0.29 0.2409 0.5233 0.5429 0.6833 0.8843 0.1599 0.3415 0.2425 0.714 0.242 1.091v2.9223c-0.2703 0.1927-0.5244 0.4072-0.7597 0.6413l-0.0225 0.0225c-0.1231 0.1232-0.2392 0.2516-0.3504 0.3831l-2.7246-3.6328v-2.1428c0-0.341-0.13546-0.668-0.37658-0.9091-0.24111-0.2411-0.56814-0.3766-0.90913-0.3766s-0.66802 0.1355-0.90914 0.3766-0.37658 0.5681-0.37658 0.9091v2.5714c0 0.2782 0.09023 0.5489 0.25715 0.7715l3.7538 5.0051c-0.10196 0.4475-0.15355 0.905-0.15381 1.364v6.2077l-1.3272-0.6636c-0.37472-0.1859-0.68989-0.473-0.9098-0.8288-0.2199-0.3558-0.33577-0.7661-0.33445-1.1844v-5.5286c0-0.1688-0.03325-0.336-0.09786-0.492s-0.15931-0.2978-0.2787-0.4172l-2.1627-2.1632c-0.4191-0.4167-0.75137-0.9124-0.97758-1.4585-0.22621-0.546-0.34187-1.1315-0.34027-1.7225v-5.0577z"/>
<path d="m52.714 43.714v-1.2857h1.2857v-2.5715h-1.2857v-1.2857h-2.5714v1.2857h-1.2858v2.5715h1.2858v1.2857h2.5714z"/>
<path d="M45 51.4286H47.5714V54H45V51.4286Z"/>
<path d="M45 56.5714H47.5714V61.7143H45V56.5714Z"/>
</svg>
