<?xml version="1.0" encoding="UTF-8"?>
<svg viewBox="0 0 178 87" xmlns="http://www.w3.org/2000/svg">
<path d="m10.95 37.881-10.95-5.0451 11.854-5.4746c0.3361-16.378 16.16-19.928 22.722-19.293 6.5624 0.6363 25.654 12.345 17.961 36.262-2.6212 8.1506-2.0024 29.239 28.586 27.291-2.2975 4.3299-13.082 22.289-48.182 10.864-9.7314-3.1676-23.598-18.848-21.991-44.606z" fill="#FFBD54"/>
<path d="m110.82 32.703c0.96-11.601-5.053-22.116-8.576-24.539-3.2875-2.2596-3.2992 7.4953-6.2265 12.846-4.3459-1.811-9.1609-2.8279-14.235-2.8279-5.0648 0-9.8717 1.0125-14.21 2.8177-2.9221-5.3534-2.9367-15.095-6.2212-12.837-3.5198 2.4122-9.5211 12.921-8.5773 24.499-3.6227 5.0816-5.7369 11.167-5.7369 17.713 0 17.78 15.557 30.967 34.745 30.967 19.189 0 34.745-13.187 34.745-30.967 0-6.5288-2.104-12.599-5.707-17.672z" fill="#78C0DE"/>
<path d="m109.12 52.411c0.898-15.917 6.977-18.117 7.775-27.851 1.106-13.478 10.391-23.279 14.978-24.485 4.587-1.2039-1.264 12.475 2.847 17.117 8.6-2.9813 14.061-0.4427 18.374 4.2232 4.316 4.6674-1.317 9.1244 7.13 7.9293 3.475-0.4931 7.087-0.377 10.11 0.393 0.286-0.1892 0.595-0.3507 0.931-0.4668 2.378-0.8233 5.052 0.6619 5.975 3.3217 0.348 1.0074 0.393 2.0382 0.188 2.9762 0.105 0.5136 0.149 1.0586 0.116 1.6379-0.466 8.182-10.549 19.451-16.813 20.272-6.264 0.8226-12.915-0.2594-13.085 12.274-0.225 16.693-37.176 23.299-46.227 6.352 6.624-4.7916 7.016-11.537 7.701-23.694z"/>
<path d="m136.87 22.14c4.325 0.3821 7.761-1.9154 11.106-4.4913-1.345-0.1658-2.831-0.1761-4.498 0.0139-2.507-4.5308 4.754-14.617 0.794-14.47-3.569 0.12711-12.703 5.0181-16.914 13.883 3.056 2.0536 5.488 5.2825 9.512 5.0648z"/>
<path d="m38.142 34.436c-0.5165-0.1549-1.0491-0.1965-1.5787-0.1206-1.5466 0.2207-2.8535 1.4333-3.2443 2.9996l-3.4693 12.962-6.9182-11.498c-0.8679-1.3836-2.4743-2.1675-3.9997-1.9498-0.5202 0.0745-1.0008 0.2586-1.4297 0.5494-0.9709 0.599-1.64 1.5012-1.8862 2.5444-0.2367 0.9921-0.0585 2.0273 0.4843 2.8922l11.702 19.648c0.084 0.1695 0.2148 0.4149 0.4427 0.6144 0.0796 0.0891 0.1717 0.1621 0.2754 0.2206 0 0.0015 0 0.0015 7e-4 0.0022l0.1038 0.149 0.1439 0.1089c0.0519 0.0394 0.111 0.0811 0.1782 0.1183l0.0278 0.1943 0.4939 0.1651 0.1512 0.1125 1.1199 0.2419 0.3331 0.0628 0.1666-0.0241c0.2849 0.0146 0.496-0.0154 0.618-0.0322 0.1666-0.0234 0.3843-0.0548 0.6538-0.1497l0.2521-0.0358 0.206-0.1418 1.0052-0.6457 0.206-0.2747c0.0599-0.0665 0.1468-0.1622 0.236-0.2996 0.0701-0.0818 0.13-0.1724 0.1746-0.271 0.0299-0.0475 0.0606-0.0964 0.0891-0.1468 0.0058-0.0095 0.0117-0.0183 0.0168-0.0278 0.0979-0.1052 0.1761-0.2272 0.2316-0.3594 0.0993-0.1863 0.1797-0.4076 0.225-0.6188l5.8479-22.135c0.2864-1.0074 0.1673-2.0514-0.3353-2.9382-0.5325-0.9417-1.4392-1.6255-2.5247-1.9162z" fill="#fff"/>
<path d="m81.579 34.281c-9.318 0.1629-16.82 8.1031-16.722 17.719 0.2396 9.6876 7.8475 17.202 17.32 17.106h0.0102c4.986-0.0877 9.0214-1.6613 12.331-4.8106 0.8057-0.7612 1.2455-1.7299 1.2704-2.8002 0.0336-1.3748-0.6276-2.5795-1.269-3.2611-0.6903-0.7911-1.9023-1.2485-3.256-1.2251-1.3595 0.0241-2.6146 0.5333-3.4656 1.4012-1.0922 0.8197-2.9923 1.3668-4.8764 1.4004-0.2659 0.0044-0.5289-0.0022-0.7809-0.0182-1.9674-0.1337-4.2021-1.1192-5.311-2.3436l-0.0899-0.0906c-0.5048-0.4609-0.9533-1.1148-1.3047-1.8891l18.592-0.3244c2.4217-0.0424 4.2889-1.5473 4.5957-3.6812 0.0724-0.2681 0.0855-0.561 0.0797-0.8985l-0.0095-0.4011c-0.7189-9.364-7.9168-16.043-17.114-15.883zm7.64 12.784-14.177 0.2476c0.9701-1.9191 3.1164-3.9668 6.6683-4.2268 3.6403 0.2564 6.2256 2.1448 7.5085 3.9792z" fill="#fff"/>
<path d="m138.07 49.682c2.535 0.2644 4.897-1.6247 5.158-4.1253 0.264-2.546-1.616-4.834-4.194-5.1028l-0.242-0.0256 0.785-7.5289c0.27-2.5876-1.545-4.8259-4.132-5.0962-2.622-0.274-4.887 1.5392-5.157 4.126l-0.787 7.5282-0.485-0.0504c-2.588-0.2696-4.827 1.5451-5.097 4.1334-0.265 2.5437 1.588 4.8295 4.133 5.0962l0.485 0.0504-1.635 15.664c-0.463 4.4182 2.757 8.3894 7.177 8.8511 2.587 0.2703 4.825-1.5436 5.097-4.1326 0.227-2.1726-0.979-4.0991-2.87-4.85l1.52-14.564 0.244 0.0263z" fill="#fff"/>
</svg>
