<?xml version="1.0" encoding="UTF-8"?>
<svg viewBox="0 0 28 27" xmlns="http://www.w3.org/2000/svg">
<path d="m23.577 17.05c-2.1973-3.2129-4.5665-6.7384-10.105-5.2543-2.4688 0.6616-4.1121 1.9347-5.0236 3.8924-0.80741 1.734-0.95252 3.7708-1.1007 5.7107-0.18385 2.378 2.2885 4.0674 4.4468 3.0206 1.7706-0.8592 4.1724-2.1511 8.0257-2.4282 1.485-0.1068 1.6278-0.0988 2.0117-0.2017 2.0059-0.5375 2.9764-2.9433 1.7456-4.7395z" fill="#FBDD7B"/>
<path d="m21.831 21.79c2.0058-0.5375 2.9763-2.9434 1.7455-4.7395-2.1973-3.2129-4.5665-6.7384-10.105-5.2543l2.8876 10.777c2.7744-0.7434 4.5693-0.5408 5.4723-0.7828z" fill="#FECB3E"/>
<path d="m16.566 16.404-1.0848 0.2906-0.2906-1.0847c-0.0963-0.3595-0.4658-0.5728-0.8253-0.4765-0.3594 0.0963-0.5728 0.4658-0.4765 0.8253l0.2907 1.0847-1.0848 0.2907c-0.3594 0.0963-0.5728 0.4658-0.4764 0.8253 0.0963 0.3594 0.4658 0.5728 0.8252 0.4764l1.0848-0.2906 0.2907 1.0848c0.0963 0.3594 0.4658 0.5727 0.8252 0.4764 0.3595-0.0963 0.5728-0.4658 0.4765-0.8252l-0.2907-1.0848 1.0848-0.2907c0.3595-0.0963 0.5728-0.4658 0.4765-0.8253-0.0963-0.3594-0.4658-0.5727-0.8253-0.4764z" fill="#FFF8E0"/>
<path d="m16.121 19.081-0.2907-1.0848 1.0848-0.2907c0.3595-0.0963 0.5728-0.4658 0.4765-0.8253-0.0963-0.3594-0.4658-0.5727-0.8253-0.4764l-1.0848 0.2906-0.2906-1.0847c-0.0963-0.3595-0.4658-0.5728-0.8253-0.4765l1.2789 4.773c0.3595-0.0963 0.5728-0.4658 0.4765-0.8252z" fill="#FFE799"/>
<path d="m21.276 6.2123c-1.3159 0.3526-2.0997 1.7101-1.7471 3.026 0.3527 1.3159 1.7101 2.0996 3.026 1.747 1.316-0.3526 2.1431-1.7217 1.7905-3.0376-0.3526-1.3159-1.7535-2.088-3.0694-1.7354z" fill="#FECB3E"/>
<path d="m16.42 8.9163c1.5118-0.4051 2.3253-2.2714 1.817-4.1685-0.5084-1.8971-2.146-3.1066-3.6579-2.7015-1.5118 0.40509-2.3253 2.2714-1.817 4.1685 0.5084 1.8971 2.146 3.1066 3.6579 2.7015z" fill="#FECB3E"/>
<path d="m9.4777 10.777c1.5118-0.4051 2.3253-2.2714 1.817-4.1685s-2.146-3.1066-3.6578-2.7015c-1.5118 0.40509-2.3253 2.2714-1.817 4.1685s2.146 3.1066 3.6578 2.7015z" fill="#FBDD7B"/>
<path d="m3.92 10.863c-1.3159 0.3526-2.143 1.7217-1.7904 3.0377 0.3526 1.3159 1.7534 2.088 3.0694 1.7354 1.3159-0.3526 2.0996-1.7101 1.747-3.026s-1.7101-2.0997-3.026-1.7471z" fill="#FBDD7B"/>
</svg>
