<?xml version="1.0" encoding="UTF-8"?>
<svg viewBox="0 0 62 77" xmlns="http://www.w3.org/2000/svg">
<path d="m52.445 67.798v-11.513h7.6753v14.071c0 1.3571-0.5391 2.6586-1.4987 3.6182s-2.2611 1.4987-3.6181 1.4987h-2.5585v-7.6753z" fill="#F6BB92"/>
<path d="m56.283 44.773 1.0798-2.5584 0.9578-2.2692c0.5132-1.2201 0.6512-2.5655 0.3965-3.8644s-0.8906-2.4925-1.8265-3.4286c-1.2491-1.2494-1.9508-2.9439-1.9508-4.7107v-6.1946h-28.079v6.1951c1e-4 1.7668-0.7016 3.4613-1.9508 4.7107-0.9359 0.9359-1.5718 2.1294-1.8266 3.4282-0.2548 1.2989-0.117 2.6442 0.396 3.8643l1.0137 2.4115 31.79 2.4161z" fill="#834B10"/>
<path d="m60.121 49.995c0-1.8169-0.6445-3.5749-1.8189-4.9612s-2.8025-2.311-4.5946-2.6097l-1.2618-0.2103-6.6064-1.1011-4.9066 4.9388-4.9582-4.9768-9.1132 1.1391v33.26h25.584v-10.234c1.1571-1.1576 1.8877-2.6733 2.0724-4.2996 0.1848-1.6263-0.1872-3.2672-1.0551-4.6549h6.658v-6.2902z" fill="#85BC94"/>
<path d="m55.004 23.026h-28.143v-7.6753c0-3.7319 1.4825-7.311 4.1214-9.95s6.2181-4.1214 9.95-4.1214c3.732 0 7.3111 1.4825 9.95 4.1214s4.1214 6.218 4.1214 9.95v7.6753z" fill="#834B10"/>
<path d="m51.166 19.188h-1.2793v-7.6753h-17.909v7.6753h-1.2792c-1.0178 0-1.994 0.4043-2.7137 1.124s-1.124 1.6959-1.124 2.7137 0.4043 1.9939 1.124 2.7136 1.6959 1.124 2.7137 1.124h1.2792v1.2792c0 2.3749 0.9434 4.6525 2.6227 6.3318s3.9569 2.6228 6.3318 2.6228 4.6525-0.9435 6.3318-2.6228 2.6227-3.9569 2.6227-6.3318v-1.2792h1.2793c1.0178 0 1.9939-0.4043 2.7136-1.124s1.124-1.6958 1.124-2.7136-0.4043-1.994-1.124-2.7137-1.6958-1.124-2.7136-1.124z" fill="#F6BB92"/>
<path d="m39.653 50.937v24.537h-28.622c0.9542-1.4854 2.065-2.8641 3.3132-4.1127l0.0943-0.0943c2.2873-2.2834 4.1169-4.983 5.3903-7.9535 0.5021-1.1705 1.0026-2.341 1.3672-3.1901 0.331-0.7723 0.5484-1.2792 0.5484-1.2792h-3.6809c-1.1408-1e-3 -2.2487-0.3828-3.1479-1.085-0.8991-0.7021-1.5381-1.6844-1.8155-2.791l-0.63-2.5201-0.1647-0.6588c-0.0943-0.3771-0.1013-0.7708-0.0207-1.1511s0.2469-0.7373 0.4861-1.0437c0.2393-0.3064 0.5452-0.5543 0.8945-0.7248 0.3494-0.1705 0.733-0.2592 1.1218-0.2592h4.3989c0.8248-2.4769 2.5089-4.5767 4.7475-5.9196l0.5597-0.3342c1.4387-0.8628 3.0717-1.349 4.7481-1.4136 1.6764-0.0645 3.342 0.2946 4.8428 1.0442l0.056 0.0288c1.6567 0.8284 3.0499 2.1018 4.0237 3.6774s1.4896 3.3913 1.4897 5.2435z" fill="#BD9070"/>
<path d="m39.653 51.169v3.6297c0 0.8055-0.2534 1.5905-0.7244 2.2439s-1.1356 1.1421-1.8997 1.3968c-0.7877 0.2625-1.6393 0.2625-2.427 0-0.7641-0.2547-1.4287-0.7434-1.8997-1.3968s-0.7244-1.4384-0.7245-2.2439v-6.1882h5.1169l2.5584 2.5585z" fill="#9E785D"/>
<path d="m27.766 57.191-2.5584 2.5584c-0.2402 0.2397-0.5657 0.3743-0.9051 0.3742h-3.1068c0.3309-0.7723 0.5484-1.2792 0.5484-1.2792h-3.6809c-1.2458 0.0012-2.4488-0.4539-3.382-1.2792h9.0921l2.1826-2.1843c0.2401-0.24 0.5656-0.3749 0.9051-0.3749 0.3394 0 0.665 0.1349 0.905 0.3749 0.2401 0.24 0.3749 0.5656 0.3749 0.905 0 0.3395-0.1348 0.6651-0.3749 0.9051z" fill="#9E785D"/>
<path d="m16.627 48.61v1.5461c0 0.6078-0.2414 1.1907-0.6712 1.6204-0.4297 0.4298-1.0126 0.6712-1.6204 0.6712h-1.8659l-0.1647-0.6588c-0.0942-0.3772-0.1013-0.7708-0.0207-1.1512 0.0807-0.3803 0.2469-0.7372 0.4861-1.0436 0.2393-0.3064 0.5452-0.5543 0.8945-0.7248 0.3494-0.1706 0.7331-0.2592 1.1218-0.2593h1.8405z" fill="#9E785D"/>
<path d="m20.595 72.314c-0.2375-2e-4 -0.4702-0.0665-0.6722-0.1915-0.2019-0.1249-0.3651-0.3036-0.4712-0.5161s-0.151-0.4503-0.1297-0.6868c0.0214-0.2365 0.1082-0.4624 0.2507-0.6524 1.5257-2.0331 2.7131-4.2992 3.5163-6.7109 0.0518-0.1609 0.1351-0.3099 0.2449-0.4384s0.244-0.234 0.3949-0.3103c0.1508-0.0764 0.3153-0.1221 0.4839-0.1345 0.1686-0.0123 0.3379 0.0088 0.4983 0.0623 0.1604 0.0534 0.3086 0.1381 0.436 0.2492s0.2316 0.2463 0.3064 0.3979c0.0749 0.1516 0.1189 0.3165 0.1297 0.4852 0.0107 0.1687-0.0121 0.3379-0.0672 0.4977-0.8899 2.6726-2.2057 5.1838-3.8965 7.4369-0.1191 0.1591-0.2737 0.2882-0.4516 0.377-0.1778 0.0889-0.3739 0.135-0.5727 0.1347z" fill="#9E785D"/>
<path d="m30.699 19.188c1.2026-0.4008 2.3034-1.0589 3.2258-1.9285 0.9223-0.8695 1.644-1.9297 2.1149-3.1067l1.0554-2.6401-6.3961-1.2792v8.9545z" fill="#834B10"/>
<path d="m37.095 11.513 0.1499 0.2246c1.5279 2.2919 3.598 4.1712 6.0265 5.4709 2.4286 1.2998 5.1405 1.9798 7.895 1.9798v-8.9545l-14.071 1.2792z" fill="#834B10"/>
<path d="m36.135 23.346c0.8832 0 1.5991-0.7159 1.5991-1.599s-0.7159-1.5991-1.5991-1.5991c-0.8831 0-1.599 0.716-1.599 1.5991s0.7159 1.599 1.599 1.599z" fill="#834B10"/>
<path d="m45.73 23.346c0.8831 0 1.599-0.7159 1.599-1.599s-0.7159-1.5991-1.599-1.5991-1.599 0.716-1.599 1.5991 0.7159 1.599 1.599 1.599z" fill="#834B10"/>
<path d="m40.932 28.143h-2.5584c-0.2181 0-0.4325-0.0557-0.623-0.1619-0.1904-0.1062-0.3506-0.2593-0.4652-0.4448s-0.1799-0.3972-0.1897-0.615c-0.0098-0.2179 0.0362-0.4346 0.1338-0.6296l2.5584-5.1169c0.0743-0.1516 0.1779-0.2869 0.3048-0.3983s0.2746-0.1965 0.4346-0.2505c0.1599-0.054 0.329-0.0758 0.4974-0.0642 0.1685 0.0117 0.3329 0.0566 0.4839 0.1321s0.2856 0.1801 0.3959 0.3079c0.1104 0.1278 0.1944 0.2761 0.2471 0.4365 0.0528 0.1604 0.0733 0.3296 0.0603 0.4979-0.013 0.1684-0.0591 0.3325-0.1358 0.4829l-1.6328 3.2655h0.4887c0.3393 0 0.6647 0.1348 0.9046 0.3747s0.3746 0.5652 0.3746 0.9045-0.1347 0.6647-0.3746 0.9046-0.5653 0.3746-0.9046 0.3746z" fill="#834B10"/>
<path d="m48.608 52.448c-0.3393 0-0.6647-0.1348-0.9046-0.3747s-0.3746-0.5653-0.3746-0.9045v-8.9545c0-0.3393 0.1347-0.6647 0.3746-0.9046s0.5653-0.3747 0.9046-0.3747c0.3392 0 0.6646 0.1348 0.9045 0.3747s0.3747 0.5653 0.3747 0.9046v8.9545c0 0.3392-0.1348 0.6646-0.3747 0.9045s-0.5653 0.3747-0.9045 0.3747z" fill="#C3C3C3"/>
<path d="m48.608 58.844c2.1194 0 3.8376-1.7182 3.8376-3.8376 0-2.1195-1.7182-3.8377-3.8376-3.8377-2.1195 0-3.8377 1.7182-3.8377 3.8377 0 2.1194 1.7182 3.8376 3.8377 3.8376z" fill="#E4E4E2"/>
<path d="m48.608 56.286c0.7065 0 1.2792-0.5727 1.2792-1.2792s-0.5727-1.2792-1.2792-1.2792-1.2792 0.5727-1.2792 1.2792 0.5727 1.2792 1.2792 1.2792z" fill="#C3C3C3"/>
<path d="m53.725 75.474h-19.188c-1.0178 0-1.9939-0.4044-2.7136-1.1241s-1.124-1.6958-1.124-2.7136 0.4043-1.9939 1.124-2.7136 1.6958-1.1241 2.7136-1.1241h1.2792c0-0.6785 0.2696-1.3292 0.7494-1.809s1.1305-0.7494 1.8091-0.7494h0.2195c0.6785 0 1.3292 0.2696 1.809 0.7493l1.8091 1.8091h11.513v7.6754z" fill="#F6BB92"/>
<path d="m11.173 69.535c-0.189 0.4187-0.2855 0.8732-0.2827 1.3325 0.0027 0.4594 0.1046 0.9127 0.2986 1.3291s0.4756 0.786 0.8256 1.0835 0.7601 0.516 1.2022 0.6405l4.924 1.3912c0.9795 0.2768 2.0287 0.1532 2.917-0.3437 0.8883-0.4968 1.5429-1.3261 1.8197-2.3056 0.2767-0.9793 0.153-2.0285-0.3438-2.9167-0.4969-0.8883-1.3261-1.5427-2.3055-1.8196l-1.2312-0.3478c0.0914-0.3233 0.1182-0.6614 0.0789-0.9951s-0.144-0.6564-0.308-0.9496-0.3841-0.5513-0.6479-0.7595c-0.2637-0.2081-0.5658-0.3623-0.8892-0.4537l-0.2112-0.0596c-0.3233-0.0914-0.6615-0.1182-0.9951-0.0789-0.3337 0.0394-0.6564 0.144-0.9496 0.308-1.4502 0.8113-2.6019 2.0663-3.2859 3.5807l-0.6159 1.3643z" fill="#F6BB92"/>
<path d="m4.5097 34.348c0.85163 1e-4 1.6684 0.3384 2.2706 0.9406l1.6179 1.6179 1.6178-1.6179c0.6022-0.6022 1.4189-0.9405 2.2706-0.9406 0.7162 0 1.4118 0.2394 1.9764 0.6802 0.5645 0.4408 0.9654 1.0576 1.1391 1.7524 0.1964 0.7856 0.1451 1.6127-0.1468 2.368-0.292 0.7553-0.8104 1.4018-1.4842 1.851l-5.3727 3.5818-5.3727-3.5818c-0.67379-0.4491-1.1922-1.0957-1.4842-1.851-0.29198-0.7553-0.34327-1.5824-0.14682-2.368 0.17366-0.6947 0.57455-1.3115 1.139-1.7523 0.56442-0.4407 1.26-0.6802 1.9761-0.6803z" fill="#DC4D41"/>
<path d="m30.699 19.188h1.2792v7.6753h-1.2792v-7.6753z" fill="#EEB58E"/>
<path d="m49.887 19.188h1.2792v7.6753h-1.2792v-7.6753z" fill="#EEB58E"/>
<path d="m35.974 41.075 4.9582 4.9768 4.9066-4.9388c-0.2987-0.0498-0.57-0.2039-0.7657-0.4349-0.1958-0.2311-0.3032-0.5241-0.3032-0.8269v-4.0332h-7.6753v3.9877c0 0.3117-0.1139 0.6128-0.3203 0.8465-0.2063 0.2338-0.4909 0.3841-0.8003 0.4228z" fill="#F6BB92"/>
<path d="m40.932 37.097c-2.3749 0-4.6525-0.9434-6.3318-2.6227s-2.6228-3.9569-2.6228-6.3318v-1.2792h17.909v1.2792c0 2.3749-0.9434 4.6525-2.6227 6.3318s-3.9569 2.6227-6.3318 2.6227z" fill="#85BC94"/>
<path d="m25.582 51.169c0.7065 0 1.2792-0.5728 1.2792-1.2793 0-0.7064-0.5727-1.2792-1.2792-1.2792s-1.2792 0.5728-1.2792 1.2792c0 0.7065 0.5727 1.2793 1.2792 1.2793z" fill="#9E785D"/>
<path d="m36.135 23.346c0.8832 0 1.5991-0.7159 1.5991-1.599s-0.7159-1.5991-1.5991-1.5991c-0.8831 0-1.599 0.716-1.599 1.5991s0.7159 1.599 1.599 1.599z"/>
<path d="m45.73 23.346c0.8831 0 1.599-0.7159 1.599-1.599s-0.7159-1.5991-1.599-1.5991-1.599 0.716-1.599 1.5991 0.7159 1.599 1.599 1.599z"/>
<path d="m48.608 56.286c0.7065 0 1.2792-0.5727 1.2792-1.2792s-0.5727-1.2792-1.2792-1.2792-1.2792 0.5727-1.2792 1.2792 0.5727 1.2792 1.2792 1.2792z"/>
<path d="m58.319 43.238 1.1807-2.7964c0.6155-1.454 0.782-3.0588 0.4781-4.6082-0.3039-1.5493-1.0644-2.9724-2.1836-4.086-0.5001-0.4996-0.8967-1.0929-1.1673-1.7459-0.2705-0.653-0.4096-1.3529-0.4094-2.0598l0.0656-12.591c0-4.0712-1.6173-7.9757-4.4961-10.855s-6.7833-4.4961-10.854-4.4961c-4.0713 0-7.9757 1.6173-10.854 4.4961s-4.4961 6.7833-4.4961 10.855v12.591c-0.0042 1.4265-0.5705 2.7939-1.5762 3.8057-1.1162 1.1154-1.8747 2.5382-2.1785 4.0867-0.3038 1.5484-0.1393 3.1523 0.4727 4.6068l0.5875 1.3973c-2.0438 1.3312-3.6413 3.2447-4.5864 5.4933h-3.5141c-0.5832-0.0019-1.1591 0.1301-1.6833 0.3858s-0.9827 0.6282-1.3403 1.0889c-0.0912 0.1165-0.1756 0.238-0.2528 0.3641-0.3804 0.6189-0.5756 1.3337-0.5624 2.06 0.0055 0.2935 0.0442 0.5855 0.1154 0.8702l0.1647 0.6588 0.6299 2.5191c0.3442 1.3847 1.1422 2.6141 2.2667 3.4923 1.1245 0.8781 2.5107 1.3544 3.9375 1.3528h1.7409l-1.1513 2.6873c-0.0984 0.2301-0.2026 0.4595-0.3093 0.6884-0.2428-0.13-0.4988-0.2337-0.7637-0.3093l-0.2115-0.0598c-0.4848-0.1384-0.9922-0.1793-1.4929-0.1203-0.5007 0.0591-0.9847 0.2168-1.4241 0.4641-1.6864 0.9482-3.027 2.4091-3.8271 4.1707l-0.6161 1.3645c-0.34753 0.7693-0.47012 1.6213-0.35353 2.4574 0.11659 0.8362 0.46763 1.6221 1.0123 2.267-0.2463 0.3453-0.4836 0.6949-0.71169 1.0487-0.12433 0.1933-0.1943 0.4165-0.20255 0.6461-0.00824 0.2297 0.04553 0.4573 0.15567 0.659 0.11017 0.2017 0.27257 0.37 0.47027 0.4873 0.1977 0.1172 0.4233 0.179 0.6531 0.1789h43.973c1.6957-0.0019 3.3215-0.6764 4.5206-1.8755s1.8736-2.8249 1.8755-4.5206v-20.362c1e-4 -1.2813-0.2748-2.5476-0.8064-3.7134-0.5315-1.1659-1.3072-2.2039-2.2746-3.044zm0.5225 6.7574v5.0114h-4.7093c-0.1386-0.1838-0.2823-0.3638-0.4358-0.5364-0.1109-1.0363-0.5348-2.0142-1.2153-2.8036-0.6806-0.7893-1.5854-1.3527-2.5941-1.6149v-6.967l2.348 0.3915h0.0013l1.2607 0.2109c1.4937 0.2479 2.8509 1.0182 3.8297 2.1734 0.9788 1.1553 1.5156 2.6206 1.5148 4.1347zm-7.3847 14.433c-0.0056 0.0069-0.0106 0.0144-0.016 0.0215-0.0203 0.0259-0.0403 0.0518-0.0587 0.0799-0.0045 0.0069-0.0082 0.0141-0.0126 0.021-0.0183 0.0283-0.0359 0.0569-0.0519 0.0866-0.0027 5e-3 -0.0048 0.0104-0.0075 0.016-0.016 0.032-0.032 0.064-0.0462 0.0977-0.0014 0.0034-0.0024 7e-3 -0.0038 0.0104-0.0142 0.035-0.0272 0.0707-0.0384 0.1071-0.0011 0.0039-0.0018 0.0079-0.0029 0.0116-0.0105 0.0359-0.0201 0.0722-0.0275 0.1095-0.0021 0.0101-0.0029 0.0206-0.0048 0.0307-0.0052 0.0309-0.0107 0.0617-0.0139 0.0932-0.0041 0.0422-0.0064 0.0849-0.0064 0.1279v1.2793h-8.4246l-1.4338-1.4339c-0.118-0.1168-0.2433-0.2259-0.3753-0.3265v-13.824c2e-4 -1.2912-0.2215-2.5728-0.6556-3.7888 0.2707 0.1632 0.5925 0.22 0.9028 0.1593 0.3103-0.0608 0.5869-0.2347 0.7762-0.4879l3.384-4.512c0.0945 0.0278 0.1906 0.0501 0.2878 0.0668l1.7009 0.2835v7.3938c-0.8019 0.2066-1.5417 0.6048-2.1558 1.1603s-1.0843 1.2518-1.37 2.029c-0.2858 0.7772-0.3786 1.6122-0.2706 2.4332 0.1081 0.821 0.4137 1.6036 0.8908 2.2804 0.4771 0.6769 1.1113 1.2278 1.8483 1.6056 0.7369 0.3777 1.5545 0.571 2.3825 0.5631 0.8281-0.0078 1.6419-0.2165 2.3715-0.6082 0.7296-0.3916 1.3533-0.9545 1.8175-1.6402 0.4433 1.0853 0.5563 2.2773 0.3247 3.4265-0.2315 1.1493-0.7972 2.2046-1.6261 3.0335-0.0298 0.0301-0.0579 0.0613-0.0846 0.0937zm-20.761-43.961h0.0025v5.1169c-0.3359 1e-4 -0.6687-0.0659-0.9791-0.1943-0.3105-0.1284-0.5926-0.3167-0.8303-0.5542-0.4801-0.4796-0.7499-1.1302-0.7503-1.8087-3e-4 -0.6785 0.2689-1.3294 0.7485-1.8095 0.4795-0.48 1.1301-0.7499 1.8087-0.7502zm23.028 2.5584c-8e-4 0.6783-0.2707 1.3286-0.7503 1.8082s-1.1299 0.7494-1.8082 0.7503v-5.1169c0.6783 8e-4 1.3286 0.2706 1.8082 0.7502s0.7495 1.1299 0.7503 1.8082zm-5.1169 2.5585h-8.164l1.6328-3.2656c0.0767-0.1504 0.1228-0.3145 0.1358-0.4828 0.0129-0.1683-0.0075-0.3376-0.0603-0.4979-0.0528-0.1604-0.1367-0.3088-0.2471-0.4365-0.1104-0.1278-0.2449-0.2324-0.3959-0.308-0.151-0.0755-0.3155-0.1203-0.4839-0.132-0.1684-0.0116-0.3375 0.0102-0.4974 0.0642-0.16 0.054-0.3077 0.1391-0.4346 0.2505-0.1269 0.1113-0.2305 0.2467-0.3048 0.3983l-2.2049 4.4098h-4.3263v-6.2017c1.7934-1.1247 3.1835-2.7896 3.97-4.755l0.2055-0.5138c2.8371 3.364 6.8168 5.5614 11.175 6.1703v5.3002zm-10.24 2.5584h10.24c0 2.0356-0.8087 3.9878-2.2481 5.4272s-3.3916 2.2481-5.4272 2.2481-3.9879-0.8087-5.4273-2.2481-2.248-3.3916-2.248-5.4272h5.1103zm2.565 10.234c0.863 5e-4 1.7227-0.1083 2.5584-0.3238v1.7981c7e-4 0.1919 0.0227 0.3831 0.0657 0.5701l-2.6241 3.499-2.6331-3.5109c0.0488-0.1973 0.0739-0.3997 0.0746-0.6029v-1.7534c0.8358 0.2155 1.6954 0.3243 2.5585 0.3238zm-2.5585 16.422c0 0.6785-0.2695 1.3293-0.7493 1.8091s-1.1306 0.7493-1.8091 0.7493-1.3293-0.2695-1.8091-0.7493-0.7493-1.1306-0.7493-1.8091v-4.909h3.3079l1.8089 1.809v3.1zm12.792 0.2079c0 0.506-0.15 1.0006-0.4312 1.4213-0.2811 0.4208-0.6807 0.7487-1.1481 0.9423-0.4675 0.1937-0.982 0.2443-1.4782 0.1456-0.4963-0.0987-0.9522-0.3424-1.31-0.7002s-0.6015-0.8136-0.7002-1.3099-0.048-1.0107 0.1456-1.4782 0.5216-0.8671 0.9423-1.1482 0.9154-0.4312 1.4214-0.4312c0.6783 8e-4 1.3286 0.2706 1.8082 0.7502 0.4797 0.4796 0.7495 1.13 0.7502 1.8083zm5.9756-15.558-1.0084 2.3881c-0.7061-0.3194-1.4508-0.5455-2.2153-0.6724l-1.2613-0.2109h-9e-4l-6.6065-1.1019v-2.851c1.5546-0.898 2.8457-2.1891 3.7438-3.7437 0.8982-1.5545 1.3716-3.318 1.373-5.1133 0.8731 7e-4 1.7316-0.2234 2.4929-0.6507v0.4492c-2e-4 1.043 0.2052 2.0758 0.6045 3.0393s0.9847 1.8389 1.7226 2.576c0.7582 0.7547 1.2734 1.719 1.4793 2.7688s0.0932 2.1372-0.3237 3.1225zm-16.209-36.889c3.3925 7.2e-4 6.6458 1.3487 9.0446 3.7475 2.3989 2.3988 3.7468 5.6521 3.7476 9.0446v3.2468c-0.777-0.4515-1.6598-0.6891-2.5585-0.6884-0.3997 0-0.7965-0.0159-1.1817-0.0458-2.3387-0.1716-4.607-0.8769-6.6308-2.0616-2.0237-1.1847-3.7491-2.8173-5.0436-4.7727l-0.1503-0.2254c-0.1293-0.194-0.3092-0.349-0.5201-0.4482-0.211-0.0991-0.445-0.1388-0.6769-0.1147-0.2318 0.0242-0.4527 0.1112-0.6387 0.2518-0.186 0.1405-0.33 0.3292-0.4165 0.5456l-1.0554 2.64c-0.39 0.9771-0.9831 1.8601-1.7401 2.5906-0.7569 0.7305-1.6605 1.2919-2.6508 1.6468-0.8173 0.0371-1.6135 0.2711-2.321 0.682v-3.2468c0.0039-3.3915 1.3528-6.643 3.751-9.0412s5.6497-3.7471 9.0412-3.751zm-15.118 30.998c0.7397-0.7357 1.3261-1.6109 1.7252-2.5747 0.3992-0.9639 0.6032-1.9973 0.6003-3.0406v-0.4861c0.7771 0.4513 1.6598 0.6885 2.5584 0.6876 0.0014 1.7953 0.4749 3.5588 1.3731 5.1133 0.8981 1.5546 2.1892 2.8456 3.7438 3.7437v2.8064l-2.8613 0.3574c-0.2421-0.0752-0.4891-0.146-0.7434-0.2063-2.3641-0.5588-4.8455-0.337-7.0731 0.6321l-0.4797-1.1399c-0.415-0.9859-0.5266-2.0732-0.3206-3.1229 0.2059-1.0496 0.7202-2.0141 1.477-2.77h3e-4zm-11.028 16.333h0.5612v0.2669c-3e-4 0.2684-0.107 0.5257-0.2968 0.7155s-0.4471 0.2965-0.7155 0.2968h-0.8265c0-0.0078 0-0.016 9e-4 -0.0233 1e-3 -0.0536 0.0053-0.107 0.013-0.1599 0.0022-0.016 0.0043-0.032 0.0072-0.048 0.0107-0.061 0.026-0.1211 0.0455-0.1799 0.0021-0.0062 0.0051-0.0122 0.0072-0.0184 0.0194-0.0533 0.0423-0.1053 0.0685-0.1556 0.0075-0.0147 0.0154-0.0292 0.0235-0.0436 0.031-0.0559 0.0661-0.1093 0.105-0.1599 0.1192-0.1533 0.2719-0.2772 0.4464-0.3622 0.1745-0.0851 0.3662-0.129 0.5604-0.1284zm9.5158 10.234c0.1679 0 0.3343-0.033 0.4895-0.0973s0.2962-0.1585 0.415-0.2773l2.5585-2.5585c0.1187-0.1187 0.213-0.2598 0.2773-0.415 0.0642-0.1552 0.0973-0.3215 0.0973-0.4895s-0.0331-0.3344-0.0973-0.4896c-0.0643-0.1552-0.1586-0.2962-0.2773-0.415-0.1188-0.1188-0.2599-0.213-0.4151-0.2773s-0.3215-0.0974-0.4895-0.0974-0.3344 0.0331-0.4896 0.0974-0.2962 0.1585-0.415 0.2773l-2.1836 2.1838h-5.7096c-0.8561 1e-3 -1.6879-0.2848-2.3626-0.8117-0.6747-0.527-1.1535-1.2647-1.36-2.0955l-0.2325-0.9305h0.2276c0.9467-0.0011 1.8543-0.3776 2.5237-1.047s1.046-1.577 1.0471-2.5237v-0.2669h1.2792c0.2684 0 0.5301-0.0845 0.7479-0.2415s0.3807-0.3785 0.4656-0.6332c0.7279-2.1862 2.2139-4.0398 4.1894-5.2257l0.5626-0.3358c1.9426-1.1659 4.2638-1.527 6.4688-1.0065 0.2779 0.0659 0.5466 0.1434 0.8062 0.2325 0.3673 0.1245 0.7258 0.2735 1.0731 0.446l0.068 0.0349c0.5804 0.2899 1.1262 0.6447 1.6268 1.0574 0.0133 0.011 0.0269 0.0219 0.0406 0.032 1.0446 0.8661 1.8712 1.9654 2.4133 3.2094-0.1725-0.0836-0.3616-0.1273-0.5533-0.1279h-5.1168c-0.3393 0-0.6647 0.1347-0.9046 0.3746s-0.3747 0.5653-0.3747 0.9046v6.1882c-0.0025 0.8991 0.2323 1.783 0.6809 2.5623 0.4486 0.7792 1.095 1.4262 1.8739 1.8755 0.7788 0.4493 1.6625 0.6849 2.5616 0.6832 0.8991-0.0018 1.7819-0.241 2.5589-0.6933v4.7347c-0.7939-3e-4 -1.5684 0.2456-2.2168 0.7038s-1.1388 1.1061-1.4037 1.8546h-0.2171c-0.8984-7e-4 -1.7811 0.2354-2.5593 0.6844-0.7782 0.4491-1.4243 1.0952-1.8732 1.8734-0.449 0.7781-0.6851 1.6609-0.6843 2.5593 7e-4 0.8984 0.2381 1.7808 0.6883 2.5582h-6.4997c0.4693-0.8082 0.7084-1.7295 0.6915-2.664-0.0169-0.9344-0.2892-1.8465-0.7874-2.6372 0.8088-1.4429 1.4799-2.9588 2.0043-4.5276 0.1074-0.3219 0.0825-0.6732-0.0691-0.9767-0.1517-0.3035-0.4177-0.5343-0.7395-0.6417s-0.6732-0.0825-0.9767 0.0691c-0.3035 0.1517-0.5343 0.4177-0.6417 0.7395-0.4074 1.2192-0.9132 2.4032-1.5122 3.5406-0.3184-0.1687-0.6538-0.3033-1.0005-0.4014l-0.2091-0.0592c-0.0225-0.3504-0.0935-0.6961-0.2109-1.027 0.3063-0.5892 0.5906-1.1898 0.8474-1.792l1.5831-3.6938h1.7153zm-11.963 9.9384 0.6161-1.3644c0.5738-1.263 1.535-2.3104 2.7443-2.9902 0.1464-0.0823 0.3077-0.1348 0.4746-0.1545s0.336-0.0061 0.4976 0.0399l0.2113 0.0598c0.3263 0.0925 0.6026 0.3108 0.7682 0.6068 0.1655 0.296 0.2069 0.6456 0.115 0.972-0.0923 0.3265-0.0511 0.6762 0.1145 0.9723s0.442 0.5143 0.7685 0.6066l1.2312 0.348c0.6492 0.1877 1.1977 0.6247 1.5258 1.2155s0.4091 1.2874 0.2254 1.9377c-0.1837 0.6504-0.6173 1.2016-1.206 1.5334-0.5888 0.3317-1.2849 0.4171-1.9363 0.2374l-4.925-1.3912c-0.265-0.0746-0.5107-0.2055-0.7203-0.3838-0.2097-0.1783-0.3785-0.3997-0.4947-0.6492-0.1163-0.2495-0.1773-0.5211-0.1789-0.7964-0.0016-0.2752 0.0562-0.5475 0.1695-0.7984l-8e-4 -0.0013zm46.502 0.2954c-0.0012 1.0174-0.4059 1.9928-1.1253 2.7123-0.7195 0.7194-1.6949 1.1241-2.7123 1.1253h-20.468c-0.6785 0-1.3293-0.2695-1.8091-0.7493s-0.7493-1.1306-0.7493-1.8091c0-0.6786 0.2695-1.3293 0.7493-1.8091s1.1306-0.7493 1.8091-0.7493h1.2792c0.3393 0 0.6647-0.1348 0.9046-0.3747s0.3746-0.5653 0.3746-0.9046c-4e-4 -0.1681 0.0324-0.3346 0.0966-0.49 0.0641-0.1554 0.1583-0.2965 0.2772-0.4154s0.2601-0.2131 0.4154-0.2772c0.1554-0.0642 0.3219-0.097 0.49-0.0966h0.2191c0.3392 0.0026 0.664 0.1372 0.9055 0.3753l1.8085 1.8085c0.1188 0.1188 0.2598 0.213 0.4151 0.2773 0.1552 0.0643 0.3215 0.0974 0.4895 0.0974h10.234c0.3393 0 0.6647-0.1348 0.9046-0.3747s0.3747-0.5653 0.3747-0.9046v-2.0528c0.9664-1.1004 1.633-2.4312 1.9355-3.8642 0.3024-1.4329 0.2306-2.9196-0.2086-4.3167h3.3899v12.792z"/>
<path d="m16.643 36.47c-0.1928-0.7708-0.5867-1.4767-1.1414-2.0456-0.5548-0.5688-1.2506-0.9803-2.0163-1.1925-0.7657-0.2121-1.5741-0.2172-2.3424-0.0149-0.7684 0.2024-1.4694 0.605-2.0313 1.1668l-0.71317 0.7131-0.71332-0.7131c-0.56191-0.5618-1.2628-0.9645-2.0312-1.1669-0.76839-0.2024-1.5767-0.1973-2.3425 0.0148-0.76576 0.2121-1.4615 0.6236-2.0163 1.1925-0.55476 0.5689-0.94863 1.2748-1.1414 2.0457-0.25886 1.0415-0.19015 2.1376 0.19677 3.1386 0.38692 1.0011 1.0732 1.8585 1.9653 2.4552l5.3727 3.5818c0.21013 0.1401 0.45702 0.2149 0.70956 0.2149 0.25255 0 0.49944-0.0748 0.70957-0.2149l5.3727-3.5818c0.8922-0.5966 1.5786-1.4539 1.9656-2.455 0.3871-1.001 0.4559-2.0971 0.1971-3.1387zm-3.5818 3.4649-4.6636 3.109-4.6631-3.109c-0.45368-0.3034-0.80272-0.7394-0.99951-1.2485-0.1968-0.509-0.23176-1.0664-0.10013-1.5961 0.08299-0.3317 0.2525-0.6354 0.49123-0.8802s0.53813-0.4218 0.86765-0.5131c0.32951-0.0912 0.67733-0.0934 1.008-0.0063 0.33064 0.087 0.63225 0.2603 0.87404 0.502l1.6177 1.6179c0.11878 0.1188 0.25981 0.2131 0.41501 0.2774 0.15521 0.0642 0.32156 0.0973 0.48955 0.0973 0.168 0 0.33435-0.0331 0.48955-0.0973 0.15521-0.0643 0.29623-0.1586 0.41502-0.2774l1.6177-1.6179c0.2418-0.2417 0.5434-0.415 0.8741-0.5022 0.3306-0.0871 0.6785-0.0849 1.008 0.0064 0.3296 0.0913 0.629 0.2684 0.8677 0.5132s0.4082 0.5486 0.4911 0.8803c0.1315 0.5298 0.0965 1.0871-0.1004 1.5962-0.1969 0.509-0.546 0.945-0.9997 1.2483z"/>
<path d="m25.582 51.169c0.7065 0 1.2792-0.5728 1.2792-1.2793 0-0.7064-0.5727-1.2792-1.2792-1.2792s-1.2792 0.5728-1.2792 1.2792c0 0.7065 0.5727 1.2793 1.2792 1.2793z"/>
</svg>
