<?xml version="1.0" encoding="UTF-8"?>
<svg viewBox="0 0 21 22" xmlns="http://www.w3.org/2000/svg">
<path d="m6.7007 13.319c-0.30022 0.6154-0.42781 1.1307-0.43598 1.1644-0.04438 0.1832 0.03504 0.3726 0.19402 0.4702 0.08702 0.0534 2.1511 1.2997 3.8649 0.5924 0.1371-0.0566 0.2709-0.1186 0.4009-0.1854-1.4615-0.3647-2.8312-1.1309-4.0239-2.0416z" fill="#78C0DE"/>
<path d="m6.7389 7.7482c0.00332 0.00263 0.15169 0.12276 0.3482 0.31621 1.5967-1.1373 3.4714-1.9848 5.4324-1.9848 0.4327-8e-5 0.8689 0.02594 1.307 0.0773-0.2244-0.4034-0.5978-0.8244-1.1983-1.2247-1.1781-0.7854-2.6985-0.18782-3.8932 0.56441-1.1284 0.71044-1.9951 1.5724-2.0314 1.6087-0.18082 0.18082-0.16633 0.4804 0.03529 0.6429z" fill="#78C0DE"/>
<path d="m5.5128 12.313c-0.1822-0.171-0.44375-0.4273-0.61085-0.6141-0.44119-0.493-0.44123-1.2365 4.5e-4 -1.73 0.11435-0.12755 0.34305-0.36281 0.61036-0.61362-0.46899-0.35504-1.0449-0.90154-1.5874-1.7154-0.15106-0.22645-0.47218-0.25897-0.66528-0.06587-0.64498 0.64497-0.9998 1.4224-0.97352 2.1328 0.02772 0.74824 0.02774 1.5068 2e-5 2.2545-0.0263 0.7105 0.32852 1.4879 0.9735 2.1328 0.19277 0.1928 0.5141 0.161 0.66526-0.0659 0.54255-0.8137 1.1184-1.3603 1.5874-1.7153z" fill="#78C0DE"/>
<path d="m15.349 14.081c-1.3082-1.5047-1.3109-4.9778-0.0036-6.4894 0.0151-0.01746 0.0057-0.0073 0.2036-0.20518-1.0167-0.29333-2.0346-0.44226-3.0298-0.44208-2.2132-4e-5 -4.3772 1.2511-6.0286 2.6917-0.41385 0.3612-0.77344 0.71876-0.94492 0.91006-0.14687 0.1641-0.14687 0.4124 2e-5 0.5765 0.36796 0.4114 1.1308 1.1168 1.9516 1.7122 1.2549 0.9093 2.7043 1.6427 4.2351 1.8382 0.0069-0.0062 0.276 0.0449 0.8158 0.0511 0.982-0.0028 1.9953-0.1491 2.9825-0.4334l-0.1816-0.2097z" fill="#78C0DE"/>
<path d="m19.843 11.81c0.2041-0.2573 0.388-0.589 0.412-0.9196 0.0538-0.7264-0.754-1.4702-1.3408-1.9029-0.729-0.53763-1.6059-0.9792-2.4467-1.2965l-0.477 0.47702c-1.0161 1.1949-1.0085 4.1721 0.0121 5.3461l0.4188 0.4832c1.164-0.4336 2.6582-1.2121 3.4216-2.1873zm-3.1402-1.3395c-0.0689-0.219 0.0524-0.4672 0.2877-0.5387 0.2229-0.07408 0.4942 0.0626 0.5493 0.3289 0.0221 0.1078 0.0012 0.2242-0.0644 0.3244-0.2114 0.3087-0.6699 0.2259-0.7726-0.1146z" fill="#78C0DE"/>
</svg>
