<?xml version="1.0" encoding="UTF-8"?>
<svg fill="none" viewBox="0 0 13 13" xmlns="http://www.w3.org/2000/svg">
<path d="m12.761 10.183-2.9664-2.6971c-0.14023-0.12744-0.32449-0.19541-0.51388-0.18956-0.1894 0.00586-0.36911 0.08508-0.50119 0.22094l-1.7463 1.7959c-0.42033-0.08027-1.2654-0.3437-2.1352-1.2114-0.86986-0.87057-1.1333-1.7178-1.2114-2.1352l1.7944-1.747c0.13603-0.13199 0.21537-0.31173 0.22123-0.50118 0.00585-0.18945-0.06223-0.37374-0.18985-0.51388l-2.6964-2.9656c-0.12768-0.14058-0.30512-0.22585-0.49466-0.2377-0.18953-0.011854-0.37622 0.050643-0.52041 0.17422l-1.5835 1.358c-0.12616 0.12662-0.20147 0.29514-0.21163 0.4736-0.010946 0.18243-0.21965 4.5039 3.1313 7.8563 2.9233 2.9226 6.5852 3.1364 7.5936 3.1364 0.1475 0 0.2379-0.0044 0.262-0.0058 0.1785-0.01 0.3469-0.0857 0.4729-0.2124l1.3573-1.5842c0.1241-0.1438 0.187-0.3303 0.1754-0.5198-0.0115-0.1896-0.0968-0.367-0.2374-0.4946z" fill="#FFBD54"/>
</svg>
