<?xml version="1.0" encoding="UTF-8"?>
<svg viewBox="0 0 76 76" xmlns="http://www.w3.org/2000/svg">
<path d="m74.672 18.984v37.969h-17.719v17.719h-37.969v-17.719h-17.719v-37.969h17.719v-17.719h37.969v17.719h17.719z" fill="#6B9777"/>
<path d="m72.141 18.984v37.969h-17.719v17.719h-35.438v-17.719h-17.719v-37.969h17.719v-17.719h35.438v17.719h17.719z" fill="#85BC94"/>
<path d="m20.25 50.625h-1.2656c-1.0846 0-2.1379-0.3625-2.9928-1.0299-0.8548-0.6674-1.462-1.6014-1.725-2.6535l-1.6104-6.4416-0.8385 0.8385c-0.9187 0.9187-1.6109 2.0387-2.0218 3.2713-0.41088 1.2327-0.52911 2.544-0.34534 3.8303 0.43146 3.0201 2.045 5.7451 4.4856 7.5757 0.8121 0.6087 1.7998 0.9376 2.8147 0.9373h3.4992v-6.3281z" fill="#744630"/>
<path d="m53.156 72.141-1.2656 2.5313h-32.906v-18.715c-1e-4 -2.6928 0.4336-5.368 1.2846-7.9228l0.6897-2.0678c1.1964-3.5928 3.2135-6.8575 5.8915-9.5349l0.0934-0.0933c2.2629-2.2591 4.0731-4.9301 5.333-7.869 0.4968-1.1581 0.9919-2.3161 1.3526-3.1562 0.3275-0.7641 0.5427-1.2656 0.5427-1.2656h-3.6419c-1.1286-0.0012-2.2246-0.3791-3.1141-1.0737-0.8896-0.6947-1.5218-1.6664-1.7965-2.7611l-0.6233-2.4933-0.163-0.6518c-0.0932-0.3732-0.1002-0.7627-0.0205-1.1389 0.0798-0.3763 0.2443-0.7294 0.481-1.0326s0.5394-0.5484 0.885-0.7171c0.3457-0.1687 0.7252-0.2564 1.1099-0.2565h4.3521c0.8161-2.4505 2.4822-4.528 4.6971-5.8567l0.5537-0.33065c1.4234-0.85365 3.0391-1.3346 4.6977-1.3985 1.6585-0.06388 3.3064 0.29143 4.7913 1.0331l0.0554 0.02848c1.6391 0.81961 3.0176 2.0794 3.981 3.6383 0.9634 1.5589 1.4738 3.3553 1.4738 5.1879v54.651l1.2656 1.2656z" fill="#F3AF3E"/>
<path d="m25.945 74.672c-1.51-0.0017-2.9576-0.6023-4.0253-1.67s-1.6683-2.5154-1.67-4.0253v-0.9493c0.0021-0.8837 0.2089-1.755 0.6042-2.5455 0.3952-0.7905 0.9682-1.4787 1.6739-2.0107 0.8627-0.6501 1.563-1.4913 2.0461-2.4574 0.4831-0.9662 0.7358-2.0312 0.7383-3.1114v-0.9492c0-0.3356 0.1333-0.6576 0.3707-0.8949 0.2373-0.2374 0.5593-0.3707 0.8949-0.3707 0.3357 0 0.6576 0.1333 0.895 0.3707 0.2373 0.2373 0.3707 0.5593 0.3707 0.8949v0.9492c-0.0036 1.473-0.3482 2.9252-1.0069 4.2427-0.6588 1.3175-1.6137 2.4645-2.79 3.3511-0.3921 0.2956-0.7104 0.6779-0.93 1.1171-0.2195 0.4391-0.3344 0.9232-0.3357 1.4141v0.9493c0 0.8391 0.3334 1.6439 0.9268 2.2373s1.3982 0.9267 2.2373 0.9267c0.8392 0 1.644-0.3333 2.2373-0.9267 0.5934-0.5934 0.9268-1.3982 0.9268-2.2373v-0.6328c0.0011-1.0067 0.4016-1.9718 1.1133-2.6836 0.7118-0.7117 1.6769-1.1122 2.6835-1.1133 0.3357 0 0.6576 0.1333 0.895 0.3707 0.2373 0.2373 0.3707 0.5592 0.3707 0.8949s-0.1334 0.6576-0.3707 0.8949c-0.2374 0.2374-0.5593 0.3707-0.895 0.3707-0.3355 4e-4 -0.6572 0.1339-0.8945 0.3711-0.2372 0.2373-0.3707 0.559-0.3711 0.8946v0.6328c-0.0016 1.5099-0.6022 2.9576-1.6699 4.0253-1.0678 1.0677-2.5154 1.6683-4.0254 1.67z" fill="#CD761F"/>
<path d="m53.156 72.141-1.2656 2.5313h-13.537c-1.0477 0-2.0852-0.2063-3.0532-0.6072-0.968-0.401-1.8475-0.9886-2.5883-1.7295-0.7409-0.7408-1.3286-1.6204-1.7295-2.5883-0.4009-0.968-0.6072-2.0055-0.6072-3.0532-4e-4 -1.4244 0.1983-2.8419 0.5901-4.2114l0.1883-0.6581c1.1256-3.943 3.7086-7.3104 7.2251-9.4194 0.5587-0.3357 1.0103-0.8235 1.302-1.4064l2.0851-4.1703h-4.2857c-0.4344 0-0.8646-0.0855-1.2659-0.2517-0.4014-0.1663-0.7661-0.4099-1.0733-0.7171s-0.5508-0.6719-0.7171-1.0732c-0.1662-0.4014-0.2517-0.8316-0.2517-1.266v-3.0201h3.7969l0.3148-0.9445c0.2911-0.8743 0.7983-1.661 1.4744-2.2872 0.6762-0.6261 1.4995-1.0713 2.3936-1.2945l2.1453-0.5363v-3.7969l3.6972 2.7733c0.899 0.6719 1.6278 1.5454 2.1278 2.5503 1.1629 2.3253 1.7684 4.8894 1.7687 7.4893v26.422l1.2656 1.2656z" fill="#E08122"/>
<path d="m43.927 46.458-1.2656 1.2656c-0.2377 0.2372-0.5597 0.3703-0.8955 0.3702h-0.6328l0.6328-1.2656h-4.2857c-0.4808 7e-4 -0.9559-0.1037-1.392-0.3059-0.4362-0.2022-0.8229-0.4974-1.1329-0.8648 0.153-0.0631 0.317-0.0954 0.4825-0.0949h5.8045l0.8938-0.8955c0.2375-0.2374 0.5596-0.3709 0.8955-0.3709 0.3358 0 0.6579 0.1335 0.8954 0.3709 0.2375 0.2375 0.3709 0.5596 0.3709 0.8955 0 0.3358-0.1334 0.6579-0.3709 0.8954z" fill="#CD761F"/>
<path d="m46.828 58.219c-0.3356 0-0.6576 0.1333-0.8949 0.3706-0.2374 0.2374-0.3707 0.5593-0.3707 0.895v9.1558c-0.4823-0.1961-0.9981-0.2967-1.5188-0.2964h-1.1786l0.1725-0.2595c0.5554-0.8331 0.8743-1.8014 0.9226-2.8016 0.0483-1.0001-0.1758-1.9946-0.6484-2.8774s-1.1759-1.6207-2.035-2.1351c-0.859-0.5144-1.8416-0.786-2.8429-0.7858h-0.4651c-0.3357 0-0.6576 0.1333-0.895 0.3707-0.2373 0.2373-0.3707 0.5592-0.3707 0.8949s0.1334 0.6576 0.3707 0.8949c0.2374 0.2374 0.5593 0.3707 0.895 0.3707h0.4651c0.5432-2e-4 1.0764 0.147 1.5425 0.4261 0.4661 0.279 0.8477 0.6793 1.1042 1.1583 0.2564 0.4789 0.378 1.0184 0.3518 1.5611-0.0261 0.5426-0.1991 1.0679-0.5005 1.5199l-1.4855 2.226c-0.1267 0.1907-0.1994 0.4122-0.2102 0.641-0.0108 0.2287 0.0405 0.4561 0.1486 0.658s0.2689 0.3707 0.4652 0.4885c0.1964 0.1178 0.421 0.1802 0.65 0.1805h3.5437c0.4027 6e-4 0.7886 0.1608 1.0733 0.4455s0.4449 0.6706 0.4455 1.0733v2.2781h2.5313v-15.188c0-0.3357-0.1334-0.6576-0.3707-0.895-0.2374-0.2373-0.5593-0.3706-0.895-0.3706z" fill="#CD761F"/>
<path d="m51.891 16.453v3.5912c0 0.7969-0.2507 1.5736-0.7167 2.2201s-1.1235 1.1299-1.8795 1.3819c-0.7794 0.2598-1.6219 0.2598-2.4013 0-0.756-0.252-1.4135-0.7354-1.8795-1.3819s-0.7167-1.4232-0.7167-2.2201v-6.1224h5.0625l2.5312 2.5312z" fill="#744630"/>
<path d="m40.13 22.411-2.5312 2.5313c-0.2377 0.2371-0.5597 0.3703-0.8955 0.3702h-3.0739c0.3275-0.7641 0.5427-1.2657 0.5427-1.2657h-3.6419c-1.1718 0.0011-2.3074-0.4061-3.2115-1.1517 0.1649-0.075 0.344-0.1139 0.5252-0.1139h8.3358l2.1594-2.161c0.1176-0.1176 0.2572-0.2109 0.4109-0.2745 0.1536-0.0637 0.3183-0.0964 0.4846-0.0964s0.3309 0.0327 0.4846 0.0964c0.1536 0.0636 0.2932 0.1569 0.4108 0.2745s0.2109 0.2572 0.2745 0.4108 0.0964 0.3183 0.0964 0.4846-0.0328 0.331-0.0964 0.4846-0.1569 0.2932-0.2745 0.4108z" fill="#D18D28"/>
<path d="m29.109 13.922v2.5312c0 0.3357-0.1334 0.6576-0.3707 0.895-0.2374 0.2373-0.5593 0.3707-0.8949 0.3707h-2.8477l-0.163-0.6518c-0.0932-0.3732-0.1002-0.7627-0.0204-1.139 0.0797-0.3762 0.2442-0.7293 0.4809-1.0325s0.5394-0.5485 0.885-0.7172c0.3457-0.1687 0.7252-0.2564 1.1099-0.2564h1.8209z" fill="#D18D28"/>
<path d="m33.035 37.374c-0.235-2e-4 -0.4652-0.0658-0.665-0.1894-0.1998-0.1237-0.3612-0.3005-0.4662-0.5107s-0.1494-0.4455-0.1282-0.6794c0.0211-0.234 0.107-0.4575 0.248-0.6455 1.5094-2.0114 2.6841-4.2534 3.4785-6.6395 0.1062-0.3184 0.3345-0.5817 0.6347-0.7318 0.3003-0.1501 0.6479-0.1748 0.9663-0.0687 0.3185 0.1062 0.5818 0.3345 0.7319 0.6348 0.1501 0.3002 0.1748 0.6478 0.0687 0.9663-0.8806 2.6441-2.1825 5.1287-3.8553 7.3577-0.1179 0.1574-0.2709 0.2851-0.4468 0.373s-0.37 0.1335-0.5666 0.1332z" fill="#D18D28"/>
<path d="m24.047 55.688c-0.3357 0-0.6576-0.1333-0.895-0.3707-0.2373-0.2373-0.3707-0.5593-0.3707-0.8949 0.0091-4.38 1.4293-8.6406 4.0501-12.15 0.2014-0.2686 0.5012-0.4461 0.8335-0.4935 0.3323-0.0475 0.6698 0.039 0.9383 0.2404 0.2686 0.2014 0.4461 0.5012 0.4936 0.8335 0.0474 0.3323-0.039 0.6698-0.2404 0.9383-2.2932 3.0708-3.5359 6.7988-3.5438 10.631 0 0.3356-0.1333 0.6576-0.3707 0.8949-0.2373 0.2374-0.5593 0.3707-0.8949 0.3707z" fill="#D18D28"/>
<path d="m37.969 16.453c0.6989 0 1.2656-0.5666 1.2656-1.2656s-0.5667-1.2656-1.2656-1.2656c-0.699 0-1.2657 0.5666-1.2657 1.2656s0.5667 1.2656 1.2657 1.2656z" fill="#D18D28"/>
<path d="m43.031 41.766c0.699 0 1.2657-0.5666 1.2657-1.2656s-0.5667-1.2656-1.2657-1.2656c-0.6989 0-1.2656 0.5666-1.2656 1.2656s0.5667 1.2656 1.2656 1.2656z" fill="#CD761F"/>
<path d="m74.672 17.719h-16.453v-16.453c0-0.33566-0.1334-0.65758-0.3707-0.89493-0.2374-0.23735-0.5593-0.37069-0.895-0.37069h-37.969c-0.3357 0-0.6576 0.13334-0.895 0.37069-0.2373 0.23735-0.3706 0.55927-0.3706 0.89493v16.453h-16.453c-0.33566 0-0.65758 0.1333-0.89493 0.3706-0.23735 0.2374-0.37069 0.5593-0.37069 0.895v37.969c0 0.3357 0.13334 0.6576 0.37069 0.895 0.23735 0.2373 0.55927 0.3707 0.89493 0.3707h16.453v16.453c0 0.3356 0.1333 0.6576 0.3706 0.8949 0.2374 0.2374 0.5593 0.3707 0.895 0.3707h37.969c0.3357 0 0.6576-0.1333 0.895-0.3707 0.2373-0.2373 0.3707-0.5593 0.3707-0.8949v-16.453h16.453c0.3356 0 0.6576-0.1334 0.8949-0.3707 0.2374-0.2374 0.3707-0.5593 0.3707-0.895v-37.969c0-0.3357-0.1333-0.6576-0.3707-0.895-0.2373-0.2373-0.5593-0.3706-0.8949-0.3706zm-56.95 37.969h-0.9709c-0.7408 1e-4 -1.4617-0.2401-2.0544-0.6845-2.1716-1.63-3.6074-4.0553-3.9921-6.7431-0.2566-1.8306 0.2061-3.6893 1.2911-5.1858l1.0442 4.1748c0.2913 1.1703 0.922 2.2284 1.8128 3.0413 0.8909 0.813 2.0021 1.3444 3.1941 1.5277-0.2034 1.2801-0.312 2.5735-0.3248 3.8696zm2.5286 17.719v-4.4296c-0.0018 0.7483 0.1448 1.4897 0.4312 2.1811s0.707 1.3192 1.2375 1.847c0.142 0.1415 0.2912 0.2755 0.4471 0.4015h-2.1158zm8.8594-5.0624v0.6328c0 0.8391-0.3334 1.6439-0.9268 2.2373-0.5933 0.5934-1.3981 0.9267-2.2373 0.9267-0.8391 0-1.6439-0.3333-2.2373-0.9267s-0.9268-1.3982-0.9268-2.2373v-0.9493c0.0013-0.4909 0.1162-0.975 0.3357-1.4141 0.2196-0.4392 0.5379-0.8215 0.93-1.1171 1.179-0.8841 2.1359-2.0305 2.795-3.3486 0.659-1.3181 1.002-2.7715 1.0019-4.2452v-0.9492c0-0.3356-0.1334-0.6576-0.3707-0.8949-0.2374-0.2374-0.5593-0.3707-0.895-0.3707-0.3356 0-0.6576 0.1333-0.8949 0.3707-0.2374 0.2373-0.3707 0.5593-0.3707 0.8949v0.9492c2e-4 1.0807-0.2513 2.1466-0.7346 3.1132s-1.1851 1.8073-2.0498 2.4556c-0.7057 0.532-1.2786 1.2203-1.6738 2.0107-0.3953 0.7905-0.6021 1.6618-0.6043 2.5455v-12.071c-1e-4 -1.7021 0.1825-3.3993 0.5449-5.0625 0.0017-8e-3 0.0036-0.0158 0.0052-0.024 0.1799-0.8234 0.4034-1.6366 0.6695-2.4363l0.6901-2.0685c1.138-3.4044 3.0499-6.4986 5.5855-9.0394l0.0935-0.0935c2.378-2.3719 4.2793-5.1776 5.6012-8.2652l1.5662-3.6545h1.697c0.1662 0 0.3308-0.0327 0.4844-0.0963 0.1535-0.0636 0.2931-0.1568 0.4106-0.2744l2.5312-2.5312c0.2374-0.2374 0.3707-0.5593 0.3707-0.895 0-0.3356-0.1333-0.6576-0.3707-0.8949-0.2373-0.2374-0.5593-0.3707-0.8949-0.3707-0.3357 0-0.6576 0.1333-0.895 0.3707l-2.1604 2.1605h-5.649c-0.8469 1e-3 -1.6698-0.2818-2.3373-0.8031-0.6676-0.5213-1.1413-1.2512-1.3456-2.0731l-0.2302-0.9206h1.2269c0.671-8e-4 1.3144-0.2678 1.7889-0.7423 0.4746-0.4745 0.7415-1.1179 0.7423-1.789v-1.2656h1.2656c0.2657 0 0.5246-0.0835 0.7401-0.2389 0.2155-0.1553 0.3767-0.3745 0.4607-0.6265 0.7203-2.1628 2.1905-3.9967 4.1449-5.17l0.5566-0.33223c1.2387-0.7426 2.6444-1.1616 4.0875-1.2184 1.4432-0.05678 2.8774 0.25046 4.1707 0.89343l0.0675 0.03465c1.8081 0.89801 3.241 2.4057 4.0459 4.2571-0.1727-0.0851-0.3626-0.1297-0.5551-0.1304h-5.0625c-0.3357 0-0.6576 0.1334-0.895 0.3707-0.2373 0.2374-0.3707 0.5593-0.3707 0.895v6.1224c-0.0026 0.8896 0.2298 1.7642 0.6736 2.5352s1.0834 1.4111 1.8539 1.8556c0.7706 0.4445 1.6449 0.6777 2.5345 0.6759s1.763-0.2384 2.5318-0.686v10.921c-0.5165-0.7439-1.1482-1.4008-1.8714-1.9459l-3.6974-2.7721c-0.188-0.141-0.4116-0.2269-0.6457-0.248s-0.4694 0.0234-0.6796 0.1285c-0.2103 0.1051-0.3871 0.2667-0.5106 0.4666-0.1236 0.2-0.1891 0.4304-0.1891 0.6654v2.8088l-1.1865 0.2968c-1.1018 0.2723-2.1165 0.8195-2.9493 1.5906s-1.4565 1.7408-1.8126 2.8185l-0.0264 0.0791h-2.8845c-0.3357 0-0.6576 0.1333-0.895 0.3707-0.2373 0.2373-0.3707 0.5592-0.3707 0.8949v3.0217c0.0016 1.2122 0.484 2.3743 1.3412 3.2314 0.8573 0.8571 2.0195 1.3393 3.2317 1.3407h2.2387l-1.1691 2.338c-0.1836 0.3679-0.4685 0.6757-0.8212 0.8871-3.7954 2.2702-6.582 5.9026-7.7914 10.157l-0.1882 0.6586c-0.4237 1.4829-0.6386 3.0177-0.6385 4.5599 4e-4 0.3355 0.0189 0.6707 0.0555 1.0041-0.0368 0.2133-0.0553 0.4293-0.0555 0.6457zm-3.085-51.891v-0.0218c1e-3 -0.0533 0.0053-0.1065 0.013-0.1593 0.0022-0.0158 0.0043-0.0317 0.0071-0.0465 0.0107-0.0604 0.0257-0.1198 0.0449-0.178 0.0023-0.0063 0.0053-0.0125 0.0076-0.0188 0.019-0.0525 0.0414-0.1037 0.0673-0.1532 0.0076-0.0147 0.0158-0.0292 0.0234-0.0436 0.0307-0.0552 0.0654-0.1081 0.1038-0.1582 0.1179-0.1518 0.2691-0.2746 0.4418-0.3588 0.1728-0.0843 0.3626-0.1278 0.5548-0.1272h0.5557v1.2656l-1.8194-2e-4zm24.601 0.5242v3.067c0 0.6714-0.2667 1.3152-0.7414 1.7899s-1.1185 0.7414-1.7898 0.7414c-0.6714 0-1.3152-0.2667-1.7899-0.7414s-0.7414-1.1185-0.7414-1.7899v-4.8568h3.2728l1.7897 1.7898zm-21.105 56.429c0.4959-0.401 0.9216-0.8819 1.2595-1.4228 0.3604 0.5145 0.7721 0.9912 1.2286 1.4228h-2.4881zm21.589 0h-3.0147v-13.922c0-0.3357-0.1334-0.6576-0.3707-0.895-0.2374-0.2373-0.5593-0.3706-0.895-0.3706-0.3356 0-0.6576 0.1333-0.8949 0.3706-0.2374 0.2374-0.3707 0.5593-0.3707 0.895v9.156c-0.4823-0.1961-0.9981-0.2969-1.5187-0.2966h-1.1787l0.1726-0.2589c0.5554-0.8331 0.8743-1.8014 0.9226-2.8015 0.0483-1.0002-0.1757-1.9947-0.6482-2.8775s-1.1758-1.6208-2.0348-2.1353-1.8415-0.7863-2.8428-0.7862h-0.4657c-0.3357 0-0.6576 0.1333-0.895 0.3707-0.2373 0.2373-0.3707 0.5592-0.3707 0.8949s0.1334 0.6576 0.3707 0.8949c0.2374 0.2374 0.5593 0.3707 0.895 0.3707h0.4657c0.5431 0 1.0761 0.1474 1.542 0.4264 0.466 0.2791 0.8475 0.6794 1.1038 1.1583 0.2563 0.4788 0.3778 1.0183 0.3516 1.5608s-0.1992 1.0677-0.5005 1.5196l-1.4844 2.2266c-0.1271 0.1906-0.2001 0.4121-0.2111 0.6409-0.0111 0.2288 0.0401 0.4563 0.1482 0.6583s0.269 0.3709 0.4655 0.4886 0.4213 0.1799 0.6504 0.1799h3.5438c0.4026 6e-4 0.7885 0.1608 1.0732 0.4455s0.4449 0.6706 0.4455 1.0733v1.0124h-7.2096c-1.7796-2e-3 -3.4857-0.7098-4.7441-1.9681-1.2583-1.2584-1.9662-2.9645-1.9682-4.7441 0-1.3069 0.1822-2.6075 0.5412-3.8641l0.1881-0.6586c1.0339-3.6364 3.4159-6.7415 6.6604-8.682 0.7657-0.4587 1.3843-1.1267 1.7831-1.9252l1.9934-3.9867 1.1205-1.1206c0.2374-0.2373 0.3707-0.5593 0.3707-0.8949 0-0.3357-0.1333-0.6576-0.3707-0.895-0.2373-0.2373-0.5593-0.3707-0.8949-0.3707-0.3357 0-0.6576 0.1334-0.895 0.3707l-0.8959 0.8956h-3.7624c-0.5411-6e-4 -1.06-0.2158-1.4427-0.5983-0.3827-0.3826-0.5981-0.9014-0.5989-1.4425v-1.7561h2.5313c0.2656 0 0.5245-0.0835 0.74-0.2388s0.3767-0.3745 0.4607-0.6265l0.3148-0.9444c0.2225-0.6731 0.612-1.2788 1.1321-1.7605 0.5202-0.4817 1.154-0.8236 1.8422-0.9938l2.1454-0.5363c0.2738-0.0685 0.5168-0.2265 0.6905-0.449 0.1737-0.2224 0.268-0.4966 0.268-0.7788v-1.2656l1.6724 1.2544c0.74 0.5563 1.3411 1.2765 1.756 2.1041 1.0721 2.1506 1.6314 4.5203 1.6341 6.9233v26.421c0 0.1662 0.0327 0.3308 0.0963 0.4843 0.0636 0.1536 0.1568 0.2931 0.2744 0.4107l0.6206 0.6206-0.5078 1.0156zm22.298-17.719h-16.453c-0.3356 0-0.6576 0.1333-0.8949 0.3707-0.2374 0.2373-0.3707 0.5593-0.3707 0.8949v16.453h-1.7491l0.3498-0.6995c0.1188-0.2376 0.1598-0.5066 0.1172-0.7688-0.0426-0.2623-0.1666-0.5044-0.3545-0.6922l-0.8947-0.8948v-54.127c0.0073-2.0666-0.5641-4.094-1.6496-5.8527-1.0855-1.7587-2.6416-3.1783-4.4923-4.0982l-0.0689-0.03528c-1.6748-0.83679-3.5335-1.2378-5.4042-1.1659-1.8708 0.07189-3.6932 0.61435-5.2988 1.5772l-0.5559 0.33223c-2.2018 1.3207-3.9256 3.3086-4.9212 5.6752h-3.4768c-0.577 1e-4 -1.1464 0.1317-1.6649 0.3847s-0.9725 0.6209-1.3275 1.0757c-0.3551 0.4548-0.6018 0.9845-0.7215 1.5489s-0.1092 1.1486 0.0307 1.7084l0.7861 3.1449c0.3407 1.3699 1.1302 2.5862 2.2428 3.455 1.1125 0.8688 2.4839 1.3401 3.8955 1.3385h1.7224l-1.1391 2.6579c-1.195 2.7915-2.9143 5.3281-5.0645 7.4722l-0.0935 0.0935c-2.8131 2.8195-4.9342 6.2527-6.1969 10.03l-0.69 2.0682c-0.187 0.5615-0.3544 1.1277-0.502 1.6986-0.7257-0.0836-1.4085-0.3867-1.9574-0.8687-0.5489-0.4819-0.9377-1.1199-1.1144-1.8287l-1.6102-6.4423c-0.0543-0.2173-0.1653-0.4163-0.3217-0.5766-0.1564-0.1604-0.3525-0.2764-0.5683-0.3362-0.2159-0.0598-0.4437-0.0612-0.6603-0.0042-0.2166 0.0571-0.4141 0.1706-0.5725 0.3289l-0.8385 0.8385c-1.0543 1.0596-1.849 2.3489-2.3217 3.7669-0.47273 1.418-0.61067 2.9263-0.40303 4.4065 0.37962 2.6632 1.5918 5.138 3.4631 7.0706h-9.13v-35.438h16.453c0.3356 0 0.6576-0.1333 0.8949-0.3707 0.2374-0.2373 0.3707-0.5593 0.3707-0.8949v-16.453h35.438v16.453c0 0.3356 0.1333 0.6576 0.3707 0.8949 0.2373 0.2374 0.5593 0.3707 0.8949 0.3707h16.453v35.438z"/>
<path d="m32.277 37.12c0.1329 0.0997 0.2842 0.1723 0.4452 0.2135 0.161 0.0413 0.3286 0.0504 0.4931 0.0269 0.1646-0.0235 0.3229-0.0792 0.4659-0.1639 0.143-0.0846 0.2679-0.1967 0.3676-0.3296 1.6729-2.229 2.9747-4.7136 3.8553-7.3577 0.1061-0.3185 0.0814-0.6661-0.0687-0.9663-0.1501-0.3003-0.4133-0.5286-0.7318-0.6348-0.3185-0.1061-0.6661-0.0814-0.9663 0.0687-0.3003 0.1501-0.5286 0.4134-0.6347 0.7319-0.7945 2.386-1.9692 4.628-3.4786 6.6394-0.2014 0.2685-0.2879 0.6061-0.2405 0.9384 0.0475 0.3322 0.225 0.6321 0.4935 0.8335z"/>
<path d="m28.603 42.019c-0.2685-0.2014-0.606-0.2879-0.9383-0.2404-0.3323 0.0474-0.6321 0.2249-0.8335 0.4935-2.6208 3.5094-4.041 7.77-4.0501 12.15 0 0.3356 0.1334 0.6576 0.3707 0.8949 0.2374 0.2374 0.5593 0.3707 0.895 0.3707 0.3356 0 0.6576-0.1333 0.8949-0.3707 0.2374-0.2373 0.3707-0.5593 0.3707-0.8949 0.0079-3.8325 1.2506-7.5605 3.5438-10.631 0.2014-0.2685 0.2878-0.606 0.2404-0.9383-0.0475-0.3323-0.225-0.6321-0.4936-0.8335z"/>
<path d="m37.969 16.453c0.6989 0 1.2656-0.5666 1.2656-1.2656s-0.5667-1.2656-1.2656-1.2656c-0.699 0-1.2657 0.5666-1.2657 1.2656s0.5667 1.2656 1.2657 1.2656z"/>
<path d="m43.031 41.766c0.699 0 1.2657-0.5666 1.2657-1.2656s-0.5667-1.2656-1.2657-1.2656c-0.6989 0-1.2656 0.5666-1.2656 1.2656s0.5667 1.2656 1.2656 1.2656z"/>
</svg>
