<?xml version="1.0" encoding="UTF-8"?>
<svg fill="none" viewBox="0 0 51 42" xmlns="http://www.w3.org/2000/svg">
<path d="m0.4625 8.6 5-6.8c2-0.80001 3.9333-1.2 5.8-1.2 1.0667 0 2.2667 0.2 3.6 0.6 1.2 0.53334 2.3333 1.2 3.4 2 1.0667 0.93334 2 2.0667 2.8 3.4 0.6667 1.3333 1 2.8667 1 4.6 0 2-0.2 4.0667-0.6 6.2s-1.1333 4.4667-2.2 7c-1.2 2.5333-2.8 5.2-4.8 8-2.1333 2.8-4.8667 5.8667-8.2 9.2h-1c-0.40001 0.1333-0.73334 0.2-1 0.2-2.2667 0-3.5333-1-3.8-3 0.13333-0.5333 0.53333-1.3333 1.2-2.4 0.53333-1.0667 1.2-2.1333 2-3.2 0.66666-1.0667 1.3333-2.0667 2-3 0.53334-0.8 0.86667-1.2667 1-1.4 1.4667-2.6667 2.4667-5.6667 3-9h-1c-0.8 0-1.6-0.1333-2.4-0.4-0.93334-0.1333-1.8-0.6-2.6-1.4-0.8-0.8-1.4667-1.9333-2-3.4-0.66667-1.4667-1.0667-3.4667-1.2-6zm28 0 5-6.8c2-0.80001 3.9333-1.2 5.8-1.2 1.0667 0 2.2667 0.2 3.6 0.60001 1.2 0.53333 2.3333 1.2 3.4 2 1.0667 0.93334 2 2.0667 2.8 3.4 0.6667 1.3333 1 2.8667 1 4.6 0 2-0.2 4.0667-0.6 6.2s-1.1333 4.4667-2.2 7c-1.2 2.5333-2.8 5.2-4.8 8-2.1333 2.8-4.8667 5.8667-8.2 9.2h-1c-0.4 0.1333-0.7333 0.2-1 0.2-2.2667 0-3.5333-1-3.8-3 0.1333-0.5333 0.5333-1.3333 1.2-2.4 0.5333-1.0667 1.2-2.1333 2-3.2 0.6667-1.0667 1.3333-2.0667 2-3 0.5333-0.8 0.8667-1.2667 1-1.4 1.4667-2.6667 2.4667-5.6667 3-9h-1c-0.8 0-1.6-0.1333-2.4-0.4-0.9333-0.1333-1.8-0.6-2.6-1.4s-1.4667-1.9333-2-3.4c-0.6667-1.4667-1.0667-3.4667-1.2-6z" fill="#DBDBDB"/>
</svg>
