<?xml version="1.0" encoding="UTF-8"?>
<svg fill="none" viewBox="0 0 14 13" xmlns="http://www.w3.org/2000/svg">
<path d="m13.71 6.3935-6.361-6.2511c-0.0458-0.04513-0.1002-0.080935-0.16009-0.10536-0.05989-0.02443-0.12409-0.037004-0.18892-0.037004-0.06484 0-0.12903 0.012575-0.18892 0.037004-0.05989 0.02443-0.11429 0.060234-0.16009 0.10536l-6.361 6.2511c-0.18532 0.18225-0.29033 0.42981-0.29033 0.68799 0 0.53611 0.44321 0.97199 0.98835 0.97199h0.67022v4.4605c0 0.2688 0.22084 0.486 0.49418 0.486h3.8592v-3.402h1.7296v3.402h4.1062c0.2734 0 0.4942-0.2172 0.4942-0.486v-4.4605h0.6702c0.2626 0 0.5143-0.10175 0.6996-0.28552 0.3845-0.37968 0.3845-0.99477-0.0015-1.3745z" fill="#FFBD54"/>
</svg>
