<?xml version="1.0" encoding="UTF-8"?>
<svg viewBox="0 0 76 76" xmlns="http://www.w3.org/2000/svg">
<path d="m74.672 60.752v13.922h-53.156l-1.8289-2.7432c-0.0923-0.1384-0.1565-0.2935-0.1888-0.4567-0.0323-0.1631-0.0321-0.3311 5e-4 -0.4942 0.0326-0.163 0.097-0.3181 0.1896-0.4563 0.0926-0.1381 0.2115-0.2567 0.3499-0.3489l2.7433-1.8288v-5.0625l-4.012-10.028-1.0505-2.6278-1.4238-2.8476-2.1991-4.3965c-1.7786-3.5591-2.7047-7.4831-2.7052-11.462v-8.4259l-6.2459-1.7846c-0.77541-0.2213-1.4686-0.6659-1.9932-1.2783-0.52463-0.6124-0.85754-1.3656-0.95729-2.1658l-0.31482-2.5186-0.61383-4.909h8.8594l1.6374-3.2748c1.0127-2.025 2.6058-3.7023 4.576-4.8179s4.2282-1.6188 6.4856-1.4454l4.8236 0.37178c1.2439 0.0956 2.4498 0.47288 3.5264 1.1033s1.9957 1.4974 2.6878 2.5354l5.3726 8.0588 3.4315 5.6084c3.5878 5.8601 8.2322 11.003 13.697 15.168l8.2424 6.2791c3.1292 2.3845 5.6657 5.4594 7.4117 8.985 1.7461 3.5256 2.6546 7.4067 2.6548 11.341z" fill="#F3AF3E"/>
<path d="m24.859 9.994-1.1021 7.1632c-0.2832 1.841 0.0252 3.7244 0.8808 5.3789s2.2142 2.9948 3.8802 3.8278c1.2216 0.6108 2.5687 0.9288 3.9345 0.9288h1.72v-16.937c0-0.51438-0.1197-1.0217-0.3498-1.4818-0.2751-0.55045-0.6981-1.0134-1.2215-1.337-0.5235-0.32357-1.1267-0.49498-1.7421-0.49501h-2.56c-0.8315 2e-5 -1.6354 0.29766-2.2664 0.83906-0.6309 0.54139-1.0473 1.2908-1.1736 2.1125z" fill="#C38325"/>
<path d="m60.632 67.617c-0.1023 0.2178-0.2645 0.402-0.4676 0.5312-0.2031 0.1291-0.4387 0.1978-0.6794 0.1981h-10.392c-0.9358 0.0012-1.8328 0.3734-2.4945 1.0351-0.6616 0.6616-1.0339 1.5587-1.035 2.4944v2.7986h-2.5313v-2.7986c0.0015-1.6069 0.6405-3.1476 1.7768-4.2839s2.677-1.7753 4.284-1.7768h7.695c-3.1663-3.9497-4.8932-8.8598-4.8964-13.922 0-0.3357 0.1333-0.6576 0.3707-0.895 0.2373-0.2373 0.5592-0.3707 0.8949-0.3707s0.6576 0.1334 0.8949 0.3707c0.2374 0.2374 0.3707 0.5593 0.3707 0.895 0.0029 4.6098 1.6187 9.0733 4.5674 12.617l1.4681 1.7608c0.1535 0.1849 0.2514 0.4096 0.2822 0.6479s-0.0067 0.4805-0.1082 0.6984z" fill="#C38325"/>
<path d="m68.344 32.909c0 0.4255-0.0126 0.8464-0.0395 1.2656-0.0269 0.4256-0.067 0.8474-0.1202 1.2656-0.274 2.2183-0.9178 4.3749-1.9048 6.3804-1.2867 2.6217-3.1243 4.9346-5.3873 6.7806s-4.8979 3.1816-7.7246 3.9155c-0.0034 0.0018-0.0072 0.0028-0.0111 0.0031-2.7853 0.7193-5.6919 0.8367-8.5262 0.3446s-5.5312-1.5824-7.9111-3.1985c-2.3799-1.616-4.3881-3.7206-5.8909-6.1735-1.5028-2.453-2.4657-5.198-2.8245-8.0522-0.0538-0.4176-0.0939-0.8395-0.1202-1.2656-0.0269-0.4192-0.0396-0.8401-0.0396-1.2656 4e-4 -4.368 1.413-8.6188 4.027-12.118 2.6141-3.4994 6.2896-6.0598 10.478-7.2993 4.1885-1.2394 8.6654-1.0915 12.763 0.4219 4.0975 1.5133 7.5958 4.3108 9.9732 7.9752 0.291 0.4477 0.5647 0.9076 0.821 1.3796 1.605 2.9596 2.4432 6.2741 2.4379 9.6409z" fill="#C0F5F9"/>
<path d="m6.3282 10.839v1.079c1.4e-4 0.7762-0.25916 1.5303-0.73671 2.1423-0.47755 0.6119-1.1459 1.0468-1.899 1.2353l-1.813 0.4525-0.61383-4.9091h5.0625z" fill="#C38325"/>
<path d="m17.719 12.105c1.3979 0 2.5312-1.1333 2.5312-2.5312 0-1.398-1.1333-2.5313-2.5312-2.5313-1.398 0-2.5313 1.1333-2.5313 2.5313 0 1.3979 1.1333 2.5312 2.5313 2.5312z" fill="#C38325"/>
<path d="m44.297 59.487h7.5938v15.188h-7.5938v-15.188z" fill="#428DC5"/>
<path d="m68.304 34.174c-0.0269 0.4256-0.067 0.8474-0.1202 1.2656-0.274 2.2183-0.9178 4.3749-1.9048 6.3804-1.2867 2.6217-3.1243 4.9346-5.3873 6.7806s-4.8979 3.1816-7.7246 3.9155c-0.0034 0.0018-0.0072 0.0028-0.0111 0.0031-2.7853 0.7193-5.6919 0.8367-8.5262 0.3446s-5.5312-1.5824-7.9111-3.1985c-2.3799-1.616-4.3881-3.7206-5.8909-6.1735-1.5028-2.453-2.4657-5.198-2.8245-8.0522-0.0538-0.4176-0.0939-0.8395-0.1202-1.2656h40.421z" fill="#EEB58E"/>
<path d="m40.5 37.971h2.5312v2.5312h-2.5312v-2.5312z" fill="#F55648"/>
<path d="m40.5 44.299h2.5312v2.5313h-2.5312v-2.5313z" fill="#B94137"/>
<path d="m51.891 44.299h2.5312v2.5313h-2.5312v-2.5313z" fill="#F55648"/>
<path d="m56.953 44.299h2.5313v2.5313h-2.5313v-2.5313z" fill="#F55648"/>
<path d="m54.422 40.502h2.5312v2.5313h-2.5312v-2.5313z" fill="#B94137"/>
<path d="m30.005 69.242-1.7987 1.7972 1.9569 2.9331c0.1386 0.208 0.2124 0.4525 0.212 0.7024h-2.7875l-1.4871-2.2322c-0.3229-0.4872-0.4678-1.0709-0.4102-1.6526 0.0577-0.5817 0.3143-1.1256 0.7266-1.54l1.427-1.4269v-6.5022l-9.0746-8.0652-1.0504-2.6278-1.4239-2.8476c0.1444 0.0542 0.2774 0.1346 0.3924 0.2373l13.262 11.789c0.1338 0.1186 0.2409 0.2643 0.3142 0.4274 0.0734 0.1631 0.1113 0.3398 0.1113 0.5187v7.5937c2e-4 0.3357-0.133 0.6578-0.3702 0.8954z" fill="#C38325"/>
<path d="m37.969 58.221v16.453h-2.5313v-16.07l-2.3192-3.4773c-0.1863-0.2794-0.254-0.6214-0.1881-0.9508 0.0659-0.3293 0.2599-0.619 0.5393-0.8053s0.6214-0.2539 0.9508-0.188c0.3293 0.0658 0.619 0.2598 0.8053 0.5393l2.5312 3.7968c0.1379 0.2084 0.2116 0.4526 0.212 0.7025z" fill="#C38325"/>
<path d="m68.304 34.174c-0.0269 0.4256-0.067 0.8474-0.1202 1.2656h-40.18l-0.1202-1.2656h40.421z" fill="#BD9070"/>
<path d="m54.32 18.987c-4.1464 5.8051-6.7014 12.594-7.4113 19.693l-0.0679 0.6778c-0.0358 0.3579 0.0084 0.7194 0.1294 1.0581 0.1209 0.3388 0.3157 0.6465 0.57 0.9009 0.2256 0.2255 0.4933 0.4045 0.788 0.5265 0.2946 0.1221 0.6105 0.1849 0.9294 0.1849 0.319 0 0.6348-0.0628 0.9295-0.1849 0.2946-0.122 0.5624-0.301 0.7879-0.5265l0.1025-0.1024c0.2256-0.2255 0.4046-0.4932 0.5268-0.7879 0.1221-0.2947 0.185-0.6105 0.1851-0.9295v-5.3522c0-3.3423 0.4099-6.672 1.2206-9.9146l1.31-5.2428z" fill="#744630"/>
<path d="m65.906 23.268-0.2404 0.9619c-0.8114 3.2424-1.2216 6.5722-1.2214 9.9146v5.352c-3e-4 0.6441-0.2557 1.2618-0.7103 1.7181l-0.1028 0.1012c-0.3542 0.3543-0.8093 0.5903-1.3029 0.6758-0.4936 0.0854-1.0015 0.0162-1.4542-0.1983s-0.828-0.5637-1.0745-0.9998-0.3521-0.9378-0.3023-1.4362l0.0665-0.6771c0.593-5.9331 2.4775-11.664 5.5213-16.792 0.2911 0.4477 0.5647 0.9075 0.821 1.3795z" fill="#744630"/>
<path d="m39.132 18.987c-4.1464 5.8051-6.7014 12.594-7.4113 19.693l-0.0679 0.6778c-0.0358 0.3579 0.0084 0.7194 0.1294 1.0581 0.1209 0.3388 0.3156 0.6465 0.57 0.9009 0.2256 0.2255 0.4933 0.4045 0.788 0.5265 0.2946 0.1221 0.6105 0.1849 0.9294 0.1849 0.319 0 0.6348-0.0628 0.9295-0.1849 0.2946-0.122 0.5624-0.301 0.7879-0.5265l0.1025-0.1024c0.2256-0.2255 0.4046-0.4932 0.5268-0.7879 0.1221-0.2947 0.185-0.6105 0.1851-0.9295v-5.3522c0-3.3423 0.4099-6.672 1.2206-9.9146l1.31-5.2428z" fill="#744630"/>
<path d="m69.61 32.909c0-11.864-9.652-21.516-21.516-21.516-11.864 0-21.516 9.6518-21.516 21.516 0 10.12 7.0242 18.63 16.453 20.913v5.6656h10.125v-5.6656c9.4289-2.2829 16.453-10.792 16.453-20.913zm-21.516 18.984c-3.7547 0-7.4252-1.1134-10.547-3.1994-3.122-2.086-5.5553-5.051-6.9922-8.5199-1.4369-3.469-1.8128-7.2861-1.0803-10.969s2.5406-7.0653 5.1956-9.7203c2.655-2.6551 6.0377-4.4631 9.7204-5.1957 3.6826-0.7325 7.4997-0.3565 10.969 1.0804 3.469 1.4368 6.4339 3.8701 8.52 6.9921 2.086 3.122 3.1994 6.7924 3.1994 10.547-0.0057 5.0333-2.0076 9.8587-5.5667 13.418-3.559 3.559-8.3845 5.5609-13.418 5.5666z" fill="#428DC5"/>
<path d="m44.297 59.487h7.5938v2.5313h-7.5938v-2.5313z" fill="#3775A4"/>
<path d="m17.719 12.105c1.3979 0 2.5312-1.1333 2.5312-2.5312 0-1.398-1.1333-2.5313-2.5312-2.5313-1.398 0-2.5313 1.1333-2.5313 2.5313 0 1.3979 1.1333 2.5312 2.5313 2.5312z"/>
<path d="m40.5 37.971h2.5312v2.5312h-2.5312v-2.5312z"/>
<path d="m40.5 44.299h2.5312v2.5313h-2.5312v-2.5313z"/>
<path d="m51.891 44.299h2.5312v2.5313h-2.5312v-2.5313z"/>
<path d="m56.953 44.299h2.5313v2.5313h-2.5313v-2.5313z"/>
<path d="m54.422 40.502h2.5312v2.5313h-2.5312v-2.5313z"/>
<path d="m0.93858 18.424c0.1294 1.0469 0.56439 2.0325 1.2506 2.8336s1.5933 1.3823 2.6079 1.6709l5.3279 1.5223v7.4703c5e-3 4.1747 0.9768 8.2914 2.8393 12.028l3.5988 7.1982 4.9526 12.381v4.1415l-2.1802 1.4534c-0.2766 0.1844-0.5142 0.4214-0.6992 0.6976-0.1849 0.2762-0.3137 0.5861-0.3789 0.9121-0.0652 0.3259-0.0655 0.6615-1e-3 0.9876s0.1926 0.6363 0.377 0.9129l1.8293 2.7439c0.1155 0.1733 0.2721 0.3154 0.4558 0.4137 0.1837 0.0984 0.3888 0.1498 0.5972 0.1498h53.156c0.3356 0 0.6575-0.1334 0.8949-0.3707 0.2373-0.2374 0.3707-0.5593 0.3707-0.8949v-13.922c-0.0027-3.5859-0.7234-7.135-2.1196-10.438s-3.4396-6.2929-6.0097-8.7935c0.9668-2.203 1.5544-4.5536 1.7379-6.9524 0.0684-0.2073 0.0817-0.4288 0.0387-0.6428 0.0158-0.3371 0.0247-0.6761 0.0247-1.0172 0.0041-3.4061-0.8054-6.7639-2.3612-9.7939l0.9553-3.8211c0.0713-0.2858 0.0407-0.5876-0.0866-0.8533-0.1273-0.2658-0.3433-0.4787-0.6108-0.6023-0.2674-0.1235-0.5696-0.1498-0.8545-0.0744-0.2848 0.0754-0.5344 0.2478-0.7057 0.4875-0.3226 0.4517-0.6355 0.9094-0.9386 1.373-2.8375-3.6182-6.7603-6.2312-11.192-7.4554-4.4322-1.2241-9.14-0.9949-13.432 0.6541l-0.069-0.1126c-0.0083-0.014-0.0172-0.0279-0.0264-0.0415l-5.3719-8.0587c-0.7953-1.2008-1.855-2.2036-3.0978-2.9314-1.2429-0.72781-2.6359-1.1613-4.0723-1.2673l-4.8239-0.37162c-2.5094-0.19946-5.021 0.35675-7.2115 1.597-2.1905 1.2403-3.9597 3.1078-5.0797 5.3622l-1.2874 2.5748h-8.0772c-0.17957-1e-5 -0.35709 0.03818-0.52076 0.11205-0.16367 0.07388-0.30975 0.18173-0.42853 0.31644-0.11878 0.1346-0.20754 0.293-0.26039 0.4647-0.052848 0.1716-0.068572 0.3525-0.046125 0.5306l0.92865 7.4264zm26.905 49.398-1.427 1.4268c-0.4126 0.4145-0.6694 0.9587-0.7271 1.5407-0.0576 0.5819 0.0874 1.166 0.4107 1.6533l0.6442 0.9658h-4.5517l-1.4534-2.1802 2.7439-1.8293c0.1733-0.1155 0.3155-0.2721 0.4138-0.4558s0.1497-0.3888 0.1497-0.5972v-5.0625c0-0.161-0.0307-0.3205-0.0905-0.47l-3.0713-7.6785 6.9587 6.1857v6.5012zm22.781 5.5866h-5.0625v-12.656h5.0625v12.656zm1.2656-15.188h-7.5938v-4.1324c2.5115 0.4474 5.0823 0.4474 7.5938 0v4.1324zm14.388-30.764c0.531 1.7684 0.8002 3.6051 0.7991 5.4515h-1.3485c0.0573-1.8277 0.2408-3.6492 0.5494-5.4515zm-0.5695 12.039v-4.0565h1.1988c-0.2144 1.6029-0.6344 3.1715-1.2498 4.667 0.034-0.2017 0.0512-0.4059 0.0516-0.6105h-6e-4zm0.8815 4.3889c4.3676 4.5294 6.8104 10.575 6.8152 16.867v12.656h-20.25v-5.0625h6.3281c0.2406 1e-4 0.4762-0.0685 0.6792-0.1976s0.365-0.3133 0.4671-0.5312c0.102-0.2178 0.1399-0.4603 0.1091-0.6989-0.0309-0.2385-0.129-0.4634-0.283-0.6482l-1.4669-1.76c-2.6157-3.1264-4.1897-6.9915-4.5023-11.056 5.0744-1.5923 9.3838-4.9993 12.104-9.5693h-6e-4zm-13.435 21.93v-5.0625c0.1792-1e-4 0.3562-0.0384 0.5194-0.1123 0.7967 1.8584 1.8435 3.5995 3.1112 5.1748h-3.6306zm11.472-23.706c0.0578-0.0577 0.1128-0.1178 0.1662-0.1787-1.6048 2.973-3.9742 5.4637-6.8635 7.2148-2.8892 1.7512-6.1936 2.6992-9.5717 2.7463-3.3782 0.0471-6.7077-0.8085-9.6446-2.4785-2.9369-1.6699-5.3748-4.0937-7.0618-7.0208 0.7059 0.6114 1.6172 0.9326 2.5504 0.8991 0.9333-0.0336 1.8191-0.4196 2.4792-1.0801l0.1021-0.1021c0.3441-0.3422 0.617-0.7493 0.8028-1.1977 0.1858-0.4485 0.2807-0.9293 0.2794-1.4147v-4.0565h8.2133c-0.1816 1.0306-0.3252 2.0684-0.4309 3.1135l-0.0679 0.6779c-0.0759 0.7583 0.0846 1.5216 0.4595 2.1852 0.3749 0.6635 0.9459 1.1949 1.6346 1.5212 0.6888 0.3264 1.4616 0.4317 2.2125 0.3016 0.751-0.1301 1.4433-0.4892 1.9821-1.0283l0.1021-0.102c0.3442-0.3422 0.617-0.7494 0.8028-1.1978s0.2808-0.9292 0.2795-1.4146v-4.0567h5.682c-0.1816 1.0306-0.3253 2.0684-0.431 3.1135l-0.0678 0.6779c-0.0759 0.7583 0.0846 1.5216 0.4595 2.1852 0.3749 0.6635 0.9458 1.1949 1.6346 1.5212 0.6887 0.3264 1.4615 0.4317 2.2125 0.3016 0.7509-0.1301 1.4433-0.4892 1.9821-1.0283l0.102-0.1022zm-31.716-2.6261 0.0679-0.6779c0.3936-3.9235 1.3704-7.7663 2.8981-11.402-0.3611 2.229-0.5426 4.4835-0.5428 6.7415v5.3522c4e-4 0.1529-0.0296 0.3043-0.0881 0.4456-0.0586 0.1412-0.1447 0.2694-0.2532 0.3771l-0.102 0.1022c-0.1697 0.1696-0.3876 0.2826-0.624 0.3235s-0.4797 0.0077-0.6965-0.095-0.3965-0.27-0.5146-0.4789c-0.118-0.2088-0.1686-0.449-0.1448-0.6878v-9e-4zm15.188 0 0.0679-0.6779c0.3936-3.9235 1.3704-7.7663 2.8981-11.402-0.3611 2.229-0.5426 4.4835-0.5428 6.7415v5.3522c4e-4 0.1529-0.0296 0.3043-0.0881 0.4456-0.0586 0.1412-0.1446 0.2694-0.2531 0.3771l-0.1021 0.1022c-0.1697 0.1696-0.3876 0.2826-0.624 0.3235s-0.4797 0.0077-0.6965-0.095-0.3965-0.27-0.5146-0.4789c-0.118-0.2088-0.1686-0.449-0.1448-0.6878v-9e-4zm15.08-5.3391v5.3522c4e-4 0.1529-0.0296 0.3043-0.0882 0.4456-0.0585 0.1412-0.1446 0.2694-0.2531 0.3771l-0.102 0.1022c-0.1697 0.1696-0.3877 0.2826-0.6241 0.3235s-0.4796 0.0077-0.6964-0.095c-0.2168-0.1028-0.3966-0.27-0.5146-0.4789-0.1181-0.2088-0.1686-0.4491-0.1448-0.6878l0.0678-0.6779c0.3937-3.9234 1.3705-7.7662 2.8982-11.401-0.3611 2.2289-0.5427 4.4831-0.5428 6.7411v-7e-4zm-25.124-20.26c-0.9106 0.4825-1.7853 1.0296-2.6177 1.6372v-5.1645c0-0.1445-0.0087-0.2889-0.0226-0.43286l2.6403 3.9602zm10.039 0.0408c3.0362 5e-4 6.028 0.7296 8.724 2.1262 2.696 1.3965 5.0175 3.4196 6.7695 5.8993-1.9462 3.4331-3.4017 7.1219-4.3243 10.959h-6.1896c0.0884-2.8241 0.4783-5.6307 1.1631-8.372l1.3107-5.243c0.0714-0.2858 0.0408-0.5876-0.0865-0.8533-0.1273-0.2658-0.3433-0.4787-0.6108-0.6023-0.2675-0.1235-0.5697-0.1498-0.8545-0.0744s-0.5344 0.2478-0.7057 0.4875c-3.148 4.4115-5.417 9.3879-6.683 14.658h-8.7208c0.0884-2.8241 0.4783-5.6307 1.1631-8.372l1.3107-5.243c0.0714-0.2858 0.0408-0.5876-0.0865-0.8533-0.1273-0.2658-0.3433-0.4787-0.6108-0.6023-0.2675-0.1235-0.5697-0.1498-0.8545-0.0744s-0.5344 0.2478-0.7057 0.4875c-3.148 4.4115-5.417 9.3879-6.683 14.658h-2.3098c0.0057-5.0332 2.0077-9.8587 5.5667-13.418s8.3845-5.561 13.418-5.5667zm-17.715 25.808c-0.5343-1.3823-0.9034-2.8229-1.0999-4.2919h1.6137c-0.1816 1.0306-0.3253 2.0684-0.4309 3.1135l-0.0679 0.6779c-0.0162 0.1663-0.0212 0.3335-0.015 0.5005zm-2.1768-15.018c-1.1747-0.7992-2.0986-1.9153-2.664-3.2188-0.5655-1.3035-0.7493-2.7407-0.5302-4.1445l1.102-7.1631c0.0779-0.52415 0.3421-1.0027 0.7441-1.3478 0.4021-0.34517 0.9151-0.53386 1.445-0.53149h2.56c0.3806-0.00127 0.7539 0.10412 1.0777 0.30422 0.3237 0.20009 0.5849 0.48689 0.754 0.82788 0.1418 0.28456 0.2157 0.59811 0.2161 0.91601v7.327c-2.0165 2.0104-3.6154 4.3998-4.7047 7.0306zm-20.616-12.609h2.5391c0.2351 0 0.4654-0.0655 0.6654-0.1891 0.1999-0.1235 0.3615-0.3003 0.4666-0.5105l1.6374-3.2748c0.8959-1.8034 2.3111-3.2974 4.0634-4.2896s3.7615-1.4372 5.7689-1.2777l4.8241 0.37178c1.0534 0.07765 2.075 0.39554 2.9864 0.92929 0.9114 0.53374 1.6885 1.2692 2.2716 2.1498l0.1946 0.29189c-0.6611-0.34876-1.3974-0.53044-2.1449-0.52919h-2.56c-1.1352-0.00529-2.2342 0.39867-3.0958 1.1378-0.8615 0.73918-1.4278 1.7641-1.5951 2.8868l-1.1021 7.1635c-0.3108 1.9916-0.0142 4.0307 0.851 5.8513s2.259 3.3383 3.9996 4.355c-0.5172 1.8686-0.7789 3.7986-0.7779 5.7374 0 0.3411 0.0088 0.6803 0.0246 1.0172-0.043 0.214-0.0296 0.4355 0.0388 0.6428 0.3397 4.3029 1.9627 8.4048 4.659 11.775s6.3419 5.8542 10.465 7.1301v6.0128c0 0.3357 0.1334 0.6576 0.3707 0.895 0.2374 0.2373 0.5593 0.3707 0.895 0.3707v12.656h-5.0627v-15.188c0-0.2499-0.074-0.4942-0.2126-0.7021l-2.5313-3.7969c-0.0918-0.1392-0.2101-0.2589-0.3484-0.3523-0.1382-0.0933-0.2934-0.1584-0.4569-0.1916-0.1634-0.0331-0.3318-0.0336-0.4955-0.0014-0.1636 0.0321-0.3193 0.0963-0.458 0.1888-0.1388 0.0925-0.2579 0.2116-0.3505 0.3503s-0.1569 0.2943-0.1891 0.4579c-0.0323 0.1636-0.0319 0.332 0.0011 0.4955 0.0331 0.1635 0.0981 0.3188 0.1913 0.457l2.3186 3.478v14.804h-5.6508l-1.579-2.37 1.7975-1.7975c0.237-0.2375 0.3701-0.5594 0.3698-0.895v-7.5937c0-0.1788-0.0379-0.3555-0.1111-0.5185s-0.1802-0.3087-0.3138-0.4274l-11.208-9.9632-3.5134-7.0267c-1.6871-3.3846-2.5675-7.1139-2.572-10.896v-8.4254c0-0.275-0.0895-0.5425-0.2551-0.762-0.1656-0.2196-0.3981-0.3793-0.6625-0.4549l-6.2467-1.7844c-0.53696-0.1527-1.017-0.4603-1.3801-0.8844-0.36314-0.424-0.59327-0.9456-0.66164-1.4997l-0.17544-1.4052 0.7252-0.1809c0.99576-0.2487 1.8838-0.8141 2.5305-1.6111 0.6467-0.797 1.0171-1.7824 1.0553-2.808zm-2.5312 0c-0.0382 0.4606-0.21972 0.8976-0.51908 1.2498-0.29936 0.3521-0.70151 0.6016-1.15 0.7135l-0.42715 0.1068-0.25914-2.0701h2.3553z"/>
</svg>
