<?xml version="1.0" encoding="UTF-8"?>
<svg fill="none" viewBox="0 0 1440 308" xmlns="http://www.w3.org/2000/svg">
<mask id="a" x="0" y="0" width="1440" height="308" style="mask-type:alpha" maskUnits="userSpaceOnUse">
<rect width="1440" height="308" rx="5" fill="#78C0DE"/>
</mask>
<g mask="url(#a)">
<rect width="1444" height="308" rx="5" fill="#78C0DE"/>
<g fill="#fff" opacity=".1">
<path d="m1348.9 201.4c-21.66-11.209-47.19-10.628-68.29 1.557-21.11 12.185-34.38 34.005-35.5 58.365l-2.7 58.703c-0.45 9.739 2.19 19.167 7.63 27.26 5.45 8.094 13.18 14.092 22.37 17.352 9.2 3.252 18.98 3.454 28.3 0.585 9.31-2.868 17.28-8.542 23.05-16.405l0.38-0.529c14.61-19.613 36.88-32.366 61.21-35.028 6.27-0.687 12.21-2.634 17.56-5.723 2.91-1.679 5.65-3.699 8.16-6.034 7.15-6.632 11.86-15.205 13.65-24.795 1.77-9.587 0.45-19.287-3.84-28.052-4.29-8.764-11.13-15.764-19.79-20.248l-52.19-27.008z"/>
<path d="m1224.8 271.59c6.32-7.814 8.72-17.925 6.74-28.472-1.88-10.037-7.56-19.316-15.99-26.129-8.43-6.807-18.7-10.408-28.91-10.145-10.73 0.279-20.12 4.737-26.43 12.549-12.7 15.699-8.55 40.186 9.26 54.595 14.19 11.457 32.83 13.104 46.24 5.362 3.42-1.977 6.51-4.567 9.09-7.76z"/>
<path d="m1258.2 207.54c20.7-11.952 26.74-40.386 13.46-63.384-13.28-23.004-40.92-31.994-61.63-20.042-20.7 11.951-26.73 40.387-13.45 63.391 13.28 22.998 40.92 31.986 61.62 20.035z"/>
<path d="m1328.5 181.57v-1e-3c3.74-0.756 7.23-2.098 10.41-3.935 14.85-8.571 23-27.862 18.82-47.857-2.41-11.511-8.52-21.62-17.22-28.464-9.1-7.1663-19.91-9.9436-30.43-7.821-10.52 2.1237-19.34 8.862-24.83 18.97-5.24 9.657-6.8 21.315-4.39 32.824 5.08 24.279 26.45 40.556 47.64 36.284z"/>
<path d="m1403.8 130.88-0.01-2e-3c-20.09-2.216-38.6 14.459-41.26 37.179-2.64 22.721 11.54 43.025 31.62 45.261 7.32 0.817 14.44-0.879 20.65-4.467 10.83-6.252 18.93-18.253 20.62-32.707 2.65-22.72-11.54-43.025-31.62-45.264z"/>
</g>
<g fill="#fff" opacity=".1">
<path d="m208.09 270.9c-4.256-13.386-14.89-23.547-28.448-27.18-13.557-3.633-27.847-0.15-38.225 9.315l-25.009 22.806c-4.149 3.783-6.913 8.699-7.992 14.211-1.08 5.514-0.372 11.107 2.044 16.178 2.42 5.068 6.322 9.135 11.284 11.761s10.52 3.561 16.07 2.707l0.372-0.058c13.937-2.039 28.199 1.835 39.191 10.659 2.835 2.276 6.049 3.903 9.486 4.824 1.868 0.501 3.804 0.792 5.78 0.867 5.61 0.208 11.023-1.363 15.654-4.543 4.629-3.18 8.039-7.671 9.863-12.986 1.823-5.316 1.887-10.954 0.186-16.307l-10.256-32.254z"/>
<path d="m128.97 248.94c5.759-0.605 10.852-3.747 14.342-8.848 3.322-4.853 4.789-10.945 4.13-17.154-0.662-6.205-3.377-11.853-7.644-15.906-4.483-4.255-10.122-6.264-15.873-5.653-11.568 1.22-19.852 12.882-18.466 26.004 1.116 10.448 8.035 18.708 16.649 21.017 2.2 0.589 4.51 0.79 6.862 0.54z"/>
<path d="m168.66 236.46c13.299 3.564 27.339-5.557 31.297-20.331 3.96-14.777-3.638-29.698-16.937-33.261-13.297-3.563-27.336 5.56-31.296 20.337-3.959 14.774 3.639 29.692 16.936 33.255z"/>
<path d="m207.86 254.51h1e-3c1.831 1.215 3.796 2.088 5.84 2.636 9.537 2.555 20.715-1.98 27.154-11.827 3.708-5.668 5.335-12.276 4.58-18.605-0.789-6.626-4.058-12.157-9.207-15.578-5.151-3.42-11.485-4.266-17.837-2.384-6.068 1.797-11.45 5.91-15.156 11.579-7.818 11.957-5.744 27.29 4.625 34.179z"/>
<path d="m259.2 264.57-2e-3 -5e-3c-7.281-9.085-21.61-9.832-31.946-1.662-10.33 8.177-12.821 22.223-5.555 31.31 2.649 3.316 6.238 5.523 10.23 6.593 6.957 1.864 15.141 0.273 21.719-4.923 10.328-8.177 12.821-22.223 5.554-31.313z"/>
</g>
<g fill="#fff" opacity=".1">
<path d="m39.784 178.46c5.0211-9.273 4.9768-20.315-0.12-29.537-5.0967-9.223-14.422-15.135-24.945-15.817l-25.356-1.644c-4.2065-0.273-8.3039 0.793-11.846 3.08-3.5433 2.287-6.199 5.583-7.6826 9.53-1.4802 3.948-1.6467 8.176-0.4821 12.227 1.1646 4.05 3.5532 7.542 6.9055 10.099l0.2255 0.17c8.3608 6.474 13.694 16.203 14.647 26.742 0.24635 2.718 1.0401 5.304 2.332 7.641 0.70239 1.271 1.5534 2.47 2.5424 3.577 2.8092 3.142 6.4775 5.25 10.609 6.098 4.1298 0.847 8.3342 0.352 12.158-1.431 3.8236-1.782 6.9052-4.684 8.9139-8.392l12.098-22.343z"/>
<path d="m10.445 124.25c3.3265 2.798 7.6782 3.916 12.254 3.146 4.3543-0.731 8.4118-3.111 11.425-6.701 3.0106-3.59 4.6509-7.999 4.6195-12.417-0.0338-4.64-1.8849-8.7353-5.2107-11.527-6.684-5.6194-17.304-4.0243-23.677 3.5586-5.0678 6.045-5.9306 14.088-2.6922 19.948 0.82691 1.496 1.9214 2.85 3.2811 3.992z"/>
<path d="m37.865 139.21c4.9993 9.046 17.243 11.888 27.292 6.334 10.052-5.556 14.163-17.435 9.1633-26.481-4.9988-9.045-17.244-11.885-27.296-6.33-10.05 5.554-14.159 17.432-9.16 26.477z"/>
<path d="m48.522 169.8 4e-4 1e-3c0.2966 1.622 0.8485 3.14 1.6168 4.53 3.5854 6.488 11.859 10.169 20.537 8.523 4.9957-0.948 9.4157-3.509 12.445-7.214 3.1716-3.877 4.4598-8.526 3.6273-13.091-0.8329-4.567-3.6743-8.432-8.0001-10.886-4.1323-2.345-9.1593-3.113-14.154-2.164-10.537 2-17.747 11.107-16.072 20.301z"/>
<path d="m69.824 202.8 0.0011-4e-3c1.1206-8.668-5.9383-16.805-15.739-18.138-9.8011-1.327-18.694 4.642-19.823 13.303-0.4128 3.159 0.2629 6.249 1.7636 8.964 2.6153 4.733 7.7378 8.329 13.973 9.18 9.8006 1.326 18.693-4.642 19.824-13.305z"/>
</g>
<g fill="#fff" opacity=".1">
<path d="m352.68 189.35c-3.04-1.96-6.817-2.234-10.104-0.733-3.287 1.502-5.553 4.536-6.062 8.116l-1.227 8.628c-0.203 1.431 0.054 2.86 0.743 4.131 0.69 1.272 1.747 2.266 3.058 2.877 1.311 0.61 2.753 0.777 4.168 0.485 1.416-0.292 2.673-1.017 3.635-2.097l0.064-0.072c2.433-2.69 5.9-4.259 9.528-4.309 0.936-0.013 1.841-0.216 2.674-0.597 0.453-0.207 0.886-0.466 1.29-0.776 1.148-0.878 1.965-2.077 2.363-3.468 0.398-1.39 0.339-2.84-0.17-4.195-0.51-1.354-1.421-2.484-2.637-3.268l-7.323-4.722z"/>
<path d="m333.38 197.96c1.044-1.065 1.54-2.523 1.397-4.108-0.136-1.508-0.844-2.958-1.992-4.083-1.149-1.123-2.614-1.8-4.125-1.905-1.588-0.11-3.037 0.416-4.079 1.48-2.096 2.138-1.829 5.812 0.597 8.19 1.935 1.891 4.662 2.397 6.751 1.443 0.533-0.244 1.025-0.582 1.451-1.017z"/>
<path d="m339.21 188.98c3.224-1.473 4.517-5.585 2.881-9.167-1.637-3.583-5.591-5.3-8.815-3.827-3.225 1.472-4.516 5.585-2.88 9.168 1.636 3.582 5.59 5.299 8.814 3.826z"/>
<path d="m349.95 186.13c0.563-0.059 1.096-0.208 1.592-0.434 2.312-1.056 3.788-3.789 3.452-6.8-0.193-1.733-0.953-3.311-2.141-4.444-1.242-1.186-2.798-1.749-4.381-1.584-1.584 0.166-2.98 1.036-3.932 2.451-0.91 1.352-1.305 3.051-1.111 4.783 0.408 3.656 3.333 6.36 6.521 6.028z"/>
<path d="m361.79 179.71h-2e-3c-2.934-0.61-5.902 1.59-6.615 4.907-0.71 3.317 1.098 6.514 4.03 7.127 1.07 0.224 2.144 0.074 3.112-0.369 1.687-0.77 3.051-2.427 3.505-4.537 0.71-3.317-1.097-6.514-4.03-7.128z"/>
</g>
<g fill="#fff" opacity=".05">
<path d="m360.84 162.96c-0.166-3.613-2.134-6.849-5.264-8.656-3.129-1.807-6.915-1.893-10.127-0.23l-7.739 4.005c-1.284 0.664-2.299 1.703-2.935 3.002s-0.833 2.737-0.57 4.159c0.264 1.422 0.964 2.693 2.023 3.677s2.379 1.587 3.816 1.744l0.097 0.01c3.601 0.422 6.89 2.336 9.036 5.263 0.553 0.755 1.244 1.374 2.037 1.832 0.432 0.249 0.894 0.45 1.38 0.6 1.382 0.426 2.833 0.396 4.196-0.086 1.363-0.483 2.511-1.372 3.318-2.573 0.808-1.2 1.2-2.598 1.133-4.043l-0.401-8.704z"/>
<path d="m342.62 152.23c1.472 0.234 2.949-0.208 4.156-1.244 1.15-0.986 1.921-2.403 2.171-3.991 0.248-1.588-0.05-3.173-0.841-4.465-0.832-1.358-2.1-2.233-3.571-2.464-2.959-0.468-5.796 1.881-6.326 5.236-0.418 2.673 0.752 5.189 2.741 6.337 0.507 0.293 1.068 0.497 1.67 0.591z"/>
<path d="m353.32 151.77c3.07 1.773 7.17 0.44 9.139-2.97 1.969-3.412 1.074-7.629-1.996-9.401s-7.169-0.439-9.139 2.972c-1.969 3.411-1.073 7.627 1.996 9.399z"/>
<path d="m361.87 158.87h1e-3c0.374 0.424 0.805 0.772 1.276 1.044 2.202 1.272 5.284 0.888 7.542-1.131 1.299-1.163 2.144-2.698 2.378-4.322 0.246-1.701-0.199-3.294-1.251-4.488-1.053-1.194-2.572-1.826-4.277-1.782-1.629 0.043-3.242 0.707-4.541 1.87-2.742 2.453-3.247 6.405-1.128 8.809z"/>
<path d="m373.97 164.79-1e-3 -1e-3c-1.205-2.745-4.719-3.886-7.834-2.543-3.114 1.346-4.669 4.673-3.468 7.417 0.438 1.001 1.184 1.789 2.105 2.321 1.606 0.927 3.747 1.077 5.729 0.223 3.114-1.345 4.67-4.672 3.469-7.417z"/>
</g>
<g fill="#fff" opacity=".05">
<path d="m627.9 50.723c0.774-3.5326-0.289-7.1674-2.844-9.7227-2.555-2.5554-6.19-3.6184-9.722-2.8439l-8.513 1.8657c-1.412 0.3094-2.661 1.0497-3.611 2.1398-0.951 1.0903-1.513 2.4285-1.627 3.8703-0.113 1.4416 0.233 2.8507 1.002 4.075 0.768 1.2244 1.887 2.1484 3.235 2.6726l0.09 0.0348c3.37 1.3394 6.051 4.0395 7.366 7.422 0.34 0.8724 0.847 1.6491 1.494 2.2968 0.353 0.3522 0.747 0.6664 1.178 0.9374 1.224 0.7686 2.633 1.1152 4.075 1.0022 1.442-0.1131 2.78-0.6754 3.871-1.6259s1.831-2.1994 2.141-3.6121l1.865-8.512z"/>
<path d="m613.08 35.642c1.362 0.6064 2.903 0.5616 4.338-0.1265 1.365-0.6546 2.476-1.8241 3.129-3.2934 0.651-1.4688 0.773-3.0777 0.343-4.5306-0.452-1.526-1.451-2.6999-2.812-3.304-2.736-1.2172-6.084 0.3168-7.465 3.4211-1.096 2.4733-0.617 5.2058 1.007 6.8295 0.415 0.4146 0.904 0.7568 1.46 1.0039z"/>
<path d="m623.54 37.97c2.506 2.5065 6.811 2.2804 9.595-0.5042 2.786-2.7853 3.012-7.0905 0.506-9.597-2.506-2.5063-6.811-2.2794-9.597 0.5059-2.784 2.7846-3.011 7.089-0.504 9.5953z"/>
<path d="m629.95 47.04v2e-4c0.252 0.5066 0.578 0.9543 0.963 1.3395 1.797 1.7976 4.874 2.2252 7.577 0.8586 1.557-0.7865 2.77-2.0505 3.416-3.5589 0.677-1.5789 0.661-3.2333-0.047-4.6588-0.708-1.4257-2.012-2.4298-3.67-2.8279-1.585-0.3803-3.314-0.1562-4.87 0.6308-3.283 1.6597-4.794 5.3457-3.369 8.2165z"/>
<path d="m640.11 55.892v-0.0014c-0.454-2.9632-3.553-4.9745-6.909-4.4833-3.356 0.4935-5.72 3.3049-5.27 6.2664 0.164 1.0804 0.68 2.0345 1.433 2.7868 1.311 1.3113 3.341 2.0102 5.476 1.6985 3.356-0.4937 5.72-3.3048 5.27-6.267z"/>
</g>
<g fill="#fff" opacity=".05">
<path d="m621.09 291.53c-4.931-15.508-17.251-27.281-32.959-31.49-15.707-4.208-32.263-0.173-44.286 10.793l-28.975 26.422c-4.807 4.383-8.009 10.078-9.26 16.465s-0.431 12.867 2.368 18.743c2.804 5.871 7.325 10.583 13.074 13.625 5.749 3.043 12.188 4.126 18.618 3.137l0.431-0.068c16.147-2.362 32.671 2.127 45.405 12.35 3.285 2.636 7.009 4.522 10.99 5.589 2.165 0.58 4.409 0.918 6.698 1.004 6.5 0.241 12.771-1.579 18.136-5.263 5.362-3.684 9.314-8.887 11.426-15.046 2.112-6.158 2.187-12.69 0.216-18.892l-11.882-37.369z"/>
<path d="m529.42 266.1c6.672-0.701 12.573-4.341 16.617-10.251 3.848-5.623 5.548-12.681 4.784-19.874-0.767-7.189-3.912-13.733-8.856-18.428-5.193-4.931-11.727-7.258-18.39-6.55-13.402 1.413-22.999 14.925-21.394 30.128 1.293 12.104 9.309 21.675 19.289 24.349 2.549 0.683 5.226 0.916 7.95 0.626z"/>
<path d="m575.41 251.64c15.407 4.128 31.673-6.438 36.26-23.555 4.587-17.12-4.216-34.407-19.623-38.536-15.406-4.128-31.672 6.442-36.259 23.563-4.587 17.116 4.216 34.4 19.622 38.528z"/>
<path d="m620.82 272.55 2e-3 1e-3c2.121 1.407 4.398 2.418 6.766 3.053 11.05 2.961 23.999-2.294 31.46-13.702 4.296-6.567 6.181-14.223 5.306-21.555-0.914-7.677-4.702-14.086-10.667-18.048-5.968-3.963-13.306-4.943-20.665-2.763-7.031 2.083-13.267 6.848-17.56 13.415-9.058 13.854-6.654 31.618 5.358 39.599z"/>
<path d="m680.3 284.2-3e-3 -5e-3c-8.435-10.526-25.037-11.392-37.012-1.926-11.968 9.474-14.854 25.748-6.436 36.276 3.07 3.841 7.227 6.398 11.852 7.637 8.06 2.16 17.542 0.317 25.163-5.703 11.967-9.474 14.854-25.747 6.436-36.279z"/>
</g>
<g fill="#fff" opacity=".1">
<path d="m1362.4 6.1078c0.82 7.3174 5.24 13.631 11.84 16.89 6.59 3.2582 14.3 2.9339 20.6-0.8668l15.2-9.1575c2.52-1.519 4.44-3.7623 5.56-6.485 1.12-2.7233 1.33-5.6708 0.61-8.5254-0.72-2.8534-2.31-5.3442-4.59-7.203-2.28-1.8588-5.04-2.9098-7.98-3.0404l-0.2-8e-3c-7.37-0.3815-14.31-3.8365-19.05-9.4997-1.23-1.4606-2.71-2.627-4.38-3.4529-0.91-0.449-1.88-0.7974-2.89-1.0383-2.86-0.6826-5.8-0.4304-8.51 0.7293-2.71 1.1596-4.92 3.1182-6.4 5.6635s-2.1 5.4367-1.77 8.3631l1.96 17.631z"/>
<path d="m1400.8 25.508c-3.02-0.2797-5.96 0.8129-8.28 3.0769-2.2 2.1541-3.58 5.1349-3.88 8.394-0.3 3.2577 0.52 6.4396 2.3 8.9603 1.87 2.6474 4.56 4.2584 7.58 4.5342 6.07 0.5598 11.52-4.5852 12.16-11.472 0.5-5.4849-2.21-10.441-6.41-12.511-1.07-0.5286-2.23-0.869-3.47-0.9819z"/>
<path d="m1379.1 27.851c-6.47-3.1959-14.62 0.0519-18.17 7.24-3.56 7.1899-1.18 15.639 5.29 18.835 6.47 3.1956 14.62-0.0537 18.17-7.2436 3.55-7.1881 1.18-15.636-5.29-18.831z"/>
<path d="m1360.8 14.553v-3e-4c-0.82-0.8122-1.74-1.4626-2.73-1.9537-4.64-2.292-10.85-1.1074-15.17 3.2936-2.49 2.5331-4 5.7629-4.27 9.0937-0.27 3.4867 0.84 6.6656 3.14 8.952 2.3 2.2866 5.47 3.3713 8.92 3.0555 3.31-0.3015 6.5-1.8635 8.98-4.3972 5.25-5.3445 5.75-13.439 1.13-18.044z"/>
<path d="m1335.5 4.1166v0.00269c2.81 5.4172 10.1 7.2712 16.25 4.1318 6.15-3.1436 8.87-10.108 6.07-15.525-1.02-1.9761-2.64-3.4787-4.58-4.438-3.39-1.6719-7.76-1.6938-11.67 0.302-6.15 3.1439-8.87 10.108-6.07 15.526z"/>
</g>
<g fill="#fff" opacity=".1">
<path d="m886.72 154.94c-4.041-0.885-8.199 0.331-11.122 3.254s-4.139 7.081-3.253 11.122l2.134 9.737c0.354 1.616 1.201 3.045 2.448 4.132s2.778 1.73 4.427 1.861c1.649 0.129 3.261-0.267 4.662-1.147 1.4-0.879 2.457-2.158 3.057-3.7l0.04-0.103c1.532-3.855 4.621-6.923 8.49-8.427 0.998-0.388 1.886-0.968 2.627-1.709 0.403-0.403 0.763-0.854 1.073-1.347 0.879-1.4 1.275-3.012 1.146-4.662-0.129-1.649-0.773-3.18-1.86-4.428s-2.516-2.094-4.132-2.449l-9.737-2.134z"/>
<path d="m869.47 171.9c0.693-1.558 0.642-3.32-0.145-4.961-0.749-1.562-2.087-2.834-3.768-3.58-1.68-0.745-3.52-0.884-5.182-0.393-1.746 0.517-3.089 1.66-3.78 3.217-1.392 3.13 0.363 6.96 3.914 8.539 2.829 1.254 5.955 0.706 7.812-1.152 0.474-0.474 0.866-1.033 1.149-1.67z"/>
<path d="m872.13 159.93c2.867-2.867 2.609-7.791-0.577-10.976-3.186-3.187-8.111-3.446-10.978-0.579s-2.608 7.792 0.579 10.978c3.185 3.186 8.109 3.445 10.976 0.577z"/>
<path d="m882.51 152.59v-1e-3c0.58-0.288 1.092-0.66 1.532-1.101 2.057-2.056 2.546-5.575 0.983-8.668-0.9-1.78-2.346-3.168-4.071-3.908-1.807-0.775-3.699-0.755-5.33 0.054-1.631 0.81-2.779 2.302-3.235 4.199-0.435 1.812-0.178 3.791 0.722 5.571 1.898 3.755 6.115 5.484 9.399 3.854z"/>
<path d="m892.63 140.98h-2e-3c-3.389 0.519-5.69 4.064-5.128 7.904 0.564 3.839 3.78 6.543 7.168 6.028 1.236-0.188 2.327-0.778 3.188-1.639 1.5-1.5 2.299-3.822 1.943-6.265-0.565-3.838-3.781-6.543-7.169-6.028z"/>
</g>
<g fill="#fff" opacity=".1">
<path d="m978.58 194.93c-2.632-3.191-6.654-4.801-10.759-4.305-4.104 0.496-7.627 3.016-9.424 6.743l-4.331 8.978c-0.718 1.49-0.934 3.137-0.624 4.762 0.311 1.625 1.118 3.076 2.335 4.197 1.218 1.119 2.731 1.802 4.376 1.975 1.644 0.173 3.266-0.182 4.689-1.025l0.095-0.056c3.585-2.088 7.908-2.595 11.881-1.39 1.025 0.31 2.082 0.402 3.122 0.277 0.566-0.069 1.127-0.202 1.675-0.398 1.556-0.559 2.863-1.583 3.78-2.961 0.915-1.377 1.355-2.979 1.269-4.631-0.085-1.653-0.687-3.201-1.739-4.478l-6.345-7.688z"/>
<path d="m954.54 197.62c1.507-0.798 2.554-2.216 2.948-3.993 0.375-1.691 0.107-3.517-0.755-5.142-0.862-1.623-2.224-2.868-3.835-3.507-1.693-0.671-3.455-0.601-4.959 0.198-3.028 1.603-4.011 5.7-2.192 9.134 1.452 2.733 4.25 4.231 6.858 3.916 0.666-0.081 1.319-0.28 1.935-0.606z"/>
<path d="m964.02 189.85c4.025-0.486 6.861-4.52 6.321-8.993s-4.255-7.717-8.281-7.23c-4.025 0.486-6.861 4.521-6.32 8.994 0.54 4.472 4.254 7.715 8.28 7.229z"/>
<path d="m976.72 190.48 1e-3 -1e-3c0.633 0.131 1.266 0.154 1.885 0.079 2.887-0.348 5.444-2.815 6.123-6.213 0.391-1.956 0.11-3.941-0.791-5.588-0.943-1.724-2.444-2.877-4.227-3.246-1.783-0.37-3.607 0.095-5.137 1.306-1.461 1.158-2.48 2.873-2.87 4.829-0.824 4.127 1.426 8.089 5.016 8.834z"/>
<path d="m991.85 187.59-1e-3 -1e-3c-2.988-1.684-6.986-0.315-8.914 3.053-1.925 3.369-1.063 7.482 1.92 9.167 1.088 0.615 2.311 0.825 3.52 0.679 2.106-0.255 4.168-1.588 5.395-3.73 1.925-3.369 1.064-7.482-1.92-9.168z"/>
</g>
<g fill="#fff" opacity=".1">
<path d="m855.03 62.114c-3.603-2.033-7.934-2.0911-11.587-0.1548-3.652 1.9363-6.035 5.554-6.375 9.6769l-0.818 9.935c-0.136 1.6482 0.254 3.2627 1.127 4.668 0.874 1.4055 2.148 2.4698 3.686 3.0787 1.539 0.6076 3.196 0.7018 4.793 0.2727 1.597-0.4292 2.983-1.3423 4.009-2.6398l0.068-0.0873c2.597-3.2355 6.45-5.261 10.59-5.563 1.068-0.0781 2.088-0.3718 3.014-0.8626 0.503-0.2668 0.979-0.5925 1.42-0.9728 1.252-1.0805 2.104-2.5051 2.464-4.1199 0.361-1.6142 0.195-3.2669-0.478-4.7789s-1.79-2.7407-3.231-3.5539l-8.682-4.8983z"/>
<path d="m833.56 73.252c1.12-1.2858 1.588-2.9851 1.318-4.7853-0.258-1.7131-1.163-3.3209-2.551-4.5276-1.388-1.2055-3.106-1.879-4.839-1.8969-1.821-0.0184-3.44 0.6797-4.557 1.9653-2.25 2.5835-1.697 6.7601 1.234 9.312 2.336 2.0292 5.486 2.4226 7.806 1.1923 0.593-0.3142 1.131-0.7342 1.589-1.2598z"/>
<path d="m839.62 62.598c3.583-1.8993 4.781-6.6826 2.671-10.663-2.11-3.9811-6.742-5.6746-10.325-3.7754-3.582 1.8991-4.78 6.6829-2.669 10.664 2.11 3.9801 6.741 5.6732 10.323 3.7741z"/>
<path d="m851.69 58.627v-2e-4c0.639-0.1052 1.238-0.3113 1.788-0.6032 2.57-1.3621 4.07-4.5823 3.484-7.9977-0.338-1.9661-1.312-3.7174-2.745-4.9309-1.499-1.2706-3.314-1.8077-5.11-1.5123-1.797 0.2955-3.333 1.3837-4.325 3.0638-0.948 1.6049-1.284 3.5716-0.946 5.5374 0.713 4.1471 4.236 7.0375 7.854 6.4431z"/>
<path d="m864.78 50.496-1e-3 -5e-4c-3.393-0.4988-6.633 2.2146-7.223 6.0499-0.587 3.8356 1.693 7.3645 5.083 7.8666 1.236 0.1835 2.453-0.0604 3.529-0.6305 1.874-0.9936 3.32-2.9785 3.696-5.4184 0.587-3.8354-1.693-7.3645-5.084-7.8671z"/>
</g>
<g fill="#fff" opacity=".05">
<path d="m737.14 51.471c-4.127 0.2884-7.774 2.6263-9.756 6.2545-1.981 3.6282-1.977 7.9603 0.011 11.588l4.791 8.7421c0.794 1.4504 2.01 2.5829 3.512 3.2747 1.503 0.692 3.153 0.878 4.773 0.5387 1.618-0.3406 3.053-1.175 4.15-2.4129 1.096-1.2379 1.75-2.7636 1.891-4.4116l9e-3 -0.1105c0.384-4.1306 2.484-7.9438 5.773-10.477 0.848-0.6536 1.537-1.4604 2.039-2.3801 0.274-0.5 0.491-1.034 0.65-1.5944 0.449-1.5913 0.376-3.2496-0.213-4.796-0.589-1.5456-1.637-2.8338-3.032-3.7248s-3.004-1.3009-4.654-1.1859l-9.944 0.6951z"/>
<path d="m725.36 72.594c0.227-1.6904-0.319-3.3665-1.537-4.7197-1.158-1.288-2.8-2.1309-4.623-2.3734-1.822-0.2416-3.627 0.143-5.083 1.083-1.53 0.9875-2.496 2.4621-2.721 4.1507-0.454 3.3957 2.309 6.5766 6.161 7.0914 3.068 0.4062 5.912-1.0004 7.171-3.3057 0.322-0.5886 0.54-1.2359 0.632-1.9263z"/>
<path d="m724.54 60.366c1.944-3.5588 0.308-8.2108-3.645-10.37-3.955-2.1598-8.753-1.0214-10.697 2.5375-1.943 3.5585-0.307 8.2105 3.647 10.37 3.954 2.1592 8.752 1.0208 10.695-2.5377z"/>
<path d="m732.43 50.4v-3e-4c0.475-0.4396 0.862-0.9416 1.16-1.4886 1.394-2.5522 0.872-6.0664-1.499-8.5935-1.364-1.455-3.143-2.3795-5.007-2.6031-1.951-0.2345-3.761 0.3171-5.098 1.5534-1.337 1.2366-2.019 2.9907-1.921 4.9396 0.093 1.8616 0.896 3.6879 2.261 5.1422 2.88 3.0684 7.412 3.5396 10.104 1.0503z"/>
<path d="m738.88 36.403-2e-3 4e-4c-3.106 1.4529-4.315 5.5024-2.695 9.0282 1.623 3.5245 5.471 5.2132 8.576 3.7647 1.133-0.528 2.014-1.4019 2.598-2.4701 1.017-1.8618 1.13-4.3148 0.1-6.5584-1.624-3.5242-5.471-5.2132-8.577-3.7648z"/>
</g>
<g fill="#fff" opacity=".05">
<path d="m157.23 93.392c1.032-4.0061-0.032-8.2055-2.847-11.233-2.814-3.0276-6.925-4.3943-10.996-3.656l-9.808 1.7784c-1.628 0.2949-3.086 1.0891-4.218 2.2957-1.132 1.2069-1.831 2.7132-2.021 4.3568-0.189 1.6432 0.148 3.2685 0.976 4.7002 0.827 1.4316 2.067 2.5345 3.586 3.1898l0.102 0.0436c3.797 1.6716 6.75 4.8699 8.112 8.7915 0.351 1.011 0.899 1.92 1.612 2.688 0.388 0.417 0.826 0.793 1.307 1.12 1.368 0.93 2.964 1.385 4.617 1.316s3.206-0.656 4.493-1.698c1.287-1.041 2.185-2.438 2.598-4.04l2.487-9.6528z"/>
<path d="m140.92 75.535c1.531 0.75 3.294 0.7628 4.963 0.036 1.588-0.6915 2.907-1.9821 3.714-3.6346 0.806-1.652 1.012-3.4862 0.581-5.165-0.453-1.7633-1.546-3.1469-3.076-3.8941-3.078-1.5055-6.969 0.1087-8.677 3.6-1.356 2.7817-0.922 5.9255 0.867 7.8492 0.457 0.4913 1.002 0.9029 1.628 1.2085z"/>
<path d="m152.78 78.631c2.761 2.9698 7.692 2.8905 10.991-0.1768 3.3-3.0681 3.738-7.9802 0.977-10.95-2.761-2.9695-7.691-2.8894-10.991 0.1787-3.3 3.0673-3.738 7.9786-0.977 10.948z"/>
<path d="m159.73 89.268 1e-3 2e-4c0.266 0.5896 0.62 1.115 1.045 1.5713 1.98 2.1299 5.478 2.7469 8.626 1.2972 1.812-0.8343 3.252-2.2287 4.054-3.9262 0.839-1.7767 0.889-3.6687 0.139-5.3278-0.75-1.6593-2.198-2.8614-4.078-3.3856-1.795-0.5008-3.782-0.3166-5.593 0.5183-3.822 1.7606-5.703 5.9114-4.194 9.2526z"/>
<path d="m170.97 99.81v-0.0016c-0.395-3.4063-3.854-5.8346-7.711-5.4129-3.857 0.4244-6.676 3.5398-6.285 6.9437 0.142 1.242 0.693 2.355 1.521 3.246 1.445 1.554 3.736 2.437 6.19 2.17 3.857-0.425 6.677-3.54 6.285-6.9452z"/>
</g>
<g fill="#fff" opacity=".05">
<path d="m423.96 9.0296c4.759 7.4308 12.864 11.868 21.682 11.868 8.817 0 16.922-4.4369 21.681-11.868l11.467-17.905c1.903-2.9703 2.781-6.4026 2.539-9.923-0.241-3.5211-1.58-6.8-3.87-9.4844-2.293-2.6821-5.322-4.5153-8.76-5.3019s-6.963-0.4507-10.192 0.9699l-0.216 0.0961c-8.125 3.5034-17.41 3.4711-25.514-0.0961-2.091-0.9198-4.306-1.385-6.541-1.385-1.215 0-2.438 0.1381-3.649 0.4143-3.438 0.7858-6.467 2.619-8.76 5.3019-2.292 2.682-3.631 5.9617-3.873 9.4836-0.242 3.522 0.636 6.9535 2.538 9.9254l11.468 17.904z"/>
<path d="m475.54 9.4847c-3.396 1.3036-5.976 4.0385-7.265 7.7012-1.226 3.4854-1.126 7.4203 0.284 11.081 1.41 3.6579 3.976 6.644 7.224 8.4092 3.412 1.8534 7.161 2.1552 10.551 0.8492 6.822-2.6208 9.952-11.044 6.977-18.782-2.376-6.1584-7.917-10.046-13.52-10.046-1.43 0-2.865 0.25366-4.251 0.78746z"/>
<path d="m453.48 23.511c-8.649 0-15.686 7.8172-15.686 17.426 0 9.611 7.037 17.43 15.686 17.43 8.648 0 15.684-7.8187 15.684-17.43 0-9.6086-7.036-17.426-15.684-17.426z"/>
<path d="m426.76 18.934h-1e-3c-1.308-0.4395-2.643-0.6495-3.972-0.6495-6.203 0-12.248 4.5694-14.555 11.592-1.328 4.0423-1.241 8.3165 0.246 12.034 1.556 3.8923 4.44 6.7175 8.12 7.9557 3.682 1.2382 7.663 0.7217 11.211-1.4531 3.39-2.0775 5.988-5.4484 7.315-9.4907 2.8-8.5273-0.952-17.494-8.364-19.988z"/>
<path d="m393.97 21.179 3e-3 0.0024c5.895 4.3295 14.712 2.453 19.655-4.1854 4.939-6.6415 4.167-15.57-1.72-19.903-2.146-1.5811-4.683-2.3369-7.279-2.3369-4.525 0-9.232 2.296-12.379 6.5182-4.938 6.6415-4.167 15.57 1.72 19.905z"/>
</g>
<g fill="#fff" opacity=".2">
<path d="m1191.2-5.7602c-2.68-2.4368-6.36-3.3336-9.85-2.3982s-6.22 3.5516-7.32 6.998l-2.64 8.3047c-0.44 1.3777-0.42 2.8296 0.05 4.1976 0.47 1.3683 1.34 2.5244 2.54 3.3441 1.19 0.8186 2.58 1.223 4.03 1.1697 1.44-0.0533 2.8-0.5601 3.93-1.465l0.07-0.061c2.85-2.2488 6.53-3.2209 10.11-2.6684 0.93 0.1424 1.85 0.0916 2.74-0.1455 0.48-0.1289 0.95-0.3132 1.4-0.551 1.28-0.6758 2.28-1.7229 2.91-3.0282 0.62-1.3048 0.8-2.7453 0.52-4.1652-0.27-1.4199-0.99-2.6853-2.05-3.66l-6.44-5.8716z"/>
<path d="m1170.7-0.46892c1.2-0.87631 1.94-2.2326 2.06-3.8193 0.11-1.5099-0.34-3.057-1.29-4.3565-0.95-1.2985-2.28-2.2085-3.75-2.5627-1.55-0.3718-3.07-0.0936-4.27 0.783-2.42 1.7611-2.77 5.4279-0.77 8.1754 1.59 2.1859 4.2 3.1371 6.42 2.5428 0.56-0.15175 1.11-0.40434 1.6-0.76272z"/>
</g>
</g>
</svg>
